<svg width="24" height="24" viewBox="0 0 24 24" fill="none" xmlns="http://www.w3.org/2000/svg">
<circle cx="12" cy="12" r="12" fill="#333333"/>
<g clip-path="url(#clip0_4621_2272)">
<path d="M18.5951 12.5805C17.9528 12.7946 17.2809 12.9202 16.6017 12.9521C16.8281 10.3608 15.8265 7.92691 14.062 6.24855C16.6829 7.01145 18.6 9.43301 18.6 12.3C18.6 12.3935 18.5975 12.487 18.5951 12.5805ZM18.4991 13.4345C18.3564 14.222 18.066 14.9603 17.6575 15.6173C15.258 16.8109 12.3 16.6657 9.9818 15.0144C10.565 14.1236 11.3452 13.3484 12.3074 12.7553C14.2737 13.8184 16.4934 14.0054 18.4991 13.4345ZM12.6913 12.0687C12.6298 9.83168 11.6798 7.81863 10.1836 6.36668C10.8431 6.12797 11.5568 6 12.3 6C12.3664 6 12.4304 6 12.4944 6.00246C14.7289 7.48395 16.08 10.1171 15.8093 12.9497C14.7486 12.8906 13.683 12.6027 12.6888 12.0662L12.6913 12.0687ZM9.39609 6.70875C9.90305 7.1591 10.3485 7.67836 10.7176 8.2493C8.36004 9.34934 6.75305 11.4338 6.17965 13.7987C6.06152 13.3188 6 12.8168 6 12.3C6 9.86859 7.37813 7.75957 9.39609 6.70875ZM11.1089 8.9359C11.5888 9.88582 11.8718 10.9514 11.9038 12.0785C9.99902 13.2499 8.72918 15.0784 8.21977 17.0988C7.62422 16.5919 7.12219 15.9766 6.74813 15.2827C6.91301 12.6076 8.51754 10.1171 11.1064 8.9359H11.1089ZM12.3 18.6C11.0523 18.6 9.88828 18.2382 8.90883 17.6107C9.04664 16.9463 9.27305 16.3039 9.58313 15.6986C11.7143 17.1874 14.3204 17.5369 16.6559 16.8527C15.5238 17.9355 13.9907 18.6 12.3 18.6Z" fill="white"/>
</g>
<defs>
<clipPath id="clip0_4621_2272">
<rect width="12.6" height="12.6" fill="white" transform="translate(6 6)"/>
</clipPath>
</defs>
</svg>
