<svg width="24" height="24" viewBox="0 0 24 24" fill="none" xmlns="http://www.w3.org/2000/svg">
<circle cx="12" cy="12" r="12" fill="#333333"/>
<g clip-path="url(#clip0_4574_2545)">
<path d="M15.3599 6.24005C15.3599 6.62196 15.2082 6.98823 14.9381 7.25828C14.668 7.52833 14.3018 7.68005 13.9199 7.68005C13.538 7.68005 13.1717 7.52833 12.9016 7.25828C12.6316 6.98823 12.4799 6.62196 12.4799 6.24005C12.4799 5.85814 12.6316 5.49187 12.9016 5.22182C13.1717 4.95176 13.538 4.80005 13.9199 4.80005C14.3018 4.80005 14.668 4.95176 14.9381 5.22182C15.2082 5.49187 15.3599 5.85814 15.3599 6.24005ZM15.3599 15.36C15.1053 15.36 14.8611 15.4612 14.681 15.6412C14.501 15.8213 14.3999 16.0654 14.3999 16.32C14.3999 16.5747 14.501 16.8188 14.681 16.9989C14.8611 17.1789 15.1053 17.28 15.3599 17.28C15.6145 17.28 15.8587 17.1789 16.0387 16.9989C16.2187 16.8188 16.3199 16.5747 16.3199 16.32C16.3199 16.0654 16.2187 15.8213 16.0387 15.6412C15.8587 15.4612 15.6145 15.36 15.3599 15.36ZM17.1263 10.6464L15.2927 8.81285C15.25 8.75952 15.196 8.71634 15.1345 8.68646C15.0731 8.65657 15.0058 8.64072 14.9375 8.64005H8.15986C8.03256 8.64005 7.91047 8.69062 7.82045 8.78064C7.73043 8.87065 7.67986 8.99274 7.67986 9.12005C7.67986 9.24735 7.73043 9.36944 7.82045 9.45946C7.91047 9.54948 8.03256 9.60005 8.15986 9.60005H8.30755C9.42678 9.60005 10.1518 10.7815 9.64492 11.7793L7.7148 15.5793C7.69161 15.6249 7.67246 15.6734 7.67033 15.7246C7.66714 15.8012 7.66806 15.8791 7.67183 15.9557C7.67614 16.0436 7.70405 16.1294 7.75362 16.2038C7.82489 16.3107 7.93524 16.3853 8.06098 16.4117C8.18671 16.4381 8.31778 16.4142 8.42603 16.345C8.46908 16.3174 8.50715 16.2836 8.5392 16.245C8.63617 16.1283 8.67884 15.975 8.75547 15.844L9.33853 14.8469C9.50038 14.5702 9.79693 14.4 10.1175 14.4C10.7741 14.4 11.2109 15.0788 10.9389 15.6764L9.66706 18.4704C9.64692 18.5039 9.63113 18.5397 9.61993 18.5767C9.59197 18.6692 9.58413 18.7688 9.59561 18.8648C9.60485 18.942 9.63247 19.0167 9.67706 19.0822C9.7492 19.1882 9.86003 19.2616 9.98573 19.2867C10.1114 19.3119 10.242 19.2867 10.3493 19.2166C10.4039 19.181 10.4503 19.1352 10.4864 19.0823C10.5561 18.9799 10.5879 18.856 10.6434 18.7452L14.1838 11.6796C14.6182 10.8126 15.778 10.633 16.4543 11.328C16.5466 11.4061 16.6651 11.4464 16.7859 11.4409C16.9067 11.4354 17.0209 11.3845 17.1058 11.2984C17.1907 11.2123 17.24 11.0973 17.2438 10.9764C17.2476 10.8555 17.2056 10.7377 17.1263 10.6464Z" fill="white"/>
</g>
<defs>
<clipPath id="clip0_4574_2545">
<rect width="14.4" height="14.4" fill="white" transform="translate(4.7998 4.80005)"/>
</clipPath>
</defs>
</svg>
