<svg width="24" height="24" viewBox="0 0 24 24" fill="none" xmlns="http://www.w3.org/2000/svg">
<circle cx="12" cy="12" r="12" fill="#333333"/>
<path d="M13.2 18.6C12.8686 18.6 12.6 18.3313 12.6 18V15.3406C12.6 15.1231 12.5108 14.915 12.3533 14.765C11.9066 14.3396 11.1666 14.5629 11.0299 15.1645L10.9541 15.4977C10.8351 16.0216 10.3195 16.3546 9.79298 16.2478L7.19641 15.721C6.86674 15.6541 6.65341 15.3328 6.71938 15.0029C6.78586 14.6705 7.11039 14.4563 7.44223 14.5254L8.73078 14.7939C9.27543 14.9073 9.80797 14.5545 9.91578 14.0087L10.5168 10.9662C10.5875 10.6081 10.2352 10.3129 9.89502 10.4452C9.71714 10.5144 9.59998 10.6857 9.59998 10.8765V12C9.59998 12.3313 9.33135 12.6 8.99998 12.6C8.6686 12.6 8.39998 12.3313 8.39998 12V10.4383C8.39998 10.0388 8.63772 9.67763 9.00465 9.51971L10.77 8.75995C11.12 8.60995 11.3776 8.51235 11.5428 8.46715C11.7076 8.42235 11.86 8.39995 12 8.39995C12.21 8.39995 12.405 8.45495 12.585 8.56495C12.765 8.67495 12.91 8.81995 13.02 8.99995L13.62 9.95995C13.88 10.38 14.2324 10.725 14.6772 10.995C14.9606 11.1668 15.2692 11.284 15.6032 11.3464C15.9289 11.4074 16.2 11.6686 16.2 12C16.2 12.3313 15.9301 12.6047 15.6017 12.5607C15.1633 12.502 14.7454 12.3775 14.3478 12.1872C14.2325 12.1321 14.1209 12.0734 14.013 12.0113C13.5026 11.7173 12.732 11.9397 12.6165 12.5172C12.5689 12.7555 12.6467 13.0016 12.8226 13.1691L13.4896 13.8044C13.6878 13.9931 13.8 14.2548 13.8 14.5285V18C13.8 18.3313 13.5313 18.6 13.2 18.6ZM12.9 8.09995C12.57 8.09995 12.2876 7.98235 12.0528 7.74715C11.8176 7.51235 11.7 7.22995 11.7 6.89995C11.7 6.56995 11.8176 6.28735 12.0528 6.05215C12.2876 5.81735 12.57 5.69995 12.9 5.69995C13.23 5.69995 13.5126 5.81735 13.7478 6.05215C13.9826 6.28735 14.1 6.56995 14.1 6.89995C14.1 7.22995 13.9826 7.51235 13.7478 7.74715C13.5126 7.98235 13.23 8.09995 12.9 8.09995Z" fill="white"/>
</svg>
