<svg width="24" height="24" viewBox="0 0 24 24" fill="none" xmlns="http://www.w3.org/2000/svg">
<circle cx="12" cy="12" r="12" fill="#333333"/>
<path d="M6.47294 11.7726C6.33282 11.7729 6.19853 11.8287 6.09936 11.9277C6.0002 12.0267 5.94421 12.1609 5.9436 12.301C5.9436 12.5911 6.18206 12.8252 6.47294 12.8252C6.54192 12.8254 6.61027 12.812 6.67406 12.7858C6.73785 12.7596 6.79584 12.721 6.8447 12.6723C6.89355 12.6236 6.93232 12.5657 6.95877 12.502C6.98522 12.4383 6.99883 12.37 6.99883 12.301C6.99898 12.1613 6.94371 12.0272 6.84513 11.9281C6.74655 11.829 6.6127 11.7731 6.47294 11.7726ZM13.8135 7.37798C14.1171 7.37836 14.4083 7.25815 14.6233 7.04379C14.8383 6.82943 14.9593 6.53847 14.9597 6.2349C14.9597 5.93041 14.8388 5.63838 14.6235 5.42307C14.4081 5.20775 14.1161 5.08679 13.8116 5.08679C13.5071 5.08679 13.2151 5.20775 12.9998 5.42307C12.7845 5.63838 12.6635 5.93041 12.6635 6.2349C12.6635 6.86793 13.179 7.37798 13.8135 7.37798ZM18.7472 17.5766L17.0589 15.5888C16.943 15.4523 16.8661 15.2889 16.8358 15.1124C16.7035 14.3424 16.3299 12.167 16.301 11.9933C16.2997 11.9857 16.2984 11.9785 16.2967 11.9711C16.2735 11.8689 16.1536 11.3261 16.1312 11.2238C16.0751 10.9675 15.9962 10.6089 15.916 10.2426C15.8694 10.0299 16.1547 9.89704 16.3443 10.004C16.3938 10.0319 16.3764 10.041 16.4028 10.0914C16.5811 10.4329 17.297 11.7919 17.3484 11.8894C17.3503 11.8932 17.3523 11.8968 17.3543 11.9005C17.429 12.0345 17.5508 12.1338 17.6954 12.1781C17.7688 12.201 17.8459 12.2091 17.9224 12.2018C17.9989 12.1946 18.0732 12.1722 18.141 12.136C18.209 12.1012 18.2693 12.0529 18.318 11.994C18.3667 11.9352 18.4029 11.8669 18.4244 11.7936C18.4489 11.7215 18.4581 11.6451 18.4514 11.5693C18.4447 11.4935 18.4222 11.4199 18.3855 11.3532L17.327 9.34019C17.3205 9.32786 17.3138 9.31566 17.3063 9.30393C17.2902 9.27873 17.2577 9.23137 17.2188 9.19266C17.1476 9.12172 16.9982 9.03583 16.9755 9.02295C16.9735 9.02181 16.9715 9.02073 16.9695 9.01959L14.8975 7.84281C14.6343 7.71004 14.3434 7.66482 14.052 7.72761C13.9757 7.74318 13.9029 7.76727 13.8275 7.80077C13.7375 7.84079 13.6475 7.88509 13.5651 7.93914C13.406 8.0435 13.1356 8.27281 12.9547 8.69644L12.1093 10.3939C11.9705 10.6726 11.7098 10.8707 11.4042 10.9298L10.2143 11.1601C10.2109 11.1608 10.2075 11.1617 10.2042 11.1629C10.1831 11.1705 10.1597 11.1673 10.1414 11.1544L8.65397 10.105C8.31384 9.86745 8.27208 9.15407 8.26805 9.12614C8.22629 8.63682 7.94549 8.17516 7.49678 7.85692C7.09042 7.57036 6.59909 7.44825 6.15009 7.52111C5.79931 7.58073 5.50152 7.76246 5.31201 8.02857C5.16377 8.23918 5.0854 8.49103 5.08795 8.74857L5.10897 8.97983C5.18645 9.43026 5.46321 9.84988 5.87016 10.1402C6.28027 10.4302 6.76785 10.5529 7.21656 10.476C7.28615 10.4621 7.35606 10.4426 7.42494 10.4254C7.5193 10.402 7.66782 10.3719 7.82514 10.3636C8.15555 10.3462 8.49617 10.5808 8.76658 10.7715C9.01285 10.9451 9.31573 11.1583 9.5376 11.3147C9.66843 11.4068 9.6821 11.5887 9.68702 11.7487C9.6878 11.8342 9.70741 11.9185 9.74444 11.9956C9.78148 12.0727 9.83504 12.1407 9.90132 12.1948C9.96759 12.2489 10.045 12.2877 10.1279 12.3085C10.2109 12.3293 10.2974 12.3316 10.3814 12.3152L12.343 11.9331C12.3767 11.9265 12.4101 11.9183 12.4426 11.9071C12.4992 11.8876 12.5909 11.8529 12.6396 11.8181C12.7335 11.7526 12.8027 11.6153 12.8043 11.6122C12.8044 11.6121 12.8044 11.6121 12.8044 11.612C12.9793 11.2607 13.4991 11.3269 13.5807 11.7107C13.6052 11.8262 13.6281 11.9342 13.6474 12.0252C13.6836 12.1955 13.6337 12.3717 13.5139 12.498C13.1209 12.913 12.2469 13.8377 12.0814 14.0128C12.0626 14.0327 12.042 14.0486 12.0182 14.0621C12.0009 14.0719 11.9846 14.0835 11.9702 14.0972C11.8224 14.2374 11.712 14.4177 11.712 14.6082V18.2157C11.712 18.601 12.048 18.9121 12.4337 18.9121C12.8161 18.9121 13.152 18.601 13.152 18.2157V15.7832C13.152 15.4257 13.2115 15.1857 13.4666 14.9353C14.0324 14.3796 15.0718 14.5105 15.2105 15.2912C15.2265 15.3809 15.2363 15.4361 15.237 15.4403C15.2372 15.441 15.2371 15.4409 15.2373 15.4417C15.2419 15.4681 15.248 15.4941 15.2555 15.5197C15.3284 15.7707 15.5556 15.9781 15.7246 16.1775C16.293 16.848 17.5928 18.3772 17.6752 18.4741C17.6786 18.4781 17.681 18.4809 17.6845 18.4848C17.8063 18.6206 17.9748 18.7057 18.1565 18.7232C18.3412 18.737 18.5239 18.6783 18.666 18.5596C18.7429 18.4938 18.8047 18.4122 18.8471 18.3204C18.8895 18.2285 18.9115 18.1285 18.9117 18.0274C18.9127 17.8623 18.8543 17.7023 18.7472 17.5766ZM7.68629 9.7102C7.5636 9.88156 7.37438 9.9933 7.13937 10.0354C6.80962 10.0909 6.44126 9.99676 6.1331 9.77298C5.8212 9.55238 5.61038 9.23817 5.55451 8.90956L5.54011 8.74511C5.54011 8.57375 5.5859 8.42025 5.68066 8.28719C5.98565 7.86095 6.68318 7.83302 7.23701 8.22441C7.78795 8.61609 7.99128 9.28367 7.68629 9.7102Z" fill="white"/>
</svg>
