<svg width="40" height="40" viewBox="0 0 40 40" fill="none" xmlns="http://www.w3.org/2000/svg">
<circle cx="20" cy="20" r="20" fill="#333333"/>
<path d="M26.434 20.866C25.149 20.483 23.669 19.969 22.274 18.789L21.063 20L27.583 26.521C28.631 25.307 29.3697 23.8574 29.736 22.296L29.729 22.289L29.721 22.28C29.381 21.94 28.942 21.693 28.382 21.476C27.9133 21.3038 27.4376 21.1517 26.956 21.02L26.434 20.866ZM26.524 12.418L22.278 16.664C21.358 15.538 20.928 14.332 20.572 13.138L20.435 12.67C20.2869 12.132 20.1161 11.6005 19.923 11.077C19.7844 10.7085 19.612 10.3537 19.408 10.017C22.0018 9.8601 24.5556 10.7215 26.524 12.418ZM27.584 13.478L23.339 17.724C24.463 18.644 25.669 19.073 26.863 19.429L27.331 19.566C27.869 19.723 28.421 19.883 28.924 20.077C29.287 20.218 29.645 20.384 29.984 20.594C30.1411 18.0003 29.2801 15.4466 27.584 13.478ZM17.72 10.28L17.705 10.266C16.1437 10.632 14.6941 11.3703 13.48 12.418L20.002 18.94L21.212 17.729C20.032 16.333 19.518 14.853 19.135 13.567L18.981 13.045C18.8491 12.5635 18.697 12.0877 18.525 11.619C18.308 11.059 18.06 10.62 17.72 10.28ZM10.131 18.388C10.4252 16.5714 11.2176 14.8721 12.42 13.479L18.94 20L17.852 21.09C16.378 19.897 14.661 19.474 13.19 19.179C12.983 19.137 12.783 19.099 12.59 19.061C11.982 18.943 11.441 18.838 10.945 18.694C10.6654 18.6168 10.3933 18.5147 10.132 18.389L10.131 18.388ZM10.001 19.962C9.98864 22.3689 10.8475 24.6989 12.419 26.522L16.784 22.157C15.642 21.284 14.286 20.928 12.894 20.648C12.716 20.612 12.534 20.578 12.352 20.542C11.729 20.422 11.094 20.299 10.526 20.134C10.349 20.0831 10.1738 20.0257 10.001 19.962ZM17.847 23.214L13.48 27.582C15.3546 29.1976 17.763 30.0584 20.237 29.997C20.0896 29.6971 19.9668 29.3858 19.87 29.066C19.704 28.532 19.58 27.941 19.46 27.366C19.424 27.197 19.39 27.031 19.354 26.868C19.077 25.594 18.725 24.335 17.847 23.214ZM21.894 29.82C23.6061 29.4925 25.2021 28.7207 26.522 27.582L20.001 21.061L18.914 22.148C20.097 23.587 20.522 25.18 20.82 26.549L20.939 27.108C21.056 27.667 21.159 28.161 21.302 28.62C21.459 29.124 21.644 29.516 21.894 29.82Z" fill="white"/>
</svg>
