<svg width="24" height="24" viewBox="0 0 24 24" fill="none" xmlns="http://www.w3.org/2000/svg">
<circle cx="12" cy="12" r="12" fill="#333333"/>
<g clip-path="url(#clip0_4574_2573)">
<path d="M14.5064 6.72009C14.4099 6.72009 14.1502 6.83376 14.098 6.85707C14.0917 6.85986 14.0857 6.86276 14.0796 6.86585L10.8996 8.47401C10.4744 8.64201 10.3064 9.31977 10.5617 9.65865L11.1695 10.5409C11.3409 10.7896 11.2543 11.1323 10.9853 11.2698L8.39467 12.5938C8.06551 12.762 8.0264 13.2169 8.32202 13.4389L9.33091 14.1963C9.4935 14.3184 9.71382 14.3298 9.88819 14.2253L11.7445 13.1124C11.9028 13.0175 12.1006 13.0175 12.2589 13.1125L14.067 14.1973C14.2637 14.3154 14.5155 14.2844 14.6778 14.1221L15.057 13.7429C15.233 13.5669 15.2528 13.2884 15.1035 13.0893L12.8167 10.0403C12.6386 9.80292 12.7053 9.46361 12.96 9.31125L14.9384 8.12745C15.4452 7.87209 15.3636 7.45161 15.3636 7.19625C15.3598 6.99465 15.018 6.72009 14.5064 6.72009ZM16.5617 9.60009C16.341 9.5999 16.1225 9.64318 15.9185 9.72746C15.7146 9.81174 15.5292 9.93536 15.373 10.0913C15.2168 10.2472 15.0929 10.4323 15.0083 10.6362C14.9236 10.84 14.88 11.0584 14.8798 11.2791C14.8796 11.4998 14.9229 11.7184 15.0072 11.9223C15.0914 12.1263 15.2151 12.3117 15.371 12.4678C15.5269 12.624 15.712 12.748 15.9159 12.8326C16.1197 12.9172 16.3382 12.9609 16.5588 12.9611C17.0045 12.9614 17.4321 12.7848 17.7475 12.4699C18.063 12.155 18.2404 11.7277 18.2408 11.282C18.2411 10.8363 18.0645 10.4087 17.7496 10.0933C17.4347 9.77789 17.0074 9.60047 16.5617 9.60009ZM7.45705 14.5544C7.29871 14.4594 7.1009 14.4594 6.94256 14.5544L5.04256 15.6944C4.89195 15.7848 4.7998 15.9476 4.7998 16.1232V16.397C4.7998 16.7856 5.22379 17.0257 5.55705 16.8257L6.94256 15.9944C7.1009 15.8994 7.29871 15.8994 7.45705 15.9944L9.34266 17.1258C9.50095 17.2208 9.69868 17.2208 9.857 17.1259L11.7445 15.9943C11.9028 15.8994 12.1006 15.8994 12.2589 15.9944L14.1133 17.107C14.2877 17.2117 14.5081 17.2002 14.6707 17.0781L16.0725 16.0257C16.2241 15.912 16.4269 15.8936 16.5963 15.9784L18.4762 16.9183C18.8086 17.0845 19.1998 16.8428 19.1998 16.4711V16.1491C19.1998 15.9597 19.0928 15.7866 18.9234 15.7019L16.5963 14.5384C16.4269 14.4536 16.2241 14.472 16.0725 14.5857L14.6707 15.6381C14.5081 15.7602 14.2877 15.7717 14.1133 15.667L12.2589 14.5544C12.1006 14.4594 11.9028 14.4594 11.7445 14.5543L9.857 15.6859C9.69868 15.7808 9.50095 15.7808 9.34266 15.6858L7.45705 14.5544Z" fill="white"/>
</g>
<defs>
<clipPath id="clip0_4574_2573">
<rect width="14.4" height="14.4" fill="white" transform="translate(4.7998 4.80005)"/>
</clipPath>
</defs>
</svg>
