<svg width="24" height="24" viewBox="0 0 24 24" fill="none" xmlns="http://www.w3.org/2000/svg">
<circle cx="12" cy="12" r="12" fill="#333333"/>
<path d="M16.9856 13.464L13.5236 7.48196C13.4063 7.2778 13.2498 7.09884 13.0631 6.95538C12.8764 6.81191 12.6631 6.70677 12.4356 6.64599C12.2081 6.58521 11.9709 6.57 11.7375 6.60123C11.5041 6.63246 11.2792 6.70951 11.0756 6.82796C10.7996 6.98396 10.5776 7.19996 10.4156 7.48196L6.95964 13.464C6.84107 13.6665 6.7639 13.8905 6.73262 14.123C6.70133 14.3556 6.71655 14.5921 6.77739 14.8187C6.83824 15.0453 6.94349 15.2576 7.08705 15.4432C7.2306 15.6288 7.4096 15.7841 7.61364 15.9C7.88364 16.068 8.18964 16.152 8.50764 16.152H15.4376C15.9133 16.1501 16.3688 15.9594 16.7041 15.6219C17.0393 15.2844 17.2269 14.8277 17.2256 14.352C17.2256 14.04 17.1416 13.734 16.9856 13.464ZM8.02164 14.058L11.4656 8.08196C11.6276 7.79996 11.9996 7.69196 12.2756 7.85996C12.3716 7.90796 12.4496 7.98596 12.5036 8.08196L15.9476 14.058C16.1096 14.346 16.0136 14.7 15.7256 14.874C15.6356 14.928 15.5336 14.958 15.4316 14.958H8.52564C8.19564 14.952 7.92564 14.682 7.93164 14.352C7.93164 14.25 7.95564 14.148 8.00964 14.058H8.02164ZM11.9816 11.67C11.3216 11.67 10.7996 11.136 10.7996 10.476C10.7996 9.80996 11.3216 9.27596 11.9816 9.27596C12.2999 9.27596 12.6051 9.40239 12.8302 9.62743C13.0552 9.85248 13.1816 10.1577 13.1816 10.476C13.1816 11.136 12.6416 11.67 11.9696 11.67H11.9816ZM10.4756 14.358C9.81564 14.358 9.28164 13.824 9.28164 13.164C9.28164 12.504 9.81564 11.97 10.4756 11.97C11.1356 11.97 11.6756 12.504 11.6756 13.164C11.6756 13.824 11.1356 14.358 10.4756 14.358ZM13.4636 14.358C13.1475 14.3564 12.8447 14.2301 12.6211 14.0065C12.3975 13.7829 12.2712 13.4801 12.2696 13.164C12.2712 12.8478 12.3975 12.545 12.6211 12.3214C12.8447 12.0978 13.1475 11.9715 13.4636 11.97C14.1236 11.97 14.6636 12.504 14.6636 13.164C14.6636 13.824 14.1236 14.358 13.4636 14.358Z" fill="white"/>
</svg>
