<svg width="24" height="24" viewBox="0 0 24 24" fill="none" xmlns="http://www.w3.org/2000/svg">
<circle cx="12" cy="12" r="12" fill="#333333"/>
<g clip-path="url(#clip0_4574_2533)">
<path d="M15.3402 14.3438C16.1393 14.6027 16.5637 15.434 16.3048 16.2331C16.0459 17.0322 15.2146 17.4566 14.4155 17.1977C13.6164 16.9388 13.1919 16.1075 13.4509 15.3084C13.7098 14.5093 14.5411 14.0848 15.3402 14.3438ZM8.59123 12.7877C8.59123 12.7877 8.97707 13.5434 8.79212 14.1142L8.14481 16.1119C7.99685 16.5686 8.26694 17.0976 8.72356 17.2455C9.18019 17.3935 9.7092 17.1234 9.85716 16.6668L10.5045 14.669C10.6894 14.0982 11.4452 13.7124 11.4452 13.7124L8.59123 12.7877ZM9.34696 12.4018L11.0593 12.9567C11.0593 12.9567 13.9132 13.8814 14.838 11.0275C15.7627 8.17356 13.8495 6.29221 12.4225 5.82984C10.9955 5.36747 8.34251 5.76925 7.41777 8.62318C6.49304 11.4771 9.34696 12.4018 9.34696 12.4018Z" fill="white"/>
</g>
<defs>
<clipPath id="clip0_4574_2533">
<rect width="14.4" height="14.4" fill="white" transform="translate(7.37012 2.93127) rotate(17.9535)"/>
</clipPath>
</defs>
</svg>
