<svg width="24" height="24" viewBox="0 0 24 24" fill="none" xmlns="http://www.w3.org/2000/svg">
<circle cx="12" cy="12" r="12" fill="#333333"/>
<path d="M11.3994 12.0001C11.3994 12.1593 11.4626 12.3119 11.5752 12.4244C11.6877 12.5369 11.8403 12.6001 11.9994 12.6001C12.1585 12.6001 12.3112 12.5369 12.4237 12.4244C12.5362 12.3119 12.5994 12.1593 12.5994 12.0001C12.5994 11.841 12.5362 11.6884 12.4237 11.5759C12.3112 11.4634 12.1585 11.4001 11.9994 11.4001C11.8403 11.4001 11.6877 11.4634 11.5752 11.5759C11.4626 11.6884 11.3994 11.841 11.3994 12.0001Z" stroke="white" stroke-width="2" stroke-linecap="round" stroke-linejoin="round"/>
<path d="M8.99951 12.0001C8.99951 12.7958 9.31558 13.5588 9.87819 14.1214C10.4408 14.6841 11.2039 15.0001 11.9995 15.0001C12.7952 15.0001 13.5582 14.6841 14.1208 14.1214C14.6834 13.5588 14.9995 12.7958 14.9995 12.0001C14.9995 11.2045 14.6834 10.4414 14.1208 9.8788C13.5582 9.31619 12.7952 9.00012 11.9995 9.00012C11.2039 9.00012 10.4408 9.31619 9.87819 9.8788C9.31558 10.4414 8.99951 11.2045 8.99951 12.0001Z" stroke="white" stroke-width="2" stroke-linecap="round" stroke-linejoin="round"/>
<path d="M6.59961 12.0001C6.59961 12.7092 6.73928 13.4114 7.01066 14.0666C7.28204 14.7217 7.6798 15.317 8.18123 15.8185C8.68267 16.3199 9.27796 16.7177 9.93312 16.989C10.5883 17.2604 11.2905 17.4001 11.9996 17.4001C12.7087 17.4001 13.4109 17.2604 14.0661 16.989C14.7213 16.7177 15.3165 16.3199 15.818 15.8185C16.3194 15.317 16.7172 14.7217 16.9886 14.0666C17.2599 13.4114 17.3996 12.7092 17.3996 12.0001C17.3996 11.291 17.2599 10.5888 16.9886 9.93361C16.7172 9.27845 16.3194 8.68316 15.818 8.18172C15.3165 7.68028 14.7213 7.28252 14.0661 7.01115C13.4109 6.73977 12.7087 6.6001 11.9996 6.6001C11.2905 6.6001 10.5883 6.73977 9.93312 7.01115C9.27796 7.28252 8.68267 7.68028 8.18123 8.18172C7.6798 8.68316 7.28204 9.27845 7.01066 9.93361C6.73928 10.5888 6.59961 11.291 6.59961 12.0001Z" stroke="white" stroke-width="2" stroke-linecap="round" stroke-linejoin="round"/>
</svg>
