<svg width="24" height="24" viewBox="0 0 24 24" fill="none" xmlns="http://www.w3.org/2000/svg">
<circle cx="12" cy="12" r="12" fill="#333333"/>
<path d="M12.3597 6.23999C12.2643 6.23999 12.1727 6.27792 12.1052 6.34543C12.0377 6.41294 11.9997 6.50451 11.9997 6.59999V8.47199C11.9997 9.46343 12.6672 10.2979 13.5765 10.5528C13.4181 12.5256 12.8479 13.998 12.3806 14.9059C12.5131 15.0614 12.6377 15.1774 12.7349 15.2587C13.1085 15.5712 13.4397 16.0802 13.4397 16.7153C13.4402 17.0912 13.3201 17.4574 13.097 17.76H17.0397C17.3262 17.76 17.6009 17.6462 17.8034 17.4437C18.006 17.2411 18.1197 16.9664 18.1197 16.68V16.459C18.1197 16.2084 18.0341 15.9773 17.9023 15.7879C17.5135 15.2285 16.4126 13.4191 16.1822 10.5521C16.6361 10.4249 17.0358 10.1527 17.3206 9.77721C17.6054 9.40167 17.7596 8.94331 17.7597 8.47199V6.59999C17.7597 6.50451 17.7218 6.41294 17.6543 6.34543C17.5868 6.27792 17.4952 6.23999 17.3997 6.23999H16.8597C16.7165 6.23999 16.5792 6.29688 16.4779 6.39815C16.3766 6.49942 16.3197 6.63677 16.3197 6.77999V7.31999C16.3198 7.36727 16.3106 7.4141 16.2926 7.45781C16.2746 7.50152 16.2482 7.54126 16.2148 7.57476C16.1474 7.64241 16.0559 7.68052 15.9605 7.68071C15.865 7.6809 15.7733 7.64316 15.7057 7.57578C15.638 7.5084 15.5999 7.41691 15.5997 7.32143V7.31999L15.5969 6.77711C15.5961 6.63439 15.5389 6.49778 15.4377 6.39713C15.3365 6.29649 15.1996 6.23999 15.0569 6.23999H14.7026C14.5599 6.23999 14.423 6.29649 14.3218 6.39713C14.2206 6.49778 14.1634 6.63439 14.1626 6.77711L14.1597 7.32143C14.1596 7.41691 14.1214 7.5084 14.0538 7.57578C13.9861 7.64316 13.8945 7.6809 13.799 7.68071C13.7035 7.68052 13.6121 7.64241 13.5447 7.57476C13.4773 7.50711 13.4396 7.41547 13.4397 7.31999V6.77999C13.4397 6.63677 13.3829 6.49942 13.2816 6.39815C13.1803 6.29688 13.043 6.23999 12.8997 6.23999H12.3597ZM9.47975 8.39999C9.06278 8.4 8.65473 8.5207 8.30484 8.74751C7.95496 8.97432 7.67821 9.29756 7.50798 9.6782C7.33776 10.0588 7.28135 10.4806 7.34556 10.8926C7.40977 11.3046 7.59185 11.6892 7.86983 12H7.67975C7.48879 12 7.30566 12.0758 7.17063 12.2109C7.0356 12.3459 6.95975 12.529 6.95975 12.72C6.95975 12.9109 7.0356 13.0941 7.17063 13.2291C7.30566 13.3641 7.48879 13.44 7.67975 13.44H8.05415C7.78631 14.7346 7.07999 15.4819 6.68615 15.811C6.43703 16.0198 6.23975 16.3409 6.23975 16.7153C6.23975 17.292 6.70775 17.76 7.28447 17.76H11.6757C12.2517 17.76 12.7197 17.292 12.7197 16.7153C12.7197 16.3409 12.5225 16.0198 12.2733 15.811C11.8795 15.4819 11.1732 14.7346 10.9053 13.44H11.2797C11.4707 13.44 11.6538 13.3641 11.7889 13.2291C11.9239 13.0941 11.9997 12.9109 11.9997 12.72C11.9997 12.529 11.9239 12.3459 11.7889 12.2109C11.6538 12.0758 11.4707 12 11.2797 12H11.0897C11.3676 11.6892 11.5497 11.3046 11.6139 10.8926C11.6781 10.4806 11.6217 10.0588 11.4515 9.6782C11.2813 9.29756 11.0045 8.97432 10.6546 8.74751C10.3048 8.5207 9.89671 8.4 9.47975 8.39999Z" fill="white"/>
</svg>
