<svg width="10" height="11" viewBox="0 0 10 11" fill="none" xmlns="http://www.w3.org/2000/svg">
<path d="M1.25597 1.76409L1.25592 1.76414C1.09202 1.92825 1 2.15074 1 2.38268C1 2.61462 1.09202 2.83711 1.25592 3.00122L1.25594 3.00124L3.75986 5.50768L1.25594 8.01412L1.25592 8.01409L1.2529 8.01722C1.09365 8.18226 1.00558 8.40326 1.00757 8.6326C1.00956 8.86194 1.10146 9.08138 1.26355 9.24363C1.42564 9.40589 1.64497 9.49797 1.87431 9.49997C2.10365 9.50196 2.32455 9.41371 2.48944 9.25429L2.48946 9.25432L2.49253 9.25124L4.9961 6.74516L7.49966 9.25124L7.49963 9.25127L7.50276 9.25429C7.66765 9.41371 7.88855 9.50196 8.11788 9.49997C8.34722 9.49797 8.56655 9.40589 8.72865 9.24363C8.89073 9.08138 8.98263 8.86194 8.98462 8.6326C8.98661 8.40326 8.89854 8.18226 8.7393 8.01722L8.73932 8.01719L8.73625 8.01412L6.23233 5.50768L8.73485 3.00264C8.81756 2.92225 8.88355 2.82628 8.92905 2.72027C8.97485 2.61354 8.99896 2.49875 8.99997 2.3826C9.00098 2.26645 8.97886 2.15126 8.93492 2.04375C8.89098 1.93623 8.82608 1.83854 8.74399 1.75637C8.66191 1.6742 8.56428 1.60921 8.4568 1.56519C8.34933 1.52118 8.23416 1.49902 8.11803 1.50003C8.00189 1.50104 7.88713 1.5252 7.78044 1.57107C7.67446 1.61664 7.57857 1.68273 7.49826 1.76552L4.9961 4.2702L2.49253 1.76412L2.49251 1.76409C2.32856 1.60003 2.10617 1.50781 1.87424 1.50781C1.6423 1.50781 1.41992 1.60003 1.25597 1.76409Z" fill="#2B8A3E" stroke="#2B8A3E" stroke-width="0.5"/>
</svg>
