<svg width="24" height="17" viewBox="0 0 24 17" fill="none" xmlns="http://www.w3.org/2000/svg">
<path d="M3.7207 0.5C2.95821 0.5 2.22694 0.780951 1.68777 1.28105C1.1486 1.78115 0.845703 2.45942 0.845703 3.16667V4.5H23.8457V3.16667C23.8457 2.45942 23.5428 1.78115 23.0036 1.28105C22.4645 0.780951 21.7332 0.5 20.9707 0.5H3.7207Z" fill="#9B51E0"/>
<path fill-rule="evenodd" clip-rule="evenodd" d="M23.8457 7.16667H0.845703V13.8333C0.845703 14.5406 1.1486 15.2189 1.68777 15.719C2.22694 16.219 2.95821 16.5 3.7207 16.5H20.9707C21.7332 16.5 22.4645 16.219 23.0036 15.719C23.5428 15.2189 23.8457 14.5406 23.8457 13.8333V7.16667ZM3.7207 12.5C3.7207 12.1464 3.87215 11.8072 4.14174 11.5572C4.41132 11.3071 4.77695 11.1667 5.1582 11.1667H6.5957C6.97695 11.1667 7.34259 11.3071 7.61217 11.5572C7.88175 11.8072 8.0332 12.1464 8.0332 12.5C8.0332 12.8536 7.88175 13.1928 7.61217 13.4428C7.34259 13.6929 6.97695 13.8333 6.5957 13.8333H5.1582C4.77695 13.8333 4.41132 13.6929 4.14174 13.4428C3.87215 13.1928 3.7207 12.8536 3.7207 12.5ZM10.9082 11.1667C10.527 11.1667 10.1613 11.3071 9.89174 11.5572C9.62215 11.8072 9.4707 12.1464 9.4707 12.5C9.4707 12.8536 9.62215 13.1928 9.89174 13.4428C10.1613 13.6929 10.527 13.8333 10.9082 13.8333H12.3457C12.727 13.8333 13.0926 13.6929 13.3622 13.4428C13.6318 13.1928 13.7832 12.8536 13.7832 12.5C13.7832 12.1464 13.6318 11.8072 13.3622 11.5572C13.0926 11.3071 12.727 11.1667 12.3457 11.1667H10.9082Z" fill="#9B51E0"/>
<path d="M23.8457 4.5H0.845703V7.16667H23.8457V4.5Z" fill="white"/>
<path d="M3.7207 12.5C3.7207 12.1464 3.87215 11.8072 4.14174 11.5572C4.41132 11.3071 4.77695 11.1667 5.1582 11.1667H6.5957C6.97695 11.1667 7.34259 11.3071 7.61217 11.5572C7.88175 11.8072 8.0332 12.1464 8.0332 12.5C8.0332 12.8536 7.88175 13.1928 7.61217 13.4428C7.34259 13.6929 6.97695 13.8333 6.5957 13.8333H5.1582C4.77695 13.8333 4.41132 13.6929 4.14174 13.4428C3.87215 13.1928 3.7207 12.8536 3.7207 12.5Z" fill="white"/>
<path d="M10.9082 11.1667C10.527 11.1667 10.1613 11.3071 9.89174 11.5572C9.62215 11.8072 9.4707 12.1464 9.4707 12.5C9.4707 12.8536 9.62215 13.1928 9.89174 13.4428C10.1613 13.6929 10.527 13.8333 10.9082 13.8333H12.3457C12.727 13.8333 13.0926 13.6929 13.3622 13.4428C13.6318 13.1928 13.7832 12.8536 13.7832 12.5C13.7832 12.1464 13.6318 11.8072 13.3622 11.5572C13.0926 11.3071 12.727 11.1667 12.3457 11.1667H10.9082Z" fill="white"/>
</svg>
