<svg width="23" height="16" viewBox="0 0 23 16" fill="none" xmlns="http://www.w3.org/2000/svg">
<path d="M2.875 0C2.1125 0 1.38124 0.280951 0.842068 0.781048C0.302901 1.28115 0 1.95942 0 2.66667V4H23V2.66667C23 1.95942 22.6971 1.28115 22.1579 0.781048C21.6188 0.280951 20.8875 0 20.125 0H2.875Z" fill="#0095D9"/>
<path fill-rule="evenodd" clip-rule="evenodd" d="M23 6.66667H0V13.3333C0 14.0406 0.302901 14.7189 0.842068 15.219C1.38124 15.719 2.1125 16 2.875 16H20.125C20.8875 16 21.6188 15.719 22.1579 15.219C22.6971 14.7189 23 14.0406 23 13.3333V6.66667ZM2.875 12C2.875 11.6464 3.02645 11.3072 3.29603 11.0572C3.56562 10.8071 3.93125 10.6667 4.3125 10.6667H5.75C6.13125 10.6667 6.49688 10.8071 6.76647 11.0572C7.03605 11.3072 7.1875 11.6464 7.1875 12C7.1875 12.3536 7.03605 12.6928 6.76647 12.9428C6.49688 13.1929 6.13125 13.3333 5.75 13.3333H4.3125C3.93125 13.3333 3.56562 13.1929 3.29603 12.9428C3.02645 12.6928 2.875 12.3536 2.875 12ZM10.0625 10.6667C9.68125 10.6667 9.31562 10.8071 9.04603 11.0572C8.77645 11.3072 8.625 11.6464 8.625 12C8.625 12.3536 8.77645 12.6928 9.04603 12.9428C9.31562 13.1929 9.68125 13.3333 10.0625 13.3333H11.5C11.8812 13.3333 12.2469 13.1929 12.5165 12.9428C12.786 12.6928 12.9375 12.3536 12.9375 12C12.9375 11.6464 12.786 11.3072 12.5165 11.0572C12.2469 10.8071 11.8812 10.6667 11.5 10.6667H10.0625Z" fill="#0095D9"/>
<path d="M23 4H0V6.66667H23V4Z" fill="white"/>
<path d="M2.875 12C2.875 11.6464 3.02645 11.3072 3.29603 11.0572C3.56562 10.8071 3.93125 10.6667 4.3125 10.6667H5.75C6.13125 10.6667 6.49688 10.8071 6.76647 11.0572C7.03605 11.3072 7.1875 11.6464 7.1875 12C7.1875 12.3536 7.03605 12.6928 6.76647 12.9428C6.49688 13.1929 6.13125 13.3333 5.75 13.3333H4.3125C3.93125 13.3333 3.56562 13.1929 3.29603 12.9428C3.02645 12.6928 2.875 12.3536 2.875 12Z" fill="white"/>
<path d="M10.0625 10.6667C9.68125 10.6667 9.31562 10.8071 9.04603 11.0572C8.77645 11.3072 8.625 11.6464 8.625 12C8.625 12.3536 8.77645 12.6928 9.04603 12.9428C9.31562 13.1929 9.68125 13.3333 10.0625 13.3333H11.5C11.8812 13.3333 12.2469 13.1929 12.5165 12.9428C12.786 12.6928 12.9375 12.3536 12.9375 12C12.9375 11.6464 12.786 11.3072 12.5165 11.0572C12.2469 10.8071 11.8812 10.6667 11.5 10.6667H10.0625Z" fill="white"/>
</svg>
