<svg width="23" height="17" viewBox="0 0 23 17" fill="none" xmlns="http://www.w3.org/2000/svg">
<path d="M2.875 0.5C2.1125 0.5 1.38124 0.780951 0.842068 1.28105C0.302901 1.78115 0 2.45942 0 3.16667V4.5H23V3.16667C23 2.45942 22.6971 1.78115 22.1579 1.28105C21.6188 0.780951 20.8875 0.5 20.125 0.5H2.875Z" fill="#E0E0E0"/>
<path fill-rule="evenodd" clip-rule="evenodd" d="M23 7.16667H0V13.8333C0 14.5406 0.302901 15.2189 0.842068 15.719C1.38124 16.219 2.1125 16.5 2.875 16.5H20.125C20.8875 16.5 21.6188 16.219 22.1579 15.719C22.6971 15.2189 23 14.5406 23 13.8333V7.16667ZM2.875 12.5C2.875 12.1464 3.02645 11.8072 3.29603 11.5572C3.56562 11.3071 3.93125 11.1667 4.3125 11.1667H5.75C6.13125 11.1667 6.49688 11.3071 6.76647 11.5572C7.03605 11.8072 7.1875 12.1464 7.1875 12.5C7.1875 12.8536 7.03605 13.1928 6.76647 13.4428C6.49688 13.6929 6.13125 13.8333 5.75 13.8333H4.3125C3.93125 13.8333 3.56562 13.6929 3.29603 13.4428C3.02645 13.1928 2.875 12.8536 2.875 12.5ZM10.0625 11.1667C9.68125 11.1667 9.31562 11.3071 9.04603 11.5572C8.77645 11.8072 8.625 12.1464 8.625 12.5C8.625 12.8536 8.77645 13.1928 9.04603 13.4428C9.31562 13.6929 9.68125 13.8333 10.0625 13.8333H11.5C11.8812 13.8333 12.2469 13.6929 12.5165 13.4428C12.786 13.1928 12.9375 12.8536 12.9375 12.5C12.9375 12.1464 12.786 11.8072 12.5165 11.5572C12.2469 11.3071 11.8812 11.1667 11.5 11.1667H10.0625Z" fill="#E0E0E0"/>
<path d="M23 4.5H0V7.16667H23V4.5Z" fill="white"/>
<path d="M2.875 12.5C2.875 12.1464 3.02645 11.8072 3.29603 11.5572C3.56562 11.3071 3.93125 11.1667 4.3125 11.1667H5.75C6.13125 11.1667 6.49688 11.3071 6.76647 11.5572C7.03605 11.8072 7.1875 12.1464 7.1875 12.5C7.1875 12.8536 7.03605 13.1928 6.76647 13.4428C6.49688 13.6929 6.13125 13.8333 5.75 13.8333H4.3125C3.93125 13.8333 3.56562 13.6929 3.29603 13.4428C3.02645 13.1928 2.875 12.8536 2.875 12.5Z" fill="white"/>
<path d="M10.0625 11.1667C9.68125 11.1667 9.31562 11.3071 9.04603 11.5572C8.77645 11.8072 8.625 12.1464 8.625 12.5C8.625 12.8536 8.77645 13.1928 9.04603 13.4428C9.31562 13.6929 9.68125 13.8333 10.0625 13.8333H11.5C11.8812 13.8333 12.2469 13.6929 12.5165 13.4428C12.786 13.1928 12.9375 12.8536 12.9375 12.5C12.9375 12.1464 12.786 11.8072 12.5165 11.5572C12.2469 11.3071 11.8812 11.1667 11.5 11.1667H10.0625Z" fill="white"/>
</svg>
