<svg width="24" height="24" viewBox="0 0 24 24" fill="none" xmlns="http://www.w3.org/2000/svg">
<path d="M2.85902 2.87822L15.429 1.08222C15.5 1.07204 15.5723 1.07723 15.641 1.09744C15.7098 1.11765 15.7734 1.1524 15.8275 1.19935C15.8817 1.24629 15.9251 1.30433 15.9549 1.36952C15.9846 1.43472 16 1.50555 16 1.57722V22.4242C16 22.4958 15.9846 22.5665 15.9549 22.6316C15.9252 22.6967 15.8819 22.7547 15.8279 22.8017C15.7738 22.8486 15.7103 22.8834 15.6417 22.9036C15.5731 22.9239 15.5009 22.9292 15.43 22.9192L2.85802 21.1232C2.61964 21.0893 2.40152 20.9704 2.24371 20.7886C2.08591 20.6067 1.99903 20.374 1.99902 20.1332V3.86822C1.99903 3.62743 2.08591 3.39473 2.24371 3.21286C2.40152 3.03099 2.62064 2.91217 2.85902 2.87822ZM17 3.00022H21C21.2652 3.00022 21.5196 3.10557 21.7071 3.29311C21.8947 3.48064 22 3.735 22 4.00022V20.0002C22 20.2654 21.8947 20.5198 21.7071 20.7073C21.5196 20.8949 21.2652 21.0002 21 21.0002H17V3.00022ZM10.2 12.0002L13 8.00022H10.6L9.00002 10.2862L7.40002 8.00022H5.00002L7.80002 12.0002L5.00002 16.0002H7.40002L9.00002 13.7142L10.6 16.0002H13L10.2 12.0002Z" fill="#0095D9"/>
</svg>
