<svg width="33" height="32" viewBox="0 0 33 32" fill="none" xmlns="http://www.w3.org/2000/svg">
<path d="M18.1481 22.0663C17.6084 22.1687 17.0514 22.2222 16.482 22.2222C12.5018 22.2222 9.13268 19.6063 8 16C8.30836 15.0182 8.78245 14.1099 9.38949 13.3077M14.5959 14.1144C15.0785 13.6318 15.7452 13.3333 16.4816 13.3333C17.9544 13.3333 19.1482 14.5272 19.1482 16C19.1482 16.7364 18.8497 17.403 18.3672 17.8856M14.5959 14.1144L18.3672 17.8856M14.5959 14.1144L11.6719 11.1904M18.3672 17.8856L21.2915 20.81M11.6719 11.1904L8.48156 8M11.6719 11.1904C13.0584 10.2965 14.7096 9.77778 16.4819 9.77778C20.4621 9.77778 23.8312 12.3937 24.9639 16C24.3355 18.0006 23.0189 19.6964 21.2915 20.81M21.2915 20.81L24.4816 24" stroke="#CD191E" stroke-width="2" stroke-linecap="round" stroke-linejoin="round"/>
</svg>
