<svg width="24" height="24" viewBox="0 0 24 24" fill="none" xmlns="http://www.w3.org/2000/svg">
<path d="M13.5788 17.9255C13.0061 18.0341 12.4151 18.0909 11.8109 18.0909C7.58759 18.0909 4.01265 15.3152 2.81079 11.4886C3.13798 10.4469 3.64104 9.48306 4.28515 8.6319M9.8096 9.48784C10.3217 8.9758 11.0291 8.65909 11.8104 8.65909C13.3731 8.65909 14.6399 9.92587 14.6399 11.4886C14.6399 12.27 14.3232 12.9773 13.8112 13.4894M9.8096 9.48784L13.8112 13.4894M9.8096 9.48784L6.70699 6.38523M13.8112 13.4894L16.9141 16.5924M6.70699 6.38523L3.32176 3M6.70699 6.38523C8.17818 5.43675 9.93025 4.88636 11.8108 4.88636C16.034 4.88636 19.609 7.66206 20.8108 11.4886C20.1441 13.6114 18.747 15.4108 16.9141 16.5924M16.9141 16.5924L20.299 19.9773" stroke="#CD191E" stroke-width="2" stroke-linecap="round" stroke-linejoin="round"/>
</svg>
