<svg width="29" height="29" viewBox="0 0 29 29" fill="none" xmlns="http://www.w3.org/2000/svg">
<path d="M14.4964 9.99792C12.0175 9.99792 9.99454 12.0209 9.99454 14.4997C9.99454 16.9786 12.0175 19.0016 14.4964 19.0016C16.9752 19.0016 18.9982 16.9786 18.9982 14.4997C18.9982 12.0209 16.9752 9.99792 14.4964 9.99792ZM27.9985 14.4997C27.9985 12.6355 28.0154 10.7882 27.9107 8.92734C27.806 6.76592 27.3129 4.84766 25.7324 3.26712C24.1485 1.6832 22.2336 1.19351 20.0722 1.08881C18.2079 0.984118 16.3606 1.001 14.4997 1.001C12.6355 1.001 10.7882 0.984118 8.92734 1.08881C6.76592 1.19351 4.84766 1.68658 3.26712 3.26712C1.6832 4.85103 1.19351 6.76592 1.08881 8.92734C0.984118 10.7916 1.001 12.6389 1.001 14.4997C1.001 16.3606 0.984118 18.2113 1.08881 20.0722C1.19351 22.2336 1.68658 24.1518 3.26712 25.7324C4.85103 27.3163 6.76592 27.806 8.92734 27.9107C10.7916 28.0154 12.6389 27.9985 14.4997 27.9985C16.364 27.9985 18.2113 28.0154 20.0722 27.9107C22.2336 27.806 24.1518 27.3129 25.7324 25.7324C27.3163 24.1485 27.806 22.2336 27.9107 20.0722C28.0188 18.2113 27.9985 16.364 27.9985 14.4997ZM14.4964 21.4264C10.6632 21.4264 7.56969 18.3329 7.56969 14.4997C7.56969 10.6666 10.6632 7.57307 14.4964 7.57307C18.3295 7.57307 21.423 10.6666 21.423 14.4997C21.423 18.3329 18.3295 21.4264 14.4964 21.4264ZM21.7067 8.90707C20.8118 8.90707 20.089 8.18435 20.089 7.28939C20.089 6.39442 20.8118 5.6717 21.7067 5.6717C22.6017 5.6717 23.3244 6.39442 23.3244 7.28939C23.3247 7.5019 23.283 7.71238 23.2018 7.90876C23.1206 8.10515 23.0015 8.28359 22.8512 8.43386C22.7009 8.58413 22.5225 8.70328 22.3261 8.78448C22.1297 8.86568 21.9192 8.90734 21.7067 8.90707Z" fill="#031056"/>
<rect x="0.0141602" y="0.0141602" width="28.9717" height="28.9717" stroke="#F9FAFC" stroke-width="0.0283203"/>
</svg>
