<svg width="24" height="24" viewBox="0 0 24 24" fill="none" xmlns="http://www.w3.org/2000/svg">
<path d="M15.3333 6.77817C15.8343 6.77817 16.3147 6.97718 16.669 7.33142C17.0232 7.68565 17.2222 8.1661 17.2222 8.66706M21 8.66706C21.0003 9.55217 20.7932 10.425 20.3954 11.2157C19.9975 12.0064 19.42 12.6928 18.7091 13.2201C17.9982 13.7474 17.1737 14.1008 16.3016 14.252C15.4295 14.4033 14.5341 14.3481 13.6872 14.091L11.5556 16.2226H9.66667V18.1115H7.77778V20.0004H4.94444C4.69396 20.0004 4.45374 19.9009 4.27662 19.7238C4.0995 19.5467 4 19.3064 4 19.056V16.6136C4.00005 16.3632 4.09959 16.123 4.27672 15.9459L9.90939 10.3132C9.6737 9.53408 9.60865 8.71329 9.71865 7.90674C9.82866 7.10018 10.1111 6.3268 10.5469 5.63922C10.9826 4.95164 11.5614 4.36601 12.2438 3.92219C12.9262 3.47837 13.6962 3.18678 14.5014 3.06727C15.3066 2.94775 16.1281 3.00312 16.9099 3.2296C17.6918 3.45608 18.4157 3.84835 19.0324 4.37972C19.649 4.9111 20.144 5.56909 20.4835 6.30892C20.8231 7.04875 20.9992 7.85304 21 8.66706Z" stroke="#0095D9" stroke-width="2" stroke-linecap="round" stroke-linejoin="round"/>
</svg>
