<svg width="24" height="24" viewBox="0 0 24 24" fill="none" xmlns="http://www.w3.org/2000/svg">
<path d="M3.0751 9.4C3.00843 9.36667 2.9751 9.3125 2.9751 9.2375C2.9751 9.1625 2.99176 9.09167 3.0251 9.025C4.05843 7.59167 5.36676 6.48333 6.9501 5.7C8.53343 4.91667 10.2251 4.525 12.0251 4.525C13.8251 4.525 15.5209 4.90833 17.1126 5.675C18.7043 6.44167 20.0251 7.54167 21.0751 8.975C21.1251 9.05833 21.1459 9.125 21.1376 9.175C21.1293 9.225 21.1001 9.275 21.0501 9.325C21.0001 9.375 20.9376 9.4 20.8626 9.4C20.7876 9.4 20.7168 9.35833 20.6501 9.275C19.6668 7.90833 18.4126 6.85833 16.8876 6.125C15.3626 5.39167 13.7418 5.025 12.0251 5.025C10.3084 5.025 8.7001 5.39583 7.2001 6.1375C5.7001 6.87917 4.4501 7.925 3.4501 9.275C3.38343 9.35833 3.32093 9.40833 3.2626 9.425C3.20426 9.44167 3.14176 9.43333 3.0751 9.4ZM15.0001 21.975C13.2834 21.5417 11.8709 20.6833 10.7626 19.4C9.65426 18.1167 9.1001 16.5583 9.1001 14.725C9.1001 13.9417 9.3876 13.2833 9.9626 12.75C10.5376 12.2167 11.2251 11.95 12.0251 11.95C12.8251 11.95 13.5126 12.2167 14.0876 12.75C14.6626 13.2833 14.9501 13.9417 14.9501 14.725C14.9501 15.3583 15.1959 15.8917 15.6876 16.325C16.1793 16.7583 16.7501 16.975 17.4001 16.975C18.0334 16.975 18.5876 16.7583 19.0626 16.325C19.5376 15.8917 19.7751 15.3583 19.7751 14.725C19.7751 12.675 19.0126 10.9583 17.4876 9.575C15.9626 8.19167 14.1418 7.5 12.0251 7.5C9.90843 7.5 8.0876 8.19167 6.5626 9.575C5.0376 10.9583 4.2751 12.675 4.2751 14.725C4.2751 15.125 4.32093 15.6458 4.4126 16.2875C4.50426 16.9292 4.7001 17.6583 5.0001 18.475C5.03343 18.5583 5.03343 18.6208 5.0001 18.6625C4.96676 18.7042 4.9251 18.7417 4.8751 18.775C4.80843 18.8083 4.7376 18.8167 4.6626 18.8C4.5876 18.7833 4.53343 18.7333 4.5001 18.65C4.28343 18.0167 4.1126 17.3708 3.9876 16.7125C3.8626 16.0542 3.8001 15.3917 3.8001 14.725C3.8001 12.575 4.61676 10.7375 6.2501 9.2125C7.88343 7.6875 9.80843 6.925 12.0251 6.925C14.2918 6.925 16.2376 7.675 17.8626 9.175C19.4876 10.675 20.3001 12.525 20.3001 14.725C20.3001 15.4917 20.0168 16.1417 19.4501 16.675C18.8834 17.2083 18.2001 17.475 17.4001 17.475C16.5834 17.475 15.8834 17.2083 15.3001 16.675C14.7168 16.1417 14.4251 15.4917 14.4251 14.725C14.4251 14.075 14.1876 13.5333 13.7126 13.1C13.2376 12.6667 12.6751 12.45 12.0251 12.45C11.3751 12.45 10.8084 12.6667 10.3251 13.1C9.84176 13.5333 9.6001 14.075 9.6001 14.725C9.6001 16.4583 10.1251 17.9042 11.1751 19.0625C12.2251 20.2208 13.5334 21.0333 15.1001 21.5C15.2001 21.5333 15.2626 21.575 15.2876 21.625C15.3126 21.675 15.3168 21.7333 15.3001 21.8C15.2834 21.8833 15.2501 21.9417 15.2001 21.975C15.1501 22.0083 15.0834 22.0083 15.0001 21.975ZM6.1751 3.975C6.09176 4.00833 6.02926 4.0125 5.9876 3.9875C5.94593 3.9625 5.90843 3.925 5.8751 3.875C5.84176 3.84167 5.8251 3.79167 5.8251 3.725C5.8251 3.65833 5.8501 3.60833 5.9001 3.575C6.8501 3.05833 7.84593 2.66667 8.8876 2.4C9.92926 2.13333 10.9751 2 12.0251 2C13.1084 2 14.1709 2.13333 15.2126 2.4C16.2543 2.66667 17.2501 3.04167 18.2001 3.525C18.2834 3.55833 18.3293 3.60833 18.3376 3.675C18.3459 3.74167 18.3334 3.8 18.3001 3.85C18.2668 3.9 18.2209 3.94167 18.1626 3.975C18.1043 4.00833 18.0334 4.00833 17.9501 3.975C17.0334 3.525 16.0751 3.17083 15.0751 2.9125C14.0751 2.65417 13.0584 2.525 12.0251 2.525C10.9918 2.525 9.98343 2.64583 9.0001 2.8875C8.01676 3.12917 7.0751 3.49167 6.1751 3.975ZM9.5251 21.7C8.55843 20.7 7.80426 19.65 7.2626 18.55C6.72093 17.45 6.4501 16.175 6.4501 14.725C6.4501 13.2417 6.99593 11.9917 8.0876 10.975C9.17926 9.95833 10.4918 9.45 12.0251 9.45C13.5584 9.45 14.8793 9.95833 15.9876 10.975C17.0959 11.9917 17.6501 13.2417 17.6501 14.725C17.6501 14.8083 17.6293 14.8708 17.5876 14.9125C17.5459 14.9542 17.4834 14.975 17.4001 14.975C17.3168 14.975 17.2501 14.9542 17.2001 14.9125C17.1501 14.8708 17.1251 14.8083 17.1251 14.725C17.1251 13.375 16.6209 12.2417 15.6126 11.325C14.6043 10.4083 13.4084 9.95 12.0251 9.95C10.6418 9.95 9.45426 10.4083 8.4626 11.325C7.47093 12.2417 6.9751 13.375 6.9751 14.725C6.9751 16.1417 7.22093 17.35 7.7126 18.35C8.20426 19.35 8.93343 20.35 9.9001 21.35C9.96676 21.4167 9.99593 21.4792 9.9876 21.5375C9.97926 21.5958 9.9501 21.65 9.9001 21.7C9.86676 21.7333 9.8126 21.7625 9.7376 21.7875C9.6626 21.8125 9.59176 21.7833 9.5251 21.7ZM17.1751 19.875C15.7084 19.875 14.4376 19.3875 13.3626 18.4125C12.2876 17.4375 11.7501 16.2083 11.7501 14.725C11.7501 14.6417 11.7709 14.575 11.8126 14.525C11.8543 14.475 11.9168 14.45 12.0001 14.45C12.0834 14.45 12.1459 14.475 12.1876 14.525C12.2293 14.575 12.2501 14.6417 12.2501 14.725C12.2501 16.075 12.7459 17.1875 13.7376 18.0625C14.7293 18.9375 15.8751 19.375 17.1751 19.375C17.3084 19.375 17.4668 19.3667 17.6501 19.35C17.8334 19.3333 18.0334 19.3083 18.2501 19.275C18.3334 19.2583 18.4001 19.2708 18.4501 19.3125C18.5001 19.3542 18.5334 19.4 18.5501 19.45C18.5668 19.5167 18.5626 19.575 18.5376 19.625C18.5126 19.675 18.4584 19.7083 18.3751 19.725C18.0751 19.8083 17.8126 19.8542 17.5876 19.8625C17.3626 19.8708 17.2251 19.875 17.1751 19.875Z" fill="#0095D9"/>
</svg>
