<svg width="24" height="17" viewBox="0 0 24 17" fill="none" xmlns="http://www.w3.org/2000/svg">
<rect x="0.845703" y="0.668205" width="23" height="15.6636" rx="2" fill="#32BCAD"/>
<path d="M14.3565 11.1367L12.6007 9.38083C12.5365 9.31667 12.4607 9.305 12.4198 9.305C12.379 9.305 12.3032 9.31667 12.239 9.38083L10.4773 11.1425C10.279 11.3408 9.96984 11.6617 8.93734 11.6617L11.1015 13.82C11.4296 14.1477 11.8744 14.3318 12.3382 14.3318C12.8019 14.3318 13.2467 14.1477 13.5748 13.82L15.7448 11.6558C15.214 11.6558 14.7707 11.5508 14.3565 11.1367ZM10.4773 5.8575L12.239 7.61916C12.2857 7.66583 12.3557 7.695 12.4198 7.695C12.484 7.695 12.554 7.66583 12.6007 7.61916L14.3448 5.875C14.759 5.44333 15.2315 5.34417 15.7623 5.34417L13.5923 3.18C13.2642 2.85228 12.8194 2.66821 12.3557 2.66821C11.8919 2.66821 11.4471 2.85228 11.119 3.18L8.95484 5.33833C9.9815 5.33833 10.2965 5.67667 10.4773 5.8575Z" fill="white"/>
<path d="M17.6577 7.24577L16.3452 5.92744H15.6102C15.2952 5.92744 14.9802 6.05577 14.7643 6.28327L13.0143 8.03327C12.851 8.19661 12.6352 8.27827 12.4193 8.27827C12.1971 8.27514 11.9844 8.18755 11.8243 8.03327L10.0627 6.26577C9.84101 6.04411 9.53768 5.91577 9.21685 5.91577H8.35935L7.02351 7.25744C6.69579 7.58557 6.51172 8.03036 6.51172 8.49411C6.51172 8.95786 6.69579 9.40265 7.02351 9.73077L8.35935 11.0724H9.22268C9.53768 11.0724 9.84101 10.9441 10.0685 10.7224L11.8302 8.96077C11.9935 8.79744 12.2093 8.71577 12.4252 8.71577C12.641 8.71577 12.8568 8.79744 13.0202 8.96077L14.776 10.7166C14.9977 10.9383 15.301 11.0666 15.6218 11.0666H16.3568L17.6693 9.74827C17.9984 9.41424 18.1819 8.96353 18.1798 8.49462C18.1776 8.02571 17.9899 7.57672 17.6577 7.24577Z" fill="white"/>
</svg>
