<svg width="29" height="29" viewBox="0 0 29 29" fill="none" xmlns="http://www.w3.org/2000/svg">
<path d="M14.5 1C7.04406 1 1 7.04406 1 14.5C1 21.9559 7.04406 28 14.5 28C21.9559 28 28 21.9559 28 14.5C28 7.04406 21.9559 1 14.5 1ZM19.9914 12.0587C19.997 12.1741 19.9984 12.2894 19.9984 12.4019C19.9984 15.9175 17.3252 19.9689 12.4342 19.9689C10.989 19.9713 9.57386 19.5562 8.35891 18.7736C8.56562 18.7989 8.77797 18.8088 8.99313 18.8088C10.2391 18.8088 11.3852 18.3855 12.295 17.6711C11.7405 17.6602 11.2033 17.4766 10.7581 17.1459C10.313 16.8152 9.98207 16.3538 9.81156 15.8261C10.2098 15.9018 10.6199 15.8859 11.0111 15.7797C10.4093 15.658 9.86809 15.3319 9.47928 14.8567C9.09046 14.3815 8.87796 13.7865 8.87781 13.1725V13.1402C9.23641 13.3384 9.64703 13.4594 10.083 13.4734C9.51878 13.0979 9.11939 12.5209 8.96647 11.8607C8.81355 11.2004 8.91867 10.5066 9.26031 9.92125C9.92822 10.7425 10.7611 11.4143 11.7052 11.8932C12.6492 12.3722 13.6833 12.6475 14.7405 12.7014C14.6061 12.1309 14.6639 11.532 14.905 10.9977C15.1461 10.4635 15.557 10.0239 16.0737 9.74725C16.5904 9.4706 17.1841 9.37242 17.7623 9.46798C18.3406 9.56353 18.8711 9.84746 19.2714 10.2756C19.8665 10.1579 20.4372 9.93961 20.9589 9.63016C20.7606 10.2463 20.3453 10.7695 19.7903 11.1025C20.3174 11.039 20.8322 10.8973 21.3175 10.682C20.961 11.2163 20.5119 11.6825 19.9914 12.0587Z" fill="#031056"/>
</svg>
