<svg width="24" height="24" viewBox="0 0 24 24" fill="none" xmlns="http://www.w3.org/2000/svg">
<path d="M16.4 22.2533V22.9867H17.1333V22.2533H16.4ZM1.73333 22.2533H1V22.9867H1.73333V22.2533ZM22.2667 22.2667V23H23V22.2667H22.2667ZM12.7333 6.13046C12.7333 8.15368 11.0924 9.79427 9.06667 9.79427V11.2609C11.9015 11.2609 14.2 8.9646 14.2 6.13046H12.7333ZM9.06667 9.79427C7.04095 9.79427 5.4 8.15368 5.4 6.13046H3.93333C3.93333 8.9646 6.23185 11.2609 9.06667 11.2609V9.79427ZM5.4 6.13046C5.4 4.10724 7.04095 2.46667 9.06667 2.46667V1C6.23185 1 3.93333 3.29632 3.93333 6.13046H5.4ZM9.06667 2.46667C11.0924 2.46667 12.7333 4.10724 12.7333 6.13046H14.2C14.2 3.29632 11.9015 1 9.06667 1V2.46667ZM16.4 21.52H1.73333V22.9867H16.4V21.52ZM2.46667 22.2533C2.46667 22.2513 2.46667 22.2492 2.46667 22.2472C2.46667 22.2451 2.46667 22.2431 2.46667 22.2411C2.46667 22.2391 2.46667 22.237 2.46667 22.235C2.46667 22.2329 2.46667 22.2309 2.46667 22.2288C2.46667 22.2269 2.46667 22.2249 2.46667 22.2228C2.46667 22.2208 2.46667 22.2187 2.46667 22.2167C2.46667 22.2146 2.46667 22.2127 2.46667 22.2106C2.46667 22.2086 2.46667 22.2065 2.46667 22.2045C2.46667 22.2024 2.46667 22.2005 2.46667 22.1985C2.46667 22.1964 2.46667 22.1944 2.46667 22.1923C2.46667 22.1903 2.46667 22.1882 2.46667 22.1863C2.46667 22.1842 2.46667 22.1822 2.46667 22.1801C2.46667 22.1781 2.46667 22.176 2.46667 22.1741C2.46667 22.1721 2.46667 22.17 2.46667 22.168C2.46667 22.1659 2.46667 22.1639 2.46667 22.1619C2.46667 22.1599 2.46667 22.1578 2.46667 22.1558C2.46667 22.1537 2.46667 22.1518 2.46667 22.1498C2.46667 22.1477 2.46667 22.1457 2.46667 22.1436C2.46667 22.1416 2.46667 22.1397 2.46667 22.1376C2.46667 22.1355 2.46667 22.1335 2.46667 22.1314C2.46667 22.1295 2.46667 22.1275 2.46667 22.1254C2.46667 22.1234 2.46667 22.1213 2.46667 22.1193C2.46667 22.1174 2.46667 22.1153 2.46667 22.1133C2.46667 22.1112 2.46667 22.1091 2.46667 22.1072C2.46667 22.1052 2.46667 22.1031 2.46667 22.1011C2.46667 22.099 2.46667 22.0971 2.46667 22.0951C2.46667 22.093 2.46667 22.091 2.46667 22.0889C2.46667 22.087 2.46667 22.0849 2.46667 22.0829C2.46667 22.0808 2.46667 22.0788 2.46667 22.0769C2.46667 22.0748 2.46667 22.0728 2.46667 22.0707C2.46667 22.0688 2.46667 22.0668 2.46667 22.0647C2.46667 22.0627 2.46667 22.0606 2.46667 22.0587C2.46667 22.0566 2.46667 22.0546 2.46667 22.0525C2.46667 22.0505 2.46667 22.0486 2.46667 22.0465C2.46667 22.0445 2.46667 22.0424 2.46667 22.0405C2.46667 22.0385 2.46667 22.0364 2.46667 22.0343C2.46667 22.0324 2.46667 22.0304 2.46667 22.0283C2.46667 22.0263 2.46667 22.0242 2.46667 22.0223C2.46667 22.0203 2.46667 22.0182 2.46667 22.0162C2.46667 22.0143 2.46667 22.0122 2.46667 22.0101C2.46667 22.0081 2.46667 22.0062 2.46667 22.0041C2.46667 22.0021 2.46667 22 2.46667 21.9981C2.46667 21.9961 2.46667 21.994 2.46667 21.992C2.46667 21.9901 2.46667 21.988 2.46667 21.9859C2.46667 21.9839 2.46667 21.982 2.46667 21.9799C2.46667 21.9779 2.46667 21.9758 2.46667 21.9739C2.46667 21.9719 2.46667 21.9698 2.46667 21.9678C2.46667 21.9659 2.46667 21.9638 2.46667 21.9617C2.46667 21.9597 2.46667 21.9578 2.46667 21.9557C2.46667 21.9537 2.46667 21.9516 2.46667 21.9497C2.46667 21.9477 2.46667 21.9456 2.46667 21.9437C2.46667 21.9417 2.46667 21.9396 2.46667 21.9375C2.46667 21.9356 2.46667 21.9336 2.46667 21.9315C2.46667 21.9296 2.46667 21.9276 2.46667 21.9255C2.46667 21.9235 2.46667 21.9216 2.46667 21.9195C2.46667 21.9175 2.46667 21.9154 2.46667 21.9135C2.46667 21.9114 2.46667 21.9094 2.46667 21.9075C2.46667 21.9054 2.46667 21.9034 2.46667 21.9013C2.46667 21.8994 2.46667 21.8974 2.46667 21.8953C2.46667 21.8934 2.46667 21.8913 2.46667 21.8893C2.46667 21.8874 2.46667 21.8853 2.46667 21.8833C2.46667 21.8812 2.46667 21.8793 2.46667 21.8773C2.46667 21.8752 2.46667 21.8733 2.46667 21.8713C2.46667 21.8692 2.46667 21.8673 2.46667 21.8652C2.46667 21.8632 2.46667 21.8613 2.46667 21.8592C2.46667 21.8572 2.46667 21.8551 2.46667 21.8532C2.46667 21.8512 2.46667 21.8491 2.46667 21.8472C2.46667 21.8451 2.46667 21.8431 2.46667 21.8412C2.46667 21.8391 2.46667 21.8371 2.46667 21.8352C2.46667 21.8331 2.46667 21.8311 2.46667 21.8292C2.46667 21.8271 2.46667 21.8251 2.46667 21.8231C2.46667 21.8211 2.46667 21.819 2.46667 21.8171C2.46667 21.8151 2.46667 21.813 2.46667 21.8111C2.46667 21.8091 2.46667 21.807 2.46667 21.8051C2.46667 21.8031 2.46667 21.801 2.46667 21.7991C2.46667 21.797 2.46667 21.795 2.46667 21.7931C2.46667 21.791 2.46667 21.789 2.46667 21.7871C2.46667 21.785 2.46667 21.783 2.46667 21.7811C2.46667 21.779 2.46667 21.7769 2.46667 21.775C2.46667 21.773 2.46667 21.7711 2.46667 21.769C2.46667 21.767 2.46667 21.7651 2.46667 21.763C2.46667 21.761 2.46667 21.7591 2.46667 21.757C2.46667 21.7549 2.46667 21.753 2.46667 21.751C2.46667 21.7491 2.46667 21.747 2.46667 21.745C2.46667 21.7431 2.46667 21.741 2.46667 21.739C2.46667 21.7371 2.46667 21.735 2.46667 21.7329C2.46667 21.731 2.46667 21.729 2.46667 21.7271C2.46667 21.725 2.46667 21.723 2.46667 21.7211C2.46667 21.719 2.46667 21.7171 2.46667 21.7151C2.46667 21.713 2.46667 21.7111 2.46667 21.709C2.46667 21.707 2.46667 21.7051 2.46667 21.703C2.46667 21.7011 2.46667 21.6991 2.46667 21.697C2.46667 21.6951 2.46667 21.6931 2.46667 21.6911C2.46667 21.6891 2.46667 21.687 2.46667 21.6851C2.46667 21.6831 2.46667 21.6812 2.46667 21.6791C2.46667 21.6771 2.46667 21.6752 2.46667 21.6731C2.46667 21.6712 2.46667 21.6691 2.46667 21.6671C2.46667 21.6652 2.46667 21.6631 2.46667 21.6612C2.46667 21.6592 2.46667 21.6571 2.46667 21.6552C2.46667 21.6532 2.46667 21.6513 2.46667 21.6492C2.46667 21.6473 2.46667 21.6452 2.46667 21.6432C2.46667 21.6413 2.46667 21.6392 2.46667 21.6373C2.46667 21.6353 2.46667 21.6332 2.46667 21.6313C2.46667 21.6293 2.46667 21.6273 2.46667 21.6253C2.46667 21.6234 2.46667 21.6213 2.46667 21.6193C2.46667 21.6174 2.46667 21.6153 2.46667 21.6134C2.46667 21.6114 2.46667 21.6095 2.46667 21.6074C2.46667 21.6055 2.46667 21.6034 2.46667 21.6014C2.46667 21.5995 2.46667 21.5974 2.46667 21.5955C2.46667 21.5935 2.46667 21.5916 2.46667 21.5895C2.46667 21.5876 2.46667 21.5855 2.46667 21.5835C2.46667 21.5816 2.46667 21.5795 2.46667 21.5776C2.46667 21.5756 2.46667 21.5737 2.46667 21.5716C2.46667 21.5697 2.46667 21.5677 2.46667 21.5657C2.46667 21.5637 2.46667 21.5616 2.46667 21.5597C2.46667 21.5577 2.46667 21.5558 2.46667 21.5537C2.46667 21.5518 2.46667 21.5498 2.46667 21.5479C2.46667 21.5458 2.46667 21.5439 2.46667 21.5418C2.46667 21.5399 2.46667 21.5379 2.46667 21.536C2.46667 21.5339 2.46667 21.532 2.46667 21.53C2.46667 21.5279 2.46667 21.526 2.46667 21.5239C2.46667 21.522 2.46667 21.52 2.46667 21.5181C2.46667 21.516 2.46667 21.5141 2.46667 21.5121C2.46667 21.5102 2.46667 21.5081 2.46667 21.5062C2.46667 21.5041 2.46667 21.5022 2.46667 21.5002C2.46667 21.4983 2.46667 21.4962 2.46667 21.4943C2.46667 21.4923 2.46667 21.4904 2.46667 21.4883C2.46667 21.4864 2.46667 21.4843 2.46667 21.4824C2.46667 21.4804 2.46667 21.4785 2.46667 21.4764C2.46667 21.4745 2.46667 21.4725 2.46667 21.4706C2.46667 21.4685 2.46667 21.4666 2.46667 21.4645C2.46667 21.4626 2.46667 21.4606 2.46667 21.4587C2.46667 21.4566 2.46667 21.4547 2.46667 21.4528C2.46667 21.4508 2.46667 21.4489 2.46667 21.4468C2.46667 21.4449 2.46667 21.4428 2.46667 21.4409C2.46667 21.4389 2.46667 21.437 2.46667 21.4349C2.46667 21.433 2.46667 21.431 2.46667 21.4291C2.46667 21.427 2.46667 21.4251 2.46667 21.423C2.46667 21.4211 2.46667 21.4192 2.46667 21.4172C2.46667 21.4153 2.46667 21.4132 2.46667 21.4113C2.46667 21.4093 2.46667 21.4073 2.46667 21.4053C2.46667 21.4034 2.46667 21.4013 2.46667 21.3994C2.46667 21.3975 2.46667 21.3955 2.46667 21.3936C2.46667 21.3915 2.46667 21.3896 2.46667 21.3875C2.46667 21.3856 2.46667 21.3836 2.46667 21.3817C2.46667 21.3798 2.46667 21.3777 2.46667 21.3758C2.46667 21.3738 2.46667 21.3719 2.46667 21.3698C2.46667 21.3679 2.46667 21.3658 2.46667 21.3639C2.46667 21.362 2.46667 21.36 2.46667 21.3581C2.46667 21.356 2.46667 21.3541 2.46667 21.3521C2.46667 21.3501 2.46667 21.3482 2.46667 21.3462C2.46667 21.3443 2.46667 21.3422 2.46667 21.3403C2.46667 21.3384 2.46667 21.3364 2.46667 21.3345C2.46667 21.3324 2.46667 21.3305 2.46667 21.3284C2.46667 21.3265 2.46667 21.3246 2.46667 21.3226C2.46667 21.3207 2.46667 21.3186 2.46667 21.3167C2.46667 21.3148 2.46667 21.3127 2.46667 21.3108C2.46667 21.3088 2.46667 21.3069 2.46667 21.305C2.46667 21.3029 2.46667 21.301 2.46667 21.299C2.46667 21.2971 2.46667 21.2951 2.46667 21.2931C2.46667 21.2912 2.46667 21.2893 2.46667 21.2872C2.46667 21.2853 2.46667 21.2833 2.46667 21.2814C2.46667 21.2795 2.46667 21.2774 2.46667 21.2755C2.46667 21.2734 2.46667 21.2715 2.46667 21.2696C2.46667 21.2676 2.46667 21.2657 2.46667 21.2638C2.46667 21.2617 2.46667 21.2598 2.46667 21.2577C2.46667 21.2558 2.46667 21.2539 2.46667 21.2519C2.46667 21.25 2.46667 21.2481 2.46667 21.246C2.46667 21.2441 2.46667 21.2422 2.46667 21.2401C2.46667 21.2382 2.46667 21.2362 2.46667 21.2343C2.46667 21.2324 2.46667 21.2303 2.46667 21.2284C2.46667 21.2265 2.46667 21.2245 2.46667 21.2225C2.46667 21.2206 2.46667 21.2186 2.46667 21.2167C2.46667 21.2148 2.46667 21.2127 2.46667 21.2108C2.46667 21.2089 2.46667 21.2069 2.46667 21.2049C2.46667 21.2029 2.46667 21.201 2.46667 21.1991C2.46667 21.197 2.46667 21.1951 2.46667 21.1932C2.46667 21.1912 2.46667 21.1893 2.46667 21.1873C2.46667 21.1853 2.46667 21.1834 2.46667 21.1815C2.46667 21.1796 2.46667 21.1775 2.46667 21.1756C2.46667 21.1737 2.46667 21.1717 2.46667 21.1697C2.46667 21.1678 2.46667 21.1658 2.46667 21.1639C2.46667 21.162 2.46667 21.1599 2.46667 21.158C2.46667 21.1561 2.46667 21.1541 2.46667 21.1521C2.46667 21.1502 2.46667 21.1482 2.46667 21.1463C2.46667 21.1444 2.46667 21.1425 2.46667 21.1404C2.46667 21.1385 2.46667 21.1366 2.46667 21.1345C2.46667 21.1326 2.46667 21.1307 2.46667 21.1287C2.46667 21.1268 2.46667 21.1249 2.46667 21.123C2.46667 21.1209 2.46667 21.119 2.46667 21.1171C2.46667 21.115 2.46667 21.1131 2.46667 21.1112C2.46667 21.1093 2.46667 21.1073 2.46667 21.1054C2.46667 21.1035 2.46667 21.1014 2.46667 21.0995C2.46667 21.0976 2.46667 21.0957 2.46667 21.0936C2.46667 21.0917 2.46667 21.0898 2.46667 21.0878C2.46667 21.0859 2.46667 21.0839 2.46667 21.082C2.46667 21.08 2.46667 21.0781 2.46667 21.0762C2.46667 21.0743 2.46667 21.0722 2.46667 21.0703C2.46667 21.0684 2.46667 21.0665 2.46667 21.0644C2.46667 21.0625 2.46667 21.0606 2.46667 21.0587C2.46667 21.0567 2.46667 21.0548 2.46667 21.0529C2.46667 21.0509 2.46667 21.0489 2.46667 21.047C2.46667 21.0451 2.46667 21.0432 2.46667 21.0411C2.46667 21.0392 2.46667 21.0373 2.46667 21.0354C2.46667 21.0333 2.46667 21.0314 2.46667 21.0295C2.46667 21.0276 2.46667 21.0256 2.46667 21.0237C2.46667 21.0218 2.46667 21.0199 2.46667 21.0178C2.46667 21.0159 2.46667 21.014 2.46667 21.0121C2.46667 21.0102 2.46667 21.0081 2.46667 21.0062C2.46667 21.0043 2.46667 21.0024 2.46667 21.0003C2.46667 20.9984 2.46667 20.9965 2.46667 20.9946C2.46667 20.9927 2.46667 20.9907 2.46667 20.9888C2.46667 20.9869 2.46667 20.9849 2.46667 20.983C2.46667 20.981 2.46667 20.9791 2.46667 20.9772C2.46667 20.9753 2.46667 20.9734 2.46667 20.9713C2.46667 20.9694 2.46667 20.9675 2.46667 20.9656C2.46667 20.9637 2.46667 20.9616 2.46667 20.9597C2.46667 20.9578 2.46667 20.9559 2.46667 20.954C2.46667 20.9519 2.46667 20.95 2.46667 20.9481C2.46667 20.9462 2.46667 20.9443 2.46667 20.9423C2.46667 20.9404 2.46667 20.9385 2.46667 20.9365C2.46667 20.9346 2.46667 20.9327 2.46667 20.9307C2.46667 20.9288 2.46667 20.9269 2.46667 20.925C2.46667 20.9231 2.46667 20.9211 2.46667 20.9191C2.46667 20.9172 2.46667 20.9153 2.46667 20.9134C2.46667 20.9115 2.46667 20.9096 2.46667 20.9075C2.46667 20.9056 2.46667 20.9037 2.46667 20.9018C2.46667 20.8999 2.46667 20.898 2.46667 20.8959C2.46667 20.894 2.46667 20.8921 2.46667 20.8902C2.46667 20.8883 2.46667 20.8864 2.46667 20.8845C2.46667 20.8824 2.46667 20.8805 2.46667 20.8786C2.46667 20.8767 2.46667 20.8748 2.46667 20.8729C2.46667 20.871 2.46667 20.8689 2.46667 20.867C2.46667 20.8651 2.46667 20.8632 2.46667 20.8613C2.46667 20.8594 2.46667 20.8575 2.46667 20.8554C2.46667 20.8535 2.46667 20.8516 2.46667 20.8497C2.46667 20.8478 2.46667 20.8459 2.46667 20.844C2.46667 20.8421 2.46667 20.84 2.46667 20.8381C2.46667 20.8362 2.46667 20.8343 2.46667 20.8324C2.46667 20.8305 2.46667 20.8286 2.46667 20.8267C2.46667 20.8248 2.46667 20.8227 2.46667 20.8208C2.46667 20.8189 2.46667 20.817 2.46667 20.8151C2.46667 20.8132 2.46667 20.8113 2.46667 20.8094C2.46667 20.8075 2.46667 20.8056 2.46667 20.8035C2.46667 20.8016 2.46667 20.7997 2.46667 20.7978C2.46667 20.7959 2.46667 20.794 2.46667 20.7921C2.46667 20.7902 2.46667 20.7883 2.46667 20.7864C2.46667 20.7845 2.46667 20.7824 2.46667 20.7805C2.46667 20.7786 2.46667 20.7767 2.46667 20.7748C2.46667 20.7729 2.46667 20.771 2.46667 20.7691C2.46667 20.7671 2.46667 20.7652 2.46667 20.7633C2.46667 20.7614 2.46667 20.7595 2.46667 20.7576C2.46667 20.7556 2.46667 20.7537 2.46667 20.7517C2.46667 20.7498 2.46667 20.7479 2.46667 20.746C2.46667 20.7441 2.46667 20.7422 2.46667 20.7403C2.46667 20.7384 2.46667 20.7365 2.46667 20.7346C2.46667 20.7327 2.46667 20.7308 2.46667 20.7289C2.46667 20.727 2.46667 20.7251 2.46667 20.7231C2.46667 20.7211 2.46667 20.7192 2.46667 20.7173C2.46667 20.7154 2.46667 20.7135 2.46667 20.7116C2.46667 20.7097 2.46667 20.7077 2.46667 20.7058C2.46667 20.7039 2.46667 20.702 2.46667 20.7001C2.46667 20.6982 2.46667 20.6963 2.46667 20.6944C2.46667 20.6925 2.46667 20.6906 2.46667 20.6887C2.46667 20.6868 2.46667 20.6849 2.46667 20.683C2.46667 20.6811 2.46667 20.6791 2.46667 20.6772C2.46667 20.6753 2.46667 20.6734 2.46667 20.6715C2.46667 20.6696 2.46667 20.6677 2.46667 20.6658C2.46667 20.6639 2.46667 20.662 2.46667 20.6601C2.46667 20.6582 2.46667 20.6563 2.46667 20.6544C2.46667 20.6525 2.46667 20.6505 2.46667 20.6486C2.46667 20.6467 2.46667 20.6448 2.46667 20.6429C2.46667 20.641 2.46667 20.6391 2.46667 20.6372C2.46667 20.6353 2.46667 20.6334 2.46667 20.6315C2.46667 20.6296 2.46667 20.6277 2.46667 20.6258C2.46667 20.6239 2.46667 20.6219 2.46667 20.62C2.46667 20.6181 2.46667 20.6162 2.46667 20.6143C2.46667 20.6124 2.46667 20.6105 2.46667 20.6086C2.46667 20.6067 2.46667 20.6048 2.46667 20.6029C2.46667 20.601 2.46667 20.5991 2.46667 20.5972C2.46667 20.5953 2.46667 20.5935 2.46667 20.5916C2.46667 20.5897 2.46667 20.5878 2.46667 20.5859C2.46667 20.584 2.46667 20.5821 2.46667 20.5801C2.46667 20.5782 2.46667 20.5763 2.46667 20.5744C2.46667 20.5725 2.46667 20.5706 2.46667 20.5687C2.46667 20.5668 2.46667 20.5649 2.46667 20.563C2.46667 20.5611 2.46667 20.5593 2.46667 20.5574C2.46667 20.5555 2.46667 20.5536 2.46667 20.5517C2.46667 20.5498 2.46667 20.5479 2.46667 20.546C2.46667 20.5441 2.46667 20.5422 2.46667 20.5403C2.46667 20.5383 2.46667 20.5364 2.46667 20.5345C2.46667 20.5328 2.46667 20.5309 2.46667 20.529C2.46667 20.5271 2.46667 20.5251 2.46667 20.5232C2.46667 20.5213 2.46667 20.5194 2.46667 20.5175C2.46667 20.5156 2.46667 20.5137 2.46667 20.5119C2.46667 20.51 2.46667 20.5081 2.46667 20.5062C2.46667 20.5043 2.46667 20.5024 2.46667 20.5005C2.46667 20.4986 2.46667 20.4967 2.46667 20.4949C2.46667 20.493 2.46667 20.4911 2.46667 20.4892C2.46667 20.4873 2.46667 20.4854 2.46667 20.4835C2.46667 20.4816 2.46667 20.4797 2.46667 20.4779C2.46667 20.476 2.46667 20.4741 2.46667 20.4722C2.46667 20.4703 2.46667 20.4684 2.46667 20.4665C2.46667 20.4646 2.46667 20.4628 2.46667 20.4609C2.46667 20.459 2.46667 20.4571 2.46667 20.4552C2.46667 20.4533 2.46667 20.4514 2.46667 20.4496C2.46667 20.4477 2.46667 20.4458 2.46667 20.4439C2.46667 20.442 2.46667 20.4401 2.46667 20.4382C2.46667 20.4364 2.46667 20.4345 2.46667 20.4326C2.46667 20.4307 2.46667 20.4288 2.46667 20.4269C2.46667 20.4251 2.46667 20.4232 2.46667 20.4213C2.46667 20.4194 2.46667 20.4175 2.46667 20.4156C2.46667 20.4138 2.46667 20.4119 2.46667 20.41C2.46667 20.4081 2.46667 20.4062 2.46667 20.4043C2.46667 20.4025 2.46667 20.4006 2.46667 20.3987C2.46667 20.3968 2.46667 20.3949 2.46667 20.393C2.46667 20.3912 2.46667 20.3893 2.46667 20.3874C2.46667 20.3855 2.46667 20.3836 2.46667 20.3819C2.46667 20.3799 2.46667 20.378 2.46667 20.3761C2.46667 20.3742 2.46667 20.3725 2.46667 20.3706C2.46667 20.3687 2.46667 20.3667 2.46667 20.3648C2.46667 20.3631 2.46667 20.3612 2.46667 20.3593C2.46667 20.3574 2.46667 20.3555 2.46667 20.3537C2.46667 20.3518 2.46667 20.3499 2.46667 20.348C2.46667 20.3461 2.46667 20.3443 2.46667 20.3424C2.46667 20.3405 2.46667 20.3386 2.46667 20.3368C2.46667 20.3349 2.46667 20.333 2.46667 20.3311C2.46667 20.3292 2.46667 20.3274 2.46667 20.3255C2.46667 20.3236 2.46667 20.3217 2.46667 20.32C2.46667 20.3181 2.46667 20.3161 2.46667 20.3142C2.46667 20.3125 2.46667 20.3106 2.46667 20.3087C2.46667 20.3068 2.46667 20.3049 2.46667 20.3031C2.46667 20.3012 2.46667 20.2993 2.46667 20.2974C2.46667 20.2956 2.46667 20.2937 2.46667 20.2918C2.46667 20.29 2.46667 20.2881 2.46667 20.2862C2.46667 20.2843 2.46667 20.2826 2.46667 20.2807C2.46667 20.2787 2.46667 20.2768 2.46667 20.2751C2.46667 20.2732 2.46667 20.2713 2.46667 20.2694C2.46667 20.2676 2.46667 20.2657 2.46667 20.2638C2.46667 20.262 2.46667 20.2601 2.46667 20.2582C2.46667 20.2563 2.46667 20.2545 2.46667 20.2526C2.46667 20.2507 2.46667 20.2488 2.46667 20.2471C2.46667 20.2452 2.46667 20.2433 2.46667 20.2415C2.46667 20.2396 2.46667 20.2377 2.46667 20.2359C2.46667 20.234 2.46667 20.2321 2.46667 20.2302C2.46667 20.2284 2.46667 20.2265 2.46667 20.2246C2.46667 20.2229 2.46667 20.221 2.46667 20.2191C2.46667 20.2173 2.46667 20.2154 2.46667 20.2135C2.46667 20.2116 2.46667 20.2098 2.46667 20.2079C2.46667 20.206 2.46667 20.2042 2.46667 20.2023C2.46667 20.2004 2.46667 20.1987 2.46667 20.1968C2.46667 20.1949 2.46667 20.1931 2.46667 20.1912C2.46667 20.1893 2.46667 20.1875 2.46667 20.1856C2.46667 20.1837 2.46667 20.1819 2.46667 20.18C2.46667 20.1781 2.46667 20.1764 2.46667 20.1745C2.46667 20.1726 2.46667 20.1708 2.46667 20.1689C2.46667 20.167 2.46667 20.1652 2.46667 20.1633C2.46667 20.1614 2.46667 20.1597 2.46667 20.1577C2.46667 20.156 2.46667 20.1541 2.46667 20.1522C2.46667 20.1504 2.46667 20.1485 2.46667 20.1466C2.46667 20.1448 2.46667 20.1429 2.46667 20.141C2.46667 20.1393 2.46667 20.1374 2.46667 20.1356C2.46667 20.1337 2.46667 20.1318 2.46667 20.13C2.46667 20.1281 2.46667 20.1262 2.46667 20.1245C2.46667 20.1225 2.46667 20.1208 2.46667 20.1189C2.46667 20.117 2.46667 20.1152 2.46667 20.1133C2.46667 20.1115 2.46667 20.1096 2.46667 20.1077C2.46667 20.106 2.46667 20.1041 2.46667 20.1022C2.46667 20.1004 2.46667 20.0985 2.46667 20.0967C2.46667 20.0948 2.46667 20.0929 2.46667 20.0912C2.46667 20.0893 2.46667 20.0875 2.46667 20.0856C2.46667 20.0838 2.46667 20.0819 2.46667 20.08C2.46667 20.0783 2.46667 20.0763 2.46667 20.0746C2.46667 20.0727 2.46667 20.0708 2.46667 20.069C2.46667 20.0671 2.46667 20.0653 2.46667 20.0634C2.46667 20.0617 2.46667 20.0598 2.46667 20.0579C2.46667 20.0561 2.46667 20.0542 2.46667 20.0524C2.46667 20.0505 2.46667 20.0488 2.46667 20.0469C2.46667 20.045 2.46667 20.0432 2.46667 20.0413C2.46667 20.0395 2.46667 20.0376 2.46667 20.0359C2.46667 20.034 2.46667 20.0322 2.46667 20.0303C2.46667 20.0284 2.46667 20.0266 2.46667 20.0247C2.46667 20.023 2.46667 20.0211 2.46667 20.0193C2.46667 20.0174 2.46667 20.0156 2.46667 20.0137C2.46667 20.012 2.46667 20.0101 2.46667 20.0083C2.46667 20.0064 2.46667 20.0045 2.46667 20.0027C2.46667 20.0008 2.46667 19.9991 2.46667 19.9971C2.46667 19.9954 2.46667 19.9935 2.46667 19.9917C2.46667 19.9898 2.46667 19.9881 2.46667 19.9861C2.46667 19.9844 2.46667 19.9825 2.46667 19.9807C2.46667 19.9788 2.46667 19.9771 2.46667 19.9751C2.46667 19.9734 2.46667 19.9715 2.46667 19.9697C2.46667 19.9678 2.46667 19.9661 2.46667 19.9641C2.46667 19.9624 2.46667 19.9605 2.46667 19.9587C2.46667 19.9568 2.46667 19.9551 2.46667 19.9531C2.46667 19.9514 2.46667 19.9495 2.46667 19.9477C2.46667 19.9458 2.46667 19.9441 2.46667 19.9421C2.46667 19.9404 2.46667 19.9385 2.46667 19.9367C2.46667 19.9348 2.46667 19.9331 2.46667 19.9313C2.46667 19.9294 2.46667 19.9276 2.46667 19.9257C2.46667 19.924 2.46667 19.9221 2.46667 19.9203C2.46667 19.9184 2.46667 19.9166 2.46667 19.9147C2.46667 19.913 2.46667 19.9111 2.46667 19.9093C2.46667 19.9075 2.46667 19.9056 2.46667 19.9039C2.46667 19.902 2.46667 19.9002 2.46667 19.8983C2.46667 19.8965 2.46667 19.8946 2.46667 19.8929C2.46667 19.8911 2.46667 19.8892 2.46667 19.8874C2.46667 19.8855 2.46667 19.8838 2.46667 19.8819C2.46667 19.8801 2.46667 19.8783 2.46667 19.8764C2.46667 19.8747 2.46667 19.8728 2.46667 19.871C2.46667 19.8691 2.46667 19.8673 2.46667 19.8656C2.46667 19.8637 2.46667 19.8619 2.46667 19.86C2.46667 19.8583 2.46667 19.8565 2.46667 19.8546C2.46667 19.8528 2.46667 19.8509 2.46667 19.8492C2.46667 19.8473 2.46667 19.8455 2.46667 19.8437C2.46667 19.8418 2.46667 19.8401 2.46667 19.8383C2.46667 19.8364 2.46667 19.8346 2.46667 19.8327C2.46667 19.831 2.46667 19.8292 2.46667 19.8273C2.46667 19.8255 2.46667 19.8236 2.46667 19.8219C2.46667 19.8201 2.46667 19.8182 2.46667 19.8165C2.46667 19.8147 2.46667 19.8128 2.46667 19.811C2.46667 19.8091 2.46667 19.8074 2.46667 19.8056C2.46667 19.8037 2.46667 19.8019 2.46667 19.8002C2.46667 19.7983 2.46667 19.7965 2.46667 19.7946C2.46667 19.7928 2.46667 19.7911 2.46667 19.7892C2.46667 19.7874 2.46667 19.7857 2.46667 19.7837C2.46667 19.782 2.46667 19.7802 2.46667 19.7783C2.46667 19.7766 2.46667 19.7748 2.46667 19.7729C2.46667 19.7711 2.46667 19.7694 2.46667 19.7675C2.46667 19.7657 2.46667 19.7639 2.46667 19.762C2.46667 19.7603 2.46667 19.7585 2.46667 19.7566C2.46667 19.7549 2.46667 19.7531 2.46667 19.7512C2.46667 19.7494 2.46667 19.7477 2.46667 19.7458C2.46667 19.744 2.46667 19.7422 2.46667 19.7403C2.46667 19.7386 2.46667 19.7368 2.46667 19.7349C2.46667 19.7331 2.46667 19.7314 2.46667 19.7296C2.46667 19.7277 2.46667 19.726 2.46667 19.7242C2.46667 19.7223 2.46667 19.7205 2.46667 19.7188C2.46667 19.7169 2.46667 19.7151 2.46667 19.7133C2.46667 19.7116 2.46667 19.7097 2.46667 19.7079C2.46667 19.7062 2.46667 19.7043 2.46667 19.7025C2.46667 19.7007 2.46667 19.699 2.46667 19.6971C2.46667 19.6953 2.46667 19.6935 2.46667 19.6916C2.46667 19.6899 2.46667 19.6881 2.46667 19.6864C2.46667 19.6845 2.46667 19.6827 2.46667 19.6809C2.46667 19.6792 2.46667 19.6773 2.46667 19.6755C2.46667 19.6737 2.46667 19.672 2.46667 19.6701C2.46667 19.6683 2.46667 19.6666 2.46667 19.6648C2.46667 19.6629 2.46667 19.6611 2.46667 19.6594C2.46667 19.6576 2.46667 19.6557 2.46667 19.6539C2.46667 19.6522 2.46667 19.6504 2.46667 19.6485C2.46667 19.6468 2.46667 19.645 2.46667 19.6432C2.46667 19.6413 2.46667 19.6396 2.46667 19.6378C2.46667 19.6361 2.46667 19.6343 2.46667 19.6324C2.46667 19.6306 2.46667 19.6289 2.46667 19.6271C2.46667 19.6252 2.46667 19.6234 2.46667 19.6217C2.46667 19.6199 2.46667 19.6182 2.46667 19.6163C2.46667 19.6145 2.46667 19.6127 2.46667 19.611C2.46667 19.6092 2.46667 19.6073 2.46667 19.6055C2.46667 19.6038 2.46667 19.602 2.46667 19.6003C2.46667 19.5984 2.46667 19.5966 2.46667 19.5948C2.46667 19.5931 2.46667 19.5913 2.46667 19.5894C2.46667 19.5877 2.46667 19.5859 2.46667 19.5841C2.46667 19.5824 2.46667 19.5805 2.46667 19.5787C2.46667 19.5769 2.46667 19.5752 2.46667 19.5734C2.46667 19.5717 2.46667 19.5698 2.46667 19.568C2.46667 19.5662 2.46667 19.5645 2.46667 19.5627C2.46667 19.561 2.46667 19.5591 2.46667 19.5573C2.46667 19.5555 2.46667 19.5538 2.46667 19.552C2.46667 19.5503 2.46667 19.5485 2.46667 19.5466C2.46667 19.5448 2.46667 19.5431 2.46667 19.5413C2.46667 19.5395 2.46667 19.5378 2.46667 19.536C2.46667 19.5341 2.46667 19.5324 2.46667 19.5306C2.46667 19.5288 2.46667 19.5271 2.46667 19.5253C2.46667 19.5236 2.46667 19.5217 2.46667 19.5199C2.46667 19.5181 2.46667 19.5164 2.46667 19.5146C2.46667 19.5129 2.46667 19.5111 2.46667 19.5093C2.46667 19.5076 2.46667 19.5057 2.46667 19.5039C2.46667 19.5021 2.46667 19.5004 2.46667 19.4986C2.46667 19.4969 2.46667 19.4951 2.46667 19.4933C2.46667 19.4916 2.46667 19.4897 2.46667 19.4879C2.46667 19.4862 2.46667 19.4844 2.46667 19.4826C2.46667 19.4809 2.46667 19.4791 2.46667 19.4774C2.46667 19.4756 2.46667 19.4738 2.46667 19.4721C2.46667 19.4702 2.46667 19.4684 2.46667 19.4667C2.46667 19.4649 2.46667 19.4631 2.46667 19.4614C2.46667 19.4596 2.46667 19.4579 2.46667 19.4561C2.46667 19.4543 2.46667 19.4526 2.46667 19.4508C2.46667 19.4491 2.46667 19.4473 2.46667 19.4454C2.46667 19.4436 2.46667 19.4419 2.46667 19.4401C2.46667 19.4383 2.46667 19.4366 2.46667 19.4348C2.46667 19.4331 2.46667 19.4313 2.46667 19.4295C2.46667 19.4278 2.46667 19.426 2.46667 19.4243C2.46667 19.4225 2.46667 19.4207 2.46667 19.419C2.46667 19.4172 2.46667 19.4155 2.46667 19.4137C2.46667 19.4119 2.46667 19.4102 2.46667 19.4084C2.46667 19.4067 2.46667 19.4049 2.46667 19.4031C2.46667 19.4014 2.46667 19.3996 2.46667 19.3979C2.46667 19.396 2.46667 19.3942 2.46667 19.3924C2.46667 19.3907 2.46667 19.3889 2.46667 19.3872C2.46667 19.3854 2.46667 19.3836 2.46667 19.3819C2.46667 19.3801 2.46667 19.3784 2.46667 19.3766C2.46667 19.3748 2.46667 19.3731 2.46667 19.3713C2.46667 19.3696 2.46667 19.3678 2.46667 19.366C2.46667 19.3644 2.46667 19.3627 2.46667 19.3609C2.46667 19.3591 2.46667 19.3574 2.46667 19.3556C2.46667 19.3539 2.46667 19.3521 2.46667 19.3503C2.46667 19.3486 2.46667 19.3468 2.46667 19.3451C2.46667 19.3433 2.46667 19.3415 2.46667 19.3398C2.46667 19.338 2.46667 19.3363 2.46667 19.3345C2.46667 19.3327 2.46667 19.331 2.46667 19.3292C2.46667 19.3275 2.46667 19.3257 2.46667 19.3239H1C1 19.3257 1 19.3275 1 19.3292C1 19.331 1 19.3327 1 19.3345C1 19.3363 1 19.338 1 19.3398C1 19.3415 1 19.3433 1 19.3451C1 19.3468 1 19.3486 1 19.3503C1 19.3521 1 19.3539 1 19.3556C1 19.3574 1 19.3591 1 19.3609C1 19.3627 1 19.3644 1 19.366C1 19.3678 1 19.3696 1 19.3713C1 19.3731 1 19.3748 1 19.3766C1 19.3784 1 19.3801 1 19.3819C1 19.3836 1 19.3854 1 19.3872C1 19.3889 1 19.3907 1 19.3924C1 19.3942 1 19.396 1 19.3979C1 19.3996 1 19.4014 1 19.4031C1 19.4049 1 19.4067 1 19.4084C1 19.4102 1 19.4119 1 19.4137C1 19.4155 1 19.4172 1 19.419C1 19.4207 1 19.4225 1 19.4243C1 19.426 1 19.4278 1 19.4295C1 19.4313 1 19.4331 1 19.4348C1 19.4366 1 19.4383 1 19.4401C1 19.4419 1 19.4436 1 19.4454C1 19.4473 1 19.4491 1 19.4508C1 19.4526 1 19.4543 1 19.4561C1 19.4579 1 19.4596 1 19.4614C1 19.4631 1 19.4649 1 19.4667C1 19.4684 1 19.4702 1 19.4721C1 19.4738 1 19.4756 1 19.4774C1 19.4791 1 19.4809 1 19.4826C1 19.4844 1 19.4862 1 19.4879C1 19.4897 1 19.4916 1 19.4933C1 19.4951 1 19.4969 1 19.4986C1 19.5004 1 19.5021 1 19.5039C1 19.5057 1 19.5076 1 19.5093C1 19.5111 1 19.5129 1 19.5146C1 19.5164 1 19.5181 1 19.5199C1 19.5217 1 19.5236 1 19.5253C1 19.5271 1 19.5288 1 19.5306C1 19.5324 1 19.5341 1 19.536C1 19.5378 1 19.5395 1 19.5413C1 19.5431 1 19.5448 1 19.5466C1 19.5485 1 19.5503 1 19.552C1 19.5538 1 19.5555 1 19.5573C1 19.5591 1 19.561 1 19.5627C1 19.5645 1 19.5662 1 19.568C1 19.5698 1 19.5717 1 19.5734C1 19.5752 1 19.5769 1 19.5787C1 19.5805 1 19.5824 1 19.5841C1 19.5859 1 19.5877 1 19.5894C1 19.5913 1 19.5931 1 19.5948C1 19.5966 1 19.5984 1 19.6003C1 19.602 1 19.6038 1 19.6055C1 19.6073 1 19.6092 1 19.611C1 19.6127 1 19.6145 1 19.6163C1 19.6182 1 19.6199 1 19.6217C1 19.6234 1 19.6252 1 19.6271C1 19.6289 1 19.6306 1 19.6324C1 19.6343 1 19.6361 1 19.6378C1 19.6396 1 19.6413 1 19.6432C1 19.645 1 19.6468 1 19.6485C1 19.6504 1 19.6522 1 19.6539C1 19.6557 1 19.6576 1 19.6594C1 19.6611 1 19.6629 1 19.6648C1 19.6666 1 19.6683 1 19.6701C1 19.672 1 19.6737 1 19.6755C1 19.6773 1 19.6792 1 19.6809C1 19.6827 1 19.6845 1 19.6864C1 19.6881 1 19.6899 1 19.6916C1 19.6935 1 19.6953 1 19.6971C1 19.699 1 19.7007 1 19.7025C1 19.7043 1 19.7062 1 19.7079C1 19.7097 1 19.7116 1 19.7133C1 19.7151 1 19.7169 1 19.7188C1 19.7205 1 19.7223 1 19.7242C1 19.726 1 19.7277 1 19.7296C1 19.7314 1 19.7331 1 19.7349C1 19.7368 1 19.7386 1 19.7403C1 19.7422 1 19.744 1 19.7458C1 19.7477 1 19.7494 1 19.7512C1 19.7531 1 19.7549 1 19.7566C1 19.7585 1 19.7603 1 19.762C1 19.7639 1 19.7657 1 19.7675C1 19.7694 1 19.7711 1 19.7729C1 19.7748 1 19.7766 1 19.7783C1 19.7802 1 19.782 1 19.7837C1 19.7857 1 19.7874 1 19.7892C1 19.7911 1 19.7928 1 19.7946C1 19.7965 1 19.7983 1 19.8002C1 19.8019 1 19.8037 1 19.8056C1 19.8074 1 19.8091 1 19.811C1 19.8128 1 19.8147 1 19.8165C1 19.8182 1 19.8201 1 19.8219C1 19.8236 1 19.8255 1 19.8273C1 19.8292 1 19.831 1 19.8327C1 19.8346 1 19.8364 1 19.8383C1 19.8401 1 19.8418 1 19.8437C1 19.8455 1 19.8473 1 19.8492C1 19.8509 1 19.8528 1 19.8546C1 19.8565 1 19.8583 1 19.86C1 19.8619 1 19.8637 1 19.8656C1 19.8673 1 19.8691 1 19.871C1 19.8728 1 19.8747 1 19.8764C1 19.8783 1 19.8801 1 19.8819C1 19.8838 1 19.8855 1 19.8874C1 19.8892 1 19.8911 1 19.8929C1 19.8946 1 19.8965 1 19.8983C1 19.9002 1 19.902 1 19.9039C1 19.9056 1 19.9075 1 19.9093C1 19.9111 1 19.913 1 19.9147C1 19.9166 1 19.9184 1 19.9203C1 19.9221 1 19.924 1 19.9257C1 19.9276 1 19.9294 1 19.9313C1 19.9331 1 19.9348 1 19.9367C1 19.9385 1 19.9404 1 19.9421C1 19.9441 1 19.9458 1 19.9477C1 19.9495 1 19.9514 1 19.9531C1 19.9551 1 19.9568 1 19.9587C1 19.9605 1 19.9624 1 19.9641C1 19.9661 1 19.9678 1 19.9697C1 19.9715 1 19.9734 1 19.9751C1 19.9771 1 19.9788 1 19.9807C1 19.9825 1 19.9844 1 19.9861C1 19.9881 1 19.9898 1 19.9917C1 19.9935 1 19.9954 1 19.9971C1 19.9991 1 20.0008 1 20.0027C1 20.0045 1 20.0064 1 20.0083C1 20.0101 1 20.012 1 20.0137C1 20.0156 1 20.0174 1 20.0193C1 20.0211 1 20.023 1 20.0247C1 20.0266 1 20.0284 1 20.0303C1 20.0322 1 20.034 1 20.0359C1 20.0376 1 20.0395 1 20.0413C1 20.0432 1 20.045 1 20.0469C1 20.0488 1 20.0505 1 20.0524C1 20.0542 1 20.0561 1 20.0579C1 20.0598 1 20.0617 1 20.0634C1 20.0653 1 20.0671 1 20.069C1 20.0708 1 20.0727 1 20.0746C1 20.0763 1 20.0783 1 20.08C1 20.0819 1 20.0838 1 20.0856C1 20.0875 1 20.0893 1 20.0912C1 20.0929 1 20.0948 1 20.0967C1 20.0985 1 20.1004 1 20.1022C1 20.1041 1 20.106 1 20.1077C1 20.1096 1 20.1115 1 20.1133C1 20.1152 1 20.117 1 20.1189C1 20.1208 1 20.1225 1 20.1245C1 20.1262 1 20.1281 1 20.13C1 20.1318 1 20.1337 1 20.1356C1 20.1374 1 20.1393 1 20.141C1 20.1429 1 20.1448 1 20.1466C1 20.1485 1 20.1504 1 20.1522C1 20.1541 1 20.156 1 20.1577C1 20.1597 1 20.1614 1 20.1633C1 20.1652 1 20.167 1 20.1689C1 20.1708 1 20.1726 1 20.1745C1 20.1764 1 20.1781 1 20.18C1 20.1819 1 20.1837 1 20.1856C1 20.1875 1 20.1893 1 20.1912C1 20.1931 1 20.1949 1 20.1968C1 20.1987 1 20.2004 1 20.2023C1 20.2042 1 20.206 1 20.2079C1 20.2098 1 20.2116 1 20.2135C1 20.2154 1 20.2173 1 20.2191C1 20.221 1 20.2229 1 20.2246C1 20.2265 1 20.2284 1 20.2302C1 20.2321 1 20.234 1 20.2359C1 20.2377 1 20.2396 1 20.2415C1 20.2433 1 20.2452 1 20.2471C1 20.2488 1 20.2507 1 20.2526C1 20.2545 1 20.2563 1 20.2582C1 20.2601 1 20.262 1 20.2638C1 20.2657 1 20.2676 1 20.2694C1 20.2713 1 20.2732 1 20.2751C1 20.2768 1 20.2787 1 20.2807C1 20.2826 1 20.2843 1 20.2862C1 20.2881 1 20.29 1 20.2918C1 20.2937 1 20.2956 1 20.2974C1 20.2993 1 20.3012 1 20.3031C1 20.3049 1 20.3068 1 20.3087C1 20.3106 1 20.3125 1 20.3142C1 20.3161 1 20.3181 1 20.32C1 20.3217 1 20.3236 1 20.3255C1 20.3274 1 20.3292 1 20.3311C1 20.333 1 20.3349 1 20.3368C1 20.3386 1 20.3405 1 20.3424C1 20.3443 1 20.3461 1 20.348C1 20.3499 1 20.3518 1 20.3537C1 20.3555 1 20.3574 1 20.3593C1 20.3612 1 20.3631 1 20.3648C1 20.3667 1 20.3687 1 20.3706C1 20.3725 1 20.3742 1 20.3761C1 20.378 1 20.3799 1 20.3819C1 20.3836 1 20.3855 1 20.3874C1 20.3893 1 20.3912 1 20.393C1 20.3949 1 20.3968 1 20.3987C1 20.4006 1 20.4025 1 20.4043C1 20.4062 1 20.4081 1 20.41C1 20.4119 1 20.4138 1 20.4156C1 20.4175 1 20.4194 1 20.4213C1 20.4232 1 20.4251 1 20.4269C1 20.4288 1 20.4307 1 20.4326C1 20.4345 1 20.4364 1 20.4382C1 20.4401 1 20.442 1 20.4439C1 20.4458 1 20.4477 1 20.4496C1 20.4514 1 20.4533 1 20.4552C1 20.4571 1 20.459 1 20.4609C1 20.4628 1 20.4646 1 20.4665C1 20.4684 1 20.4703 1 20.4722C1 20.4741 1 20.476 1 20.4779C1 20.4797 1 20.4816 1 20.4835C1 20.4854 1 20.4873 1 20.4892C1 20.4911 1 20.493 1 20.4949C1 20.4967 1 20.4986 1 20.5005C1 20.5024 1 20.5043 1 20.5062C1 20.5081 1 20.51 1 20.5119C1 20.5137 1 20.5156 1 20.5175C1 20.5194 1 20.5213 1 20.5232C1 20.5251 1 20.5271 1 20.529C1 20.5309 1 20.5328 1 20.5345C1 20.5364 1 20.5383 1 20.5403C1 20.5422 1 20.5441 1 20.546C1 20.5479 1 20.5498 1 20.5517C1 20.5536 1 20.5555 1 20.5574C1 20.5593 1 20.5611 1 20.563C1 20.5649 1 20.5668 1 20.5687C1 20.5706 1 20.5725 1 20.5744C1 20.5763 1 20.5782 1 20.5801C1 20.5821 1 20.584 1 20.5859C1 20.5878 1 20.5897 1 20.5916C1 20.5935 1 20.5953 1 20.5972C1 20.5991 1 20.601 1 20.6029C1 20.6048 1 20.6067 1 20.6086C1 20.6105 1 20.6124 1 20.6143C1 20.6162 1 20.6181 1 20.62C1 20.6219 1 20.6239 1 20.6258C1 20.6277 1 20.6296 1 20.6315C1 20.6334 1 20.6353 1 20.6372C1 20.6391 1 20.641 1 20.6429C1 20.6448 1 20.6467 1 20.6486C1 20.6505 1 20.6525 1 20.6544C1 20.6563 1 20.6582 1 20.6601C1 20.662 1 20.6639 1 20.6658C1 20.6677 1 20.6696 1 20.6715C1 20.6734 1 20.6753 1 20.6772C1 20.6791 1 20.6811 1 20.683C1 20.6849 1 20.6868 1 20.6887C1 20.6906 1 20.6925 1 20.6944C1 20.6963 1 20.6982 1 20.7001C1 20.702 1 20.7039 1 20.7058C1 20.7077 1 20.7097 1 20.7116C1 20.7135 1 20.7154 1 20.7173C1 20.7192 1 20.7211 1 20.7231C1 20.7251 1 20.727 1 20.7289C1 20.7308 1 20.7327 1 20.7346C1 20.7365 1 20.7384 1 20.7403C1 20.7422 1 20.7441 1 20.746C1 20.7479 1 20.7498 1 20.7517C1 20.7537 1 20.7556 1 20.7576C1 20.7595 1 20.7614 1 20.7633C1 20.7652 1 20.7671 1 20.7691C1 20.771 1 20.7729 1 20.7748C1 20.7767 1 20.7786 1 20.7805C1 20.7824 1 20.7845 1 20.7864C1 20.7883 1 20.7902 1 20.7921C1 20.794 1 20.7959 1 20.7978C1 20.7997 1 20.8016 1 20.8035C1 20.8056 1 20.8075 1 20.8094C1 20.8113 1 20.8132 1 20.8151C1 20.817 1 20.8189 1 20.8208C1 20.8227 1 20.8248 1 20.8267C1 20.8286 1 20.8305 1 20.8324C1 20.8343 1 20.8362 1 20.8381C1 20.84 1 20.8421 1 20.844C1 20.8459 1 20.8478 1 20.8497C1 20.8516 1 20.8535 1 20.8554C1 20.8575 1 20.8594 1 20.8613C1 20.8632 1 20.8651 1 20.867C1 20.8689 1 20.871 1 20.8729C1 20.8748 1 20.8767 1 20.8786C1 20.8805 1 20.8824 1 20.8845C1 20.8864 1 20.8883 1 20.8902C1 20.8921 1 20.894 1 20.8959C1 20.898 1 20.8999 1 20.9018C1 20.9037 1 20.9056 1 20.9075C1 20.9096 1 20.9115 1 20.9134C1 20.9153 1 20.9172 1 20.9191C1 20.9211 1 20.9231 1 20.925C1 20.9269 1 20.9288 1 20.9307C1 20.9327 1 20.9346 1 20.9365C1 20.9385 1 20.9404 1 20.9423C1 20.9443 1 20.9462 1 20.9481C1 20.95 1 20.9519 1 20.954C1 20.9559 1 20.9578 1 20.9597C1 20.9616 1 20.9637 1 20.9656C1 20.9675 1 20.9694 1 20.9713C1 20.9734 1 20.9753 1 20.9772C1 20.9791 1 20.981 1 20.983C1 20.9849 1 20.9869 1 20.9888C1 20.9907 1 20.9927 1 20.9946C1 20.9965 1 20.9984 1 21.0003C1 21.0024 1 21.0043 1 21.0062C1 21.0081 1 21.0102 1 21.0121C1 21.014 1 21.0159 1 21.0178C1 21.0199 1 21.0218 1 21.0237C1 21.0256 1 21.0276 1 21.0295C1 21.0314 1 21.0333 1 21.0354C1 21.0373 1 21.0392 1 21.0411C1 21.0432 1 21.0451 1 21.047C1 21.0489 1 21.0509 1 21.0529C1 21.0548 1 21.0567 1 21.0587C1 21.0606 1 21.0625 1 21.0644C1 21.0665 1 21.0684 1 21.0703C1 21.0722 1 21.0743 1 21.0762C1 21.0781 1 21.08 1 21.082C1 21.0839 1 21.0859 1 21.0878C1 21.0898 1 21.0917 1 21.0936C1 21.0957 1 21.0976 1 21.0995C1 21.1014 1 21.1035 1 21.1054C1 21.1073 1 21.1093 1 21.1112C1 21.1131 1 21.115 1 21.1171C1 21.119 1 21.1209 1 21.123C1 21.1249 1 21.1268 1 21.1287C1 21.1307 1 21.1326 1 21.1345C1 21.1366 1 21.1385 1 21.1404C1 21.1425 1 21.1444 1 21.1463C1 21.1482 1 21.1502 1 21.1521C1 21.1541 1 21.1561 1 21.158C1 21.1599 1 21.162 1 21.1639C1 21.1658 1 21.1678 1 21.1697C1 21.1717 1 21.1737 1 21.1756C1 21.1775 1 21.1796 1 21.1815C1 21.1834 1 21.1853 1 21.1873C1 21.1893 1 21.1912 1 21.1932C1 21.1951 1 21.197 1 21.1991C1 21.201 1 21.2029 1 21.2049C1 21.2069 1 21.2089 1 21.2108C1 21.2127 1 21.2148 1 21.2167C1 21.2186 1 21.2206 1 21.2225C1 21.2245 1 21.2265 1 21.2284C1 21.2303 1 21.2324 1 21.2343C1 21.2362 1 21.2382 1 21.2401C1 21.2422 1 21.2441 1 21.246C1 21.2481 1 21.25 1 21.2519C1 21.2539 1 21.2558 1 21.2577C1 21.2598 1 21.2617 1 21.2638C1 21.2657 1 21.2676 1 21.2696C1 21.2715 1 21.2734 1 21.2755C1 21.2774 1 21.2795 1 21.2814C1 21.2833 1 21.2853 1 21.2872C1 21.2893 1 21.2912 1 21.2931C1 21.2951 1 21.2971 1 21.299C1 21.301 1 21.3029 1 21.305C1 21.3069 1 21.3088 1 21.3108C1 21.3127 1 21.3148 1 21.3167C1 21.3186 1 21.3207 1 21.3226C1 21.3246 1 21.3265 1 21.3284C1 21.3305 1 21.3324 1 21.3345C1 21.3364 1 21.3384 1 21.3403C1 21.3422 1 21.3443 1 21.3462C1 21.3482 1 21.3501 1 21.3521C1 21.3541 1 21.356 1 21.3581C1 21.36 1 21.362 1 21.3639C1 21.3658 1 21.3679 1 21.3698C1 21.3719 1 21.3738 1 21.3758C1 21.3777 1 21.3798 1 21.3817C1 21.3836 1 21.3856 1 21.3875C1 21.3896 1 21.3915 1 21.3936C1 21.3955 1 21.3975 1 21.3994C1 21.4013 1 21.4034 1 21.4053C1 21.4073 1 21.4093 1 21.4113C1 21.4132 1 21.4153 1 21.4172C1 21.4192 1 21.4211 1 21.423C1 21.4251 1 21.427 1 21.4291C1 21.431 1 21.433 1 21.4349C1 21.437 1 21.4389 1 21.4409C1 21.4428 1 21.4449 1 21.4468C1 21.4489 1 21.4508 1 21.4528C1 21.4547 1 21.4566 1 21.4587C1 21.4606 1 21.4626 1 21.4645C1 21.4666 1 21.4685 1 21.4706C1 21.4725 1 21.4745 1 21.4764C1 21.4785 1 21.4804 1 21.4824C1 21.4843 1 21.4864 1 21.4883C1 21.4904 1 21.4923 1 21.4943C1 21.4962 1 21.4983 1 21.5002C1 21.5022 1 21.5041 1 21.5062C1 21.5081 1 21.5102 1 21.5121C1 21.5141 1 21.516 1 21.5181C1 21.52 1 21.522 1 21.5239C1 21.526 1 21.5279 1 21.53C1 21.532 1 21.5339 1 21.536C1 21.5379 1 21.5399 1 21.5418C1 21.5439 1 21.5458 1 21.5479C1 21.5498 1 21.5518 1 21.5537C1 21.5558 1 21.5577 1 21.5597C1 21.5616 1 21.5637 1 21.5657C1 21.5677 1 21.5697 1 21.5716C1 21.5737 1 21.5756 1 21.5776C1 21.5795 1 21.5816 1 21.5835C1 21.5855 1 21.5876 1 21.5895C1 21.5916 1 21.5935 1 21.5955C1 21.5974 1 21.5995 1 21.6014C1 21.6034 1 21.6055 1 21.6074C1 21.6095 1 21.6114 1 21.6134C1 21.6153 1 21.6174 1 21.6193C1 21.6213 1 21.6234 1 21.6253C1 21.6273 1 21.6293 1 21.6313C1 21.6332 1 21.6353 1 21.6373C1 21.6392 1 21.6413 1 21.6432C1 21.6452 1 21.6473 1 21.6492C1 21.6513 1 21.6532 1 21.6552C1 21.6571 1 21.6592 1 21.6612C1 21.6631 1 21.6652 1 21.6671C1 21.6691 1 21.6712 1 21.6731C1 21.6752 1 21.6771 1 21.6791C1 21.6812 1 21.6831 1 21.6851C1 21.687 1 21.6891 1 21.6911C1 21.6931 1 21.6951 1 21.697C1 21.6991 1 21.7011 1 21.703C1 21.7051 1 21.707 1 21.709C1 21.7111 1 21.713 1 21.7151C1 21.7171 1 21.719 1 21.7211C1 21.723 1 21.725 1 21.7271C1 21.729 1 21.731 1 21.7329C1 21.735 1 21.7371 1 21.739C1 21.741 1 21.7431 1 21.745C1 21.747 1 21.7491 1 21.751C1 21.753 1 21.7549 1 21.757C1 21.7591 1 21.761 1 21.763C1 21.7651 1 21.767 1 21.769C1 21.7711 1 21.773 1 21.775C1 21.7769 1 21.779 1 21.7811C1 21.783 1 21.785 1 21.7871C1 21.789 1 21.791 1 21.7931C1 21.795 1 21.797 1 21.7991C1 21.801 1 21.8031 1 21.8051C1 21.807 1 21.8091 1 21.8111C1 21.813 1 21.8151 1 21.8171C1 21.819 1 21.8211 1 21.8231C1 21.8251 1 21.8271 1 21.8292C1 21.8311 1 21.8331 1 21.8352C1 21.8371 1 21.8391 1 21.8412C1 21.8431 1 21.8451 1 21.8472C1 21.8491 1 21.8512 1 21.8532C1 21.8551 1 21.8572 1 21.8592C1 21.8613 1 21.8632 1 21.8652C1 21.8673 1 21.8692 1 21.8713C1 21.8733 1 21.8752 1 21.8773C1 21.8793 1 21.8812 1 21.8833C1 21.8853 1 21.8874 1 21.8893C1 21.8913 1 21.8934 1 21.8953C1 21.8974 1 21.8994 1 21.9013C1 21.9034 1 21.9054 1 21.9075C1 21.9094 1 21.9114 1 21.9135C1 21.9154 1 21.9175 1 21.9195C1 21.9216 1 21.9235 1 21.9255C1 21.9276 1 21.9296 1 21.9315C1 21.9336 1 21.9356 1 21.9375C1 21.9396 1 21.9417 1 21.9437C1 21.9456 1 21.9477 1 21.9497C1 21.9516 1 21.9537 1 21.9557C1 21.9578 1 21.9597 1 21.9617C1 21.9638 1 21.9659 1 21.9678C1 21.9698 1 21.9719 1 21.9739C1 21.9758 1 21.9779 1 21.9799C1 21.982 1 21.9839 1 21.9859C1 21.988 1 21.9901 1 21.992C1 21.994 1 21.9961 1 21.9981C1 22 1 22.0021 1 22.0041C1 22.0062 1 22.0081 1 22.0101C1 22.0122 1 22.0143 1 22.0162C1 22.0182 1 22.0203 1 22.0223C1 22.0242 1 22.0263 1 22.0283C1 22.0304 1 22.0324 1 22.0343C1 22.0364 1 22.0385 1 22.0405C1 22.0424 1 22.0445 1 22.0465C1 22.0486 1 22.0505 1 22.0525C1 22.0546 1 22.0566 1 22.0587C1 22.0606 1 22.0627 1 22.0647C1 22.0668 1 22.0688 1 22.0707C1 22.0728 1 22.0748 1 22.0769C1 22.0788 1 22.0808 1 22.0829C1 22.0849 1 22.087 1 22.0889C1 22.091 1 22.093 1 22.0951C1 22.0971 1 22.099 1 22.1011C1 22.1031 1 22.1052 1 22.1072C1 22.1091 1 22.1112 1 22.1133C1 22.1153 1 22.1174 1 22.1193C1 22.1213 1 22.1234 1 22.1254C1 22.1275 1 22.1295 1 22.1314C1 22.1335 1 22.1355 1 22.1376C1 22.1397 1 22.1416 1 22.1436C1 22.1457 1 22.1477 1 22.1498C1 22.1518 1 22.1537 1 22.1558C1 22.1578 1 22.1599 1 22.1619C1 22.1639 1 22.1659 1 22.168C1 22.17 1 22.1721 1 22.1741C1 22.176 1 22.1781 1 22.1801C1 22.1822 1 22.1842 1 22.1863C1 22.1882 1 22.1903 1 22.1923C1 22.1944 1 22.1964 1 22.1985C1 22.2005 1 22.2024 1 22.2045C1 22.2065 1 22.2086 1 22.2106C1 22.2127 1 22.2146 1 22.2167C1 22.2187 1 22.2208 1 22.2228C1 22.2249 1 22.2269 1 22.2288C1 22.2309 1 22.2329 1 22.235C1 22.237 1 22.2391 1 22.2411C1 22.2431 1 22.2451 1 22.2472C1 22.2492 1 22.2513 1 22.2533H2.46667ZM6.13333 15.6581H12V14.1914H6.13333V15.6581ZM15.6667 19.3239C15.6667 19.3257 15.6667 19.3275 15.6667 19.3292C15.6667 19.331 15.6667 19.3327 15.6667 19.3345C15.6667 19.3363 15.6667 19.338 15.6667 19.3398C15.6667 19.3415 15.6667 19.3433 15.6667 19.3451C15.6667 19.3468 15.6667 19.3486 15.6667 19.3503C15.6667 19.3521 15.6667 19.3539 15.6667 19.3556C15.6667 19.3574 15.6667 19.3591 15.6667 19.3609C15.6667 19.3627 15.6667 19.3644 15.6667 19.366C15.6667 19.3678 15.6667 19.3696 15.6667 19.3713C15.6667 19.3731 15.6667 19.3748 15.6667 19.3766C15.6667 19.3784 15.6667 19.3801 15.6667 19.3819C15.6667 19.3836 15.6667 19.3854 15.6667 19.3872C15.6667 19.3889 15.6667 19.3907 15.6667 19.3924C15.6667 19.3942 15.6667 19.396 15.6667 19.3979C15.6667 19.3996 15.6667 19.4014 15.6667 19.4031C15.6667 19.4049 15.6667 19.4067 15.6667 19.4084C15.6667 19.4102 15.6667 19.4119 15.6667 19.4137C15.6667 19.4155 15.6667 19.4172 15.6667 19.419C15.6667 19.4207 15.6667 19.4225 15.6667 19.4243C15.6667 19.426 15.6667 19.4278 15.6667 19.4295C15.6667 19.4313 15.6667 19.4331 15.6667 19.4348C15.6667 19.4366 15.6667 19.4383 15.6667 19.4401C15.6667 19.4419 15.6667 19.4436 15.6667 19.4454C15.6667 19.4473 15.6667 19.4491 15.6667 19.4508C15.6667 19.4526 15.6667 19.4543 15.6667 19.4561C15.6667 19.4579 15.6667 19.4596 15.6667 19.4614C15.6667 19.4631 15.6667 19.4649 15.6667 19.4667C15.6667 19.4684 15.6667 19.4702 15.6667 19.4721C15.6667 19.4738 15.6667 19.4756 15.6667 19.4774C15.6667 19.4791 15.6667 19.4809 15.6667 19.4826C15.6667 19.4844 15.6667 19.4862 15.6667 19.4879C15.6667 19.4897 15.6667 19.4916 15.6667 19.4933C15.6667 19.4951 15.6667 19.4969 15.6667 19.4986C15.6667 19.5004 15.6667 19.5021 15.6667 19.5039C15.6667 19.5057 15.6667 19.5076 15.6667 19.5093C15.6667 19.5111 15.6667 19.5129 15.6667 19.5146C15.6667 19.5164 15.6667 19.5181 15.6667 19.5199C15.6667 19.5217 15.6667 19.5236 15.6667 19.5253C15.6667 19.5271 15.6667 19.5288 15.6667 19.5306C15.6667 19.5324 15.6667 19.5341 15.6667 19.536C15.6667 19.5378 15.6667 19.5395 15.6667 19.5413C15.6667 19.5431 15.6667 19.5448 15.6667 19.5466C15.6667 19.5485 15.6667 19.5503 15.6667 19.552C15.6667 19.5538 15.6667 19.5555 15.6667 19.5573C15.6667 19.5591 15.6667 19.561 15.6667 19.5627C15.6667 19.5645 15.6667 19.5662 15.6667 19.568C15.6667 19.5698 15.6667 19.5717 15.6667 19.5734C15.6667 19.5752 15.6667 19.5769 15.6667 19.5787C15.6667 19.5805 15.6667 19.5824 15.6667 19.5841C15.6667 19.5859 15.6667 19.5877 15.6667 19.5894C15.6667 19.5913 15.6667 19.5931 15.6667 19.5948C15.6667 19.5966 15.6667 19.5984 15.6667 19.6003C15.6667 19.602 15.6667 19.6038 15.6667 19.6055C15.6667 19.6073 15.6667 19.6092 15.6667 19.611C15.6667 19.6127 15.6667 19.6145 15.6667 19.6163C15.6667 19.6182 15.6667 19.6199 15.6667 19.6217C15.6667 19.6234 15.6667 19.6252 15.6667 19.6271C15.6667 19.6289 15.6667 19.6306 15.6667 19.6324C15.6667 19.6343 15.6667 19.6361 15.6667 19.6378C15.6667 19.6396 15.6667 19.6413 15.6667 19.6432C15.6667 19.645 15.6667 19.6468 15.6667 19.6485C15.6667 19.6504 15.6667 19.6522 15.6667 19.6539C15.6667 19.6557 15.6667 19.6576 15.6667 19.6594C15.6667 19.6611 15.6667 19.6629 15.6667 19.6648C15.6667 19.6666 15.6667 19.6683 15.6667 19.6701C15.6667 19.672 15.6667 19.6737 15.6667 19.6755C15.6667 19.6773 15.6667 19.6792 15.6667 19.6809C15.6667 19.6827 15.6667 19.6845 15.6667 19.6864C15.6667 19.6881 15.6667 19.6899 15.6667 19.6916C15.6667 19.6935 15.6667 19.6953 15.6667 19.6971C15.6667 19.699 15.6667 19.7007 15.6667 19.7025C15.6667 19.7043 15.6667 19.7062 15.6667 19.7079C15.6667 19.7097 15.6667 19.7116 15.6667 19.7133C15.6667 19.7151 15.6667 19.7169 15.6667 19.7188C15.6667 19.7205 15.6667 19.7223 15.6667 19.7242C15.6667 19.726 15.6667 19.7277 15.6667 19.7296C15.6667 19.7314 15.6667 19.7331 15.6667 19.7349C15.6667 19.7368 15.6667 19.7386 15.6667 19.7403C15.6667 19.7422 15.6667 19.744 15.6667 19.7458C15.6667 19.7477 15.6667 19.7494 15.6667 19.7512C15.6667 19.7531 15.6667 19.7549 15.6667 19.7566C15.6667 19.7585 15.6667 19.7603 15.6667 19.762C15.6667 19.7639 15.6667 19.7657 15.6667 19.7675C15.6667 19.7694 15.6667 19.7711 15.6667 19.7729C15.6667 19.7748 15.6667 19.7766 15.6667 19.7783C15.6667 19.7802 15.6667 19.782 15.6667 19.7837C15.6667 19.7857 15.6667 19.7874 15.6667 19.7892C15.6667 19.7911 15.6667 19.7928 15.6667 19.7946C15.6667 19.7965 15.6667 19.7983 15.6667 19.8002C15.6667 19.8019 15.6667 19.8037 15.6667 19.8056C15.6667 19.8074 15.6667 19.8091 15.6667 19.811C15.6667 19.8128 15.6667 19.8147 15.6667 19.8165C15.6667 19.8182 15.6667 19.8201 15.6667 19.8219C15.6667 19.8236 15.6667 19.8255 15.6667 19.8273C15.6667 19.8292 15.6667 19.831 15.6667 19.8327C15.6667 19.8346 15.6667 19.8364 15.6667 19.8383C15.6667 19.8401 15.6667 19.8418 15.6667 19.8437C15.6667 19.8455 15.6667 19.8473 15.6667 19.8492C15.6667 19.8509 15.6667 19.8528 15.6667 19.8546C15.6667 19.8565 15.6667 19.8583 15.6667 19.86C15.6667 19.8619 15.6667 19.8637 15.6667 19.8656C15.6667 19.8673 15.6667 19.8691 15.6667 19.871C15.6667 19.8728 15.6667 19.8747 15.6667 19.8764C15.6667 19.8783 15.6667 19.8801 15.6667 19.8819C15.6667 19.8838 15.6667 19.8855 15.6667 19.8874C15.6667 19.8892 15.6667 19.8911 15.6667 19.8929C15.6667 19.8946 15.6667 19.8965 15.6667 19.8983C15.6667 19.9002 15.6667 19.902 15.6667 19.9039C15.6667 19.9056 15.6667 19.9075 15.6667 19.9093C15.6667 19.9111 15.6667 19.913 15.6667 19.9147C15.6667 19.9166 15.6667 19.9184 15.6667 19.9203C15.6667 19.9221 15.6667 19.924 15.6667 19.9257C15.6667 19.9276 15.6667 19.9294 15.6667 19.9313C15.6667 19.9331 15.6667 19.9348 15.6667 19.9367C15.6667 19.9385 15.6667 19.9404 15.6667 19.9421C15.6667 19.9441 15.6667 19.9458 15.6667 19.9477C15.6667 19.9495 15.6667 19.9514 15.6667 19.9531C15.6667 19.9551 15.6667 19.9568 15.6667 19.9587C15.6667 19.9605 15.6667 19.9624 15.6667 19.9641C15.6667 19.9661 15.6667 19.9678 15.6667 19.9697C15.6667 19.9715 15.6667 19.9734 15.6667 19.9751C15.6667 19.9771 15.6667 19.9788 15.6667 19.9807C15.6667 19.9825 15.6667 19.9844 15.6667 19.9861C15.6667 19.9881 15.6667 19.9898 15.6667 19.9917C15.6667 19.9935 15.6667 19.9954 15.6667 19.9971C15.6667 19.9991 15.6667 20.0008 15.6667 20.0027C15.6667 20.0045 15.6667 20.0064 15.6667 20.0083C15.6667 20.0101 15.6667 20.012 15.6667 20.0137C15.6667 20.0156 15.6667 20.0174 15.6667 20.0193C15.6667 20.0211 15.6667 20.023 15.6667 20.0247C15.6667 20.0266 15.6667 20.0284 15.6667 20.0303C15.6667 20.0322 15.6667 20.034 15.6667 20.0359C15.6667 20.0376 15.6667 20.0395 15.6667 20.0413C15.6667 20.0432 15.6667 20.045 15.6667 20.0469C15.6667 20.0488 15.6667 20.0505 15.6667 20.0524C15.6667 20.0542 15.6667 20.0561 15.6667 20.0579C15.6667 20.0598 15.6667 20.0617 15.6667 20.0634C15.6667 20.0653 15.6667 20.0671 15.6667 20.069C15.6667 20.0708 15.6667 20.0727 15.6667 20.0746C15.6667 20.0763 15.6667 20.0783 15.6667 20.08C15.6667 20.0819 15.6667 20.0838 15.6667 20.0856C15.6667 20.0875 15.6667 20.0893 15.6667 20.0912C15.6667 20.0929 15.6667 20.0948 15.6667 20.0967C15.6667 20.0985 15.6667 20.1004 15.6667 20.1022C15.6667 20.1041 15.6667 20.106 15.6667 20.1077C15.6667 20.1096 15.6667 20.1114 15.6667 20.1133C15.6667 20.1152 15.6667 20.117 15.6667 20.1189C15.6667 20.1208 15.6667 20.1225 15.6667 20.1245C15.6667 20.1262 15.6667 20.1281 15.6667 20.13C15.6667 20.1318 15.6667 20.1337 15.6667 20.1356C15.6667 20.1374 15.6667 20.1393 15.6667 20.141C15.6667 20.1429 15.6667 20.1448 15.6667 20.1466C15.6667 20.1485 15.6667 20.1504 15.6667 20.1522C15.6667 20.1541 15.6667 20.156 15.6667 20.1577C15.6667 20.1597 15.6667 20.1614 15.6667 20.1633C15.6667 20.1652 15.6667 20.167 15.6667 20.1689C15.6667 20.1708 15.6667 20.1726 15.6667 20.1745C15.6667 20.1764 15.6667 20.1781 15.6667 20.18C15.6667 20.1819 15.6667 20.1837 15.6667 20.1856C15.6667 20.1875 15.6667 20.1893 15.6667 20.1912C15.6667 20.1931 15.6667 20.1949 15.6667 20.1968C15.6667 20.1987 15.6667 20.2004 15.6667 20.2023C15.6667 20.2042 15.6667 20.206 15.6667 20.2079C15.6667 20.2098 15.6667 20.2116 15.6667 20.2135C15.6667 20.2154 15.6667 20.2173 15.6667 20.2191C15.6667 20.221 15.6667 20.2229 15.6667 20.2246C15.6667 20.2265 15.6667 20.2284 15.6667 20.2302C15.6667 20.2321 15.6667 20.234 15.6667 20.2359C15.6667 20.2377 15.6667 20.2396 15.6667 20.2415C15.6667 20.2433 15.6667 20.2452 15.6667 20.2471C15.6667 20.2488 15.6667 20.2507 15.6667 20.2526C15.6667 20.2545 15.6667 20.2563 15.6667 20.2582C15.6667 20.2601 15.6667 20.262 15.6667 20.2638C15.6667 20.2657 15.6667 20.2676 15.6667 20.2694C15.6667 20.2713 15.6667 20.2732 15.6667 20.2751C15.6667 20.2768 15.6667 20.2787 15.6667 20.2807C15.6667 20.2826 15.6667 20.2843 15.6667 20.2862C15.6667 20.2881 15.6667 20.29 15.6667 20.2918C15.6667 20.2937 15.6667 20.2956 15.6667 20.2974C15.6667 20.2993 15.6667 20.3012 15.6667 20.3031C15.6667 20.3049 15.6667 20.3068 15.6667 20.3087C15.6667 20.3106 15.6667 20.3125 15.6667 20.3142C15.6667 20.3161 15.6667 20.3181 15.6667 20.32C15.6667 20.3217 15.6667 20.3236 15.6667 20.3255C15.6667 20.3274 15.6667 20.3292 15.6667 20.3311C15.6667 20.333 15.6667 20.3349 15.6667 20.3368C15.6667 20.3386 15.6667 20.3405 15.6667 20.3424C15.6667 20.3443 15.6667 20.3461 15.6667 20.348C15.6667 20.3499 15.6667 20.3518 15.6667 20.3537C15.6667 20.3555 15.6667 20.3574 15.6667 20.3593C15.6667 20.3612 15.6667 20.3631 15.6667 20.3648C15.6667 20.3667 15.6667 20.3687 15.6667 20.3706C15.6667 20.3725 15.6667 20.3742 15.6667 20.3761C15.6667 20.378 15.6667 20.3799 15.6667 20.3819C15.6667 20.3836 15.6667 20.3855 15.6667 20.3874C15.6667 20.3893 15.6667 20.3912 15.6667 20.393C15.6667 20.3949 15.6667 20.3968 15.6667 20.3987C15.6667 20.4006 15.6667 20.4025 15.6667 20.4043C15.6667 20.4062 15.6667 20.4081 15.6667 20.41C15.6667 20.4119 15.6667 20.4138 15.6667 20.4156C15.6667 20.4175 15.6667 20.4194 15.6667 20.4213C15.6667 20.4232 15.6667 20.4251 15.6667 20.4269C15.6667 20.4288 15.6667 20.4307 15.6667 20.4326C15.6667 20.4345 15.6667 20.4364 15.6667 20.4382C15.6667 20.4401 15.6667 20.442 15.6667 20.4439C15.6667 20.4458 15.6667 20.4477 15.6667 20.4496C15.6667 20.4514 15.6667 20.4533 15.6667 20.4552C15.6667 20.4571 15.6667 20.459 15.6667 20.4609C15.6667 20.4628 15.6667 20.4646 15.6667 20.4665C15.6667 20.4684 15.6667 20.4703 15.6667 20.4722C15.6667 20.4741 15.6667 20.476 15.6667 20.4779C15.6667 20.4797 15.6667 20.4816 15.6667 20.4835C15.6667 20.4854 15.6667 20.4873 15.6667 20.4892C15.6667 20.4911 15.6667 20.493 15.6667 20.4949C15.6667 20.4967 15.6667 20.4986 15.6667 20.5005C15.6667 20.5024 15.6667 20.5043 15.6667 20.5062C15.6667 20.5081 15.6667 20.51 15.6667 20.5119C15.6667 20.5137 15.6667 20.5156 15.6667 20.5175C15.6667 20.5194 15.6667 20.5213 15.6667 20.5232C15.6667 20.5251 15.6667 20.5271 15.6667 20.529C15.6667 20.5309 15.6667 20.5328 15.6667 20.5345C15.6667 20.5364 15.6667 20.5383 15.6667 20.5403C15.6667 20.5422 15.6667 20.5441 15.6667 20.546C15.6667 20.5479 15.6667 20.5498 15.6667 20.5517C15.6667 20.5536 15.6667 20.5555 15.6667 20.5574C15.6667 20.5593 15.6667 20.5611 15.6667 20.563C15.6667 20.5649 15.6667 20.5668 15.6667 20.5687C15.6667 20.5706 15.6667 20.5725 15.6667 20.5744C15.6667 20.5763 15.6667 20.5782 15.6667 20.5801C15.6667 20.5821 15.6667 20.584 15.6667 20.5859C15.6667 20.5878 15.6667 20.5897 15.6667 20.5916C15.6667 20.5935 15.6667 20.5953 15.6667 20.5972C15.6667 20.5991 15.6667 20.601 15.6667 20.6029C15.6667 20.6048 15.6667 20.6067 15.6667 20.6086C15.6667 20.6105 15.6667 20.6124 15.6667 20.6143C15.6667 20.6162 15.6667 20.6181 15.6667 20.62C15.6667 20.6219 15.6667 20.6239 15.6667 20.6258C15.6667 20.6277 15.6667 20.6296 15.6667 20.6315C15.6667 20.6334 15.6667 20.6353 15.6667 20.6372C15.6667 20.6391 15.6667 20.641 15.6667 20.6429C15.6667 20.6448 15.6667 20.6467 15.6667 20.6486C15.6667 20.6505 15.6667 20.6525 15.6667 20.6544C15.6667 20.6563 15.6667 20.6582 15.6667 20.6601C15.6667 20.662 15.6667 20.6639 15.6667 20.6658C15.6667 20.6677 15.6667 20.6696 15.6667 20.6715C15.6667 20.6734 15.6667 20.6753 15.6667 20.6772C15.6667 20.6791 15.6667 20.6811 15.6667 20.683C15.6667 20.6849 15.6667 20.6868 15.6667 20.6887C15.6667 20.6906 15.6667 20.6925 15.6667 20.6944C15.6667 20.6963 15.6667 20.6982 15.6667 20.7001C15.6667 20.702 15.6667 20.7039 15.6667 20.7058C15.6667 20.7077 15.6667 20.7097 15.6667 20.7116C15.6667 20.7135 15.6667 20.7154 15.6667 20.7173C15.6667 20.7192 15.6667 20.7211 15.6667 20.7231C15.6667 20.7251 15.6667 20.727 15.6667 20.7289C15.6667 20.7308 15.6667 20.7327 15.6667 20.7346C15.6667 20.7365 15.6667 20.7384 15.6667 20.7403C15.6667 20.7422 15.6667 20.7441 15.6667 20.746C15.6667 20.7479 15.6667 20.7498 15.6667 20.7517C15.6667 20.7537 15.6667 20.7556 15.6667 20.7576C15.6667 20.7595 15.6667 20.7614 15.6667 20.7633C15.6667 20.7652 15.6667 20.7671 15.6667 20.7691C15.6667 20.771 15.6667 20.7729 15.6667 20.7748C15.6667 20.7767 15.6667 20.7786 15.6667 20.7805C15.6667 20.7824 15.6667 20.7845 15.6667 20.7864C15.6667 20.7883 15.6667 20.7902 15.6667 20.7921C15.6667 20.794 15.6667 20.7959 15.6667 20.7978C15.6667 20.7997 15.6667 20.8016 15.6667 20.8035C15.6667 20.8056 15.6667 20.8075 15.6667 20.8094C15.6667 20.8113 15.6667 20.8132 15.6667 20.8151C15.6667 20.817 15.6667 20.8189 15.6667 20.8208C15.6667 20.8227 15.6667 20.8248 15.6667 20.8267C15.6667 20.8286 15.6667 20.8305 15.6667 20.8324C15.6667 20.8343 15.6667 20.8362 15.6667 20.8381C15.6667 20.84 15.6667 20.8421 15.6667 20.844C15.6667 20.8459 15.6667 20.8478 15.6667 20.8497C15.6667 20.8516 15.6667 20.8535 15.6667 20.8554C15.6667 20.8575 15.6667 20.8594 15.6667 20.8613C15.6667 20.8632 15.6667 20.8651 15.6667 20.867C15.6667 20.8689 15.6667 20.871 15.6667 20.8729C15.6667 20.8748 15.6667 20.8767 15.6667 20.8786C15.6667 20.8805 15.6667 20.8824 15.6667 20.8845C15.6667 20.8864 15.6667 20.8883 15.6667 20.8902C15.6667 20.8921 15.6667 20.894 15.6667 20.8959C15.6667 20.898 15.6667 20.8999 15.6667 20.9018C15.6667 20.9037 15.6667 20.9056 15.6667 20.9075C15.6667 20.9096 15.6667 20.9115 15.6667 20.9134C15.6667 20.9153 15.6667 20.9172 15.6667 20.9191C15.6667 20.9211 15.6667 20.9231 15.6667 20.925C15.6667 20.9269 15.6667 20.9288 15.6667 20.9307C15.6667 20.9327 15.6667 20.9346 15.6667 20.9365C15.6667 20.9385 15.6667 20.9404 15.6667 20.9423C15.6667 20.9443 15.6667 20.9462 15.6667 20.9481C15.6667 20.95 15.6667 20.9519 15.6667 20.954C15.6667 20.9559 15.6667 20.9578 15.6667 20.9597C15.6667 20.9616 15.6667 20.9637 15.6667 20.9656C15.6667 20.9675 15.6667 20.9694 15.6667 20.9713C15.6667 20.9734 15.6667 20.9753 15.6667 20.9772C15.6667 20.9791 15.6667 20.981 15.6667 20.983C15.6667 20.9849 15.6667 20.9869 15.6667 20.9888C15.6667 20.9907 15.6667 20.9927 15.6667 20.9946C15.6667 20.9965 15.6667 20.9984 15.6667 21.0003C15.6667 21.0024 15.6667 21.0043 15.6667 21.0062C15.6667 21.0081 15.6667 21.0102 15.6667 21.0121C15.6667 21.014 15.6667 21.0159 15.6667 21.0178C15.6667 21.0199 15.6667 21.0218 15.6667 21.0237C15.6667 21.0256 15.6667 21.0276 15.6667 21.0295C15.6667 21.0314 15.6667 21.0333 15.6667 21.0354C15.6667 21.0373 15.6667 21.0392 15.6667 21.0411C15.6667 21.0432 15.6667 21.0451 15.6667 21.047C15.6667 21.0489 15.6667 21.0509 15.6667 21.0529C15.6667 21.0548 15.6667 21.0567 15.6667 21.0587C15.6667 21.0606 15.6667 21.0625 15.6667 21.0644C15.6667 21.0665 15.6667 21.0684 15.6667 21.0703C15.6667 21.0722 15.6667 21.0743 15.6667 21.0762C15.6667 21.0781 15.6667 21.08 15.6667 21.082C15.6667 21.0839 15.6667 21.0859 15.6667 21.0878C15.6667 21.0898 15.6667 21.0917 15.6667 21.0936C15.6667 21.0957 15.6667 21.0976 15.6667 21.0995C15.6667 21.1014 15.6667 21.1035 15.6667 21.1054C15.6667 21.1073 15.6667 21.1093 15.6667 21.1112C15.6667 21.1131 15.6667 21.115 15.6667 21.1171C15.6667 21.119 15.6667 21.1209 15.6667 21.123C15.6667 21.1249 15.6667 21.1268 15.6667 21.1287C15.6667 21.1307 15.6667 21.1326 15.6667 21.1345C15.6667 21.1366 15.6667 21.1385 15.6667 21.1404C15.6667 21.1425 15.6667 21.1444 15.6667 21.1463C15.6667 21.1482 15.6667 21.1502 15.6667 21.1521C15.6667 21.1541 15.6667 21.1561 15.6667 21.158C15.6667 21.1599 15.6667 21.162 15.6667 21.1639C15.6667 21.1658 15.6667 21.1678 15.6667 21.1697C15.6667 21.1717 15.6667 21.1737 15.6667 21.1756C15.6667 21.1775 15.6667 21.1796 15.6667 21.1815C15.6667 21.1834 15.6667 21.1853 15.6667 21.1873C15.6667 21.1893 15.6667 21.1912 15.6667 21.1932C15.6667 21.1951 15.6667 21.197 15.6667 21.1991C15.6667 21.201 15.6667 21.2029 15.6667 21.2049C15.6667 21.2069 15.6667 21.2089 15.6667 21.2108C15.6667 21.2127 15.6667 21.2148 15.6667 21.2167C15.6667 21.2186 15.6667 21.2206 15.6667 21.2225C15.6667 21.2245 15.6667 21.2265 15.6667 21.2284C15.6667 21.2303 15.6667 21.2324 15.6667 21.2343C15.6667 21.2362 15.6667 21.2382 15.6667 21.2401C15.6667 21.2422 15.6667 21.2441 15.6667 21.246C15.6667 21.2481 15.6667 21.25 15.6667 21.2519C15.6667 21.2539 15.6667 21.2558 15.6667 21.2577C15.6667 21.2598 15.6667 21.2617 15.6667 21.2638C15.6667 21.2657 15.6667 21.2676 15.6667 21.2696C15.6667 21.2715 15.6667 21.2734 15.6667 21.2755C15.6667 21.2774 15.6667 21.2795 15.6667 21.2814C15.6667 21.2833 15.6667 21.2853 15.6667 21.2872C15.6667 21.2893 15.6667 21.2912 15.6667 21.2931C15.6667 21.2951 15.6667 21.2971 15.6667 21.299C15.6667 21.301 15.6667 21.3029 15.6667 21.305C15.6667 21.3069 15.6667 21.3088 15.6667 21.3108C15.6667 21.3127 15.6667 21.3148 15.6667 21.3167C15.6667 21.3186 15.6667 21.3207 15.6667 21.3226C15.6667 21.3246 15.6667 21.3265 15.6667 21.3284C15.6667 21.3305 15.6667 21.3324 15.6667 21.3345C15.6667 21.3364 15.6667 21.3384 15.6667 21.3403C15.6667 21.3422 15.6667 21.3443 15.6667 21.3462C15.6667 21.3482 15.6667 21.3501 15.6667 21.3521C15.6667 21.3541 15.6667 21.356 15.6667 21.3581C15.6667 21.36 15.6667 21.362 15.6667 21.3639C15.6667 21.3658 15.6667 21.3679 15.6667 21.3698C15.6667 21.3719 15.6667 21.3738 15.6667 21.3758C15.6667 21.3777 15.6667 21.3798 15.6667 21.3817C15.6667 21.3836 15.6667 21.3856 15.6667 21.3875C15.6667 21.3896 15.6667 21.3915 15.6667 21.3936C15.6667 21.3955 15.6667 21.3975 15.6667 21.3994C15.6667 21.4013 15.6667 21.4034 15.6667 21.4053C15.6667 21.4073 15.6667 21.4093 15.6667 21.4113C15.6667 21.4132 15.6667 21.4153 15.6667 21.4172C15.6667 21.4192 15.6667 21.4211 15.6667 21.423C15.6667 21.4251 15.6667 21.427 15.6667 21.4291C15.6667 21.431 15.6667 21.433 15.6667 21.4349C15.6667 21.437 15.6667 21.4389 15.6667 21.4409C15.6667 21.4428 15.6667 21.4449 15.6667 21.4468C15.6667 21.4489 15.6667 21.4508 15.6667 21.4528C15.6667 21.4547 15.6667 21.4566 15.6667 21.4587C15.6667 21.4606 15.6667 21.4626 15.6667 21.4645C15.6667 21.4666 15.6667 21.4685 15.6667 21.4706C15.6667 21.4725 15.6667 21.4745 15.6667 21.4764C15.6667 21.4785 15.6667 21.4804 15.6667 21.4824C15.6667 21.4843 15.6667 21.4864 15.6667 21.4883C15.6667 21.4904 15.6667 21.4923 15.6667 21.4943C15.6667 21.4962 15.6667 21.4983 15.6667 21.5002C15.6667 21.5022 15.6667 21.5041 15.6667 21.5062C15.6667 21.5081 15.6667 21.5102 15.6667 21.5121C15.6667 21.5141 15.6667 21.516 15.6667 21.5181C15.6667 21.52 15.6667 21.522 15.6667 21.5239C15.6667 21.526 15.6667 21.5279 15.6667 21.53C15.6667 21.532 15.6667 21.5339 15.6667 21.536C15.6667 21.5379 15.6667 21.5399 15.6667 21.5418C15.6667 21.5439 15.6667 21.5458 15.6667 21.5479C15.6667 21.5498 15.6667 21.5518 15.6667 21.5537C15.6667 21.5558 15.6667 21.5577 15.6667 21.5597C15.6667 21.5616 15.6667 21.5637 15.6667 21.5657C15.6667 21.5677 15.6667 21.5697 15.6667 21.5716C15.6667 21.5737 15.6667 21.5756 15.6667 21.5776C15.6667 21.5795 15.6667 21.5816 15.6667 21.5835C15.6667 21.5855 15.6667 21.5876 15.6667 21.5895C15.6667 21.5916 15.6667 21.5935 15.6667 21.5955C15.6667 21.5974 15.6667 21.5995 15.6667 21.6014C15.6667 21.6034 15.6667 21.6055 15.6667 21.6074C15.6667 21.6095 15.6667 21.6114 15.6667 21.6134C15.6667 21.6153 15.6667 21.6174 15.6667 21.6193C15.6667 21.6213 15.6667 21.6234 15.6667 21.6253C15.6667 21.6273 15.6667 21.6293 15.6667 21.6313C15.6667 21.6332 15.6667 21.6353 15.6667 21.6373C15.6667 21.6392 15.6667 21.6413 15.6667 21.6432C15.6667 21.6452 15.6667 21.6473 15.6667 21.6492C15.6667 21.6513 15.6667 21.6532 15.6667 21.6552C15.6667 21.6571 15.6667 21.6592 15.6667 21.6612C15.6667 21.6631 15.6667 21.6652 15.6667 21.6671C15.6667 21.6691 15.6667 21.6712 15.6667 21.6731C15.6667 21.6752 15.6667 21.6771 15.6667 21.6791C15.6667 21.6812 15.6667 21.6831 15.6667 21.6851C15.6667 21.687 15.6667 21.6891 15.6667 21.6911C15.6667 21.6931 15.6667 21.6951 15.6667 21.697C15.6667 21.6991 15.6667 21.7011 15.6667 21.703C15.6667 21.7051 15.6667 21.707 15.6667 21.709C15.6667 21.7111 15.6667 21.713 15.6667 21.7151C15.6667 21.7171 15.6667 21.719 15.6667 21.7211C15.6667 21.723 15.6667 21.725 15.6667 21.7271C15.6667 21.729 15.6667 21.731 15.6667 21.7329C15.6667 21.735 15.6667 21.7371 15.6667 21.739C15.6667 21.741 15.6667 21.7431 15.6667 21.745C15.6667 21.747 15.6667 21.7491 15.6667 21.751C15.6667 21.753 15.6667 21.7549 15.6667 21.757C15.6667 21.7591 15.6667 21.761 15.6667 21.763C15.6667 21.7651 15.6667 21.767 15.6667 21.769C15.6667 21.7711 15.6667 21.773 15.6667 21.775C15.6667 21.7769 15.6667 21.779 15.6667 21.7811C15.6667 21.783 15.6667 21.785 15.6667 21.7871C15.6667 21.789 15.6667 21.791 15.6667 21.7931C15.6667 21.795 15.6667 21.797 15.6667 21.7991C15.6667 21.801 15.6667 21.8031 15.6667 21.8051C15.6667 21.807 15.6667 21.8091 15.6667 21.8111C15.6667 21.813 15.6667 21.8151 15.6667 21.8171C15.6667 21.819 15.6667 21.8211 15.6667 21.8231C15.6667 21.8251 15.6667 21.8271 15.6667 21.8292C15.6667 21.8311 15.6667 21.8331 15.6667 21.8352C15.6667 21.8371 15.6667 21.8391 15.6667 21.8412C15.6667 21.8431 15.6667 21.8451 15.6667 21.8472C15.6667 21.8491 15.6667 21.8512 15.6667 21.8532C15.6667 21.8551 15.6667 21.8572 15.6667 21.8592C15.6667 21.8613 15.6667 21.8632 15.6667 21.8652C15.6667 21.8673 15.6667 21.8692 15.6667 21.8713C15.6667 21.8733 15.6667 21.8752 15.6667 21.8773C15.6667 21.8793 15.6667 21.8812 15.6667 21.8833C15.6667 21.8853 15.6667 21.8874 15.6667 21.8893C15.6667 21.8913 15.6667 21.8934 15.6667 21.8953C15.6667 21.8974 15.6667 21.8994 15.6667 21.9013C15.6667 21.9034 15.6667 21.9054 15.6667 21.9075C15.6667 21.9094 15.6667 21.9114 15.6667 21.9135C15.6667 21.9154 15.6667 21.9175 15.6667 21.9195C15.6667 21.9216 15.6667 21.9235 15.6667 21.9255C15.6667 21.9276 15.6667 21.9296 15.6667 21.9315C15.6667 21.9336 15.6667 21.9356 15.6667 21.9375C15.6667 21.9396 15.6667 21.9417 15.6667 21.9437C15.6667 21.9456 15.6667 21.9477 15.6667 21.9497C15.6667 21.9516 15.6667 21.9537 15.6667 21.9557C15.6667 21.9578 15.6667 21.9597 15.6667 21.9617C15.6667 21.9638 15.6667 21.9659 15.6667 21.9678C15.6667 21.9698 15.6667 21.9719 15.6667 21.9739C15.6667 21.9758 15.6667 21.9779 15.6667 21.9799C15.6667 21.982 15.6667 21.9839 15.6667 21.9859C15.6667 21.988 15.6667 21.9901 15.6667 21.992C15.6667 21.994 15.6667 21.9961 15.6667 21.9981C15.6667 22 15.6667 22.0021 15.6667 22.0041C15.6667 22.0062 15.6667 22.0081 15.6667 22.0101C15.6667 22.0122 15.6667 22.0143 15.6667 22.0162C15.6667 22.0182 15.6667 22.0203 15.6667 22.0223C15.6667 22.0242 15.6667 22.0263 15.6667 22.0283C15.6667 22.0304 15.6667 22.0324 15.6667 22.0343C15.6667 22.0364 15.6667 22.0385 15.6667 22.0405C15.6667 22.0424 15.6667 22.0445 15.6667 22.0465C15.6667 22.0486 15.6667 22.0505 15.6667 22.0525C15.6667 22.0546 15.6667 22.0566 15.6667 22.0587C15.6667 22.0606 15.6667 22.0627 15.6667 22.0647C15.6667 22.0668 15.6667 22.0688 15.6667 22.0707C15.6667 22.0728 15.6667 22.0748 15.6667 22.0769C15.6667 22.0788 15.6667 22.0808 15.6667 22.0829C15.6667 22.0849 15.6667 22.087 15.6667 22.0889C15.6667 22.091 15.6667 22.093 15.6667 22.0951C15.6667 22.0971 15.6667 22.099 15.6667 22.1011C15.6667 22.1031 15.6667 22.1052 15.6667 22.1072C15.6667 22.1091 15.6667 22.1112 15.6667 22.1133C15.6667 22.1153 15.6667 22.1174 15.6667 22.1193C15.6667 22.1213 15.6667 22.1234 15.6667 22.1254C15.6667 22.1275 15.6667 22.1295 15.6667 22.1314C15.6667 22.1335 15.6667 22.1355 15.6667 22.1376C15.6667 22.1397 15.6667 22.1416 15.6667 22.1436C15.6667 22.1457 15.6667 22.1477 15.6667 22.1498C15.6667 22.1518 15.6667 22.1537 15.6667 22.1558C15.6667 22.1578 15.6667 22.1599 15.6667 22.1619C15.6667 22.1639 15.6667 22.1659 15.6667 22.168C15.6667 22.17 15.6667 22.1721 15.6667 22.1741C15.6667 22.176 15.6667 22.1781 15.6667 22.1801C15.6667 22.1822 15.6667 22.1842 15.6667 22.1863C15.6667 22.1882 15.6667 22.1903 15.6667 22.1923C15.6667 22.1944 15.6667 22.1964 15.6667 22.1985C15.6667 22.2005 15.6667 22.2024 15.6667 22.2045C15.6667 22.2065 15.6667 22.2086 15.6667 22.2106C15.6667 22.2127 15.6667 22.2146 15.6667 22.2167C15.6667 22.2187 15.6667 22.2208 15.6667 22.2228C15.6667 22.2249 15.6667 22.2269 15.6667 22.2288C15.6667 22.2309 15.6667 22.2329 15.6667 22.235C15.6667 22.237 15.6667 22.2391 15.6667 22.2411C15.6667 22.2431 15.6667 22.2451 15.6667 22.2472C15.6667 22.2492 15.6667 22.2513 15.6667 22.2533H17.1333C17.1333 22.2513 17.1333 22.2492 17.1333 22.2472C17.1333 22.2451 17.1333 22.2431 17.1333 22.2411C17.1333 22.2391 17.1333 22.237 17.1333 22.235C17.1333 22.2329 17.1333 22.2309 17.1333 22.2288C17.1333 22.2269 17.1333 22.2249 17.1333 22.2228C17.1333 22.2208 17.1333 22.2187 17.1333 22.2167C17.1333 22.2146 17.1333 22.2127 17.1333 22.2106C17.1333 22.2086 17.1333 22.2065 17.1333 22.2045C17.1333 22.2024 17.1333 22.2005 17.1333 22.1985C17.1333 22.1964 17.1333 22.1944 17.1333 22.1923C17.1333 22.1903 17.1333 22.1882 17.1333 22.1863C17.1333 22.1842 17.1333 22.1822 17.1333 22.1801C17.1333 22.1781 17.1333 22.176 17.1333 22.1741C17.1333 22.1721 17.1333 22.17 17.1333 22.168C17.1333 22.1659 17.1333 22.1639 17.1333 22.1619C17.1333 22.1599 17.1333 22.1578 17.1333 22.1558C17.1333 22.1537 17.1333 22.1518 17.1333 22.1498C17.1333 22.1477 17.1333 22.1457 17.1333 22.1436C17.1333 22.1416 17.1333 22.1397 17.1333 22.1376C17.1333 22.1355 17.1333 22.1335 17.1333 22.1314C17.1333 22.1295 17.1333 22.1275 17.1333 22.1254C17.1333 22.1234 17.1333 22.1213 17.1333 22.1193C17.1333 22.1174 17.1333 22.1153 17.1333 22.1133C17.1333 22.1112 17.1333 22.1091 17.1333 22.1072C17.1333 22.1052 17.1333 22.1031 17.1333 22.1011C17.1333 22.099 17.1333 22.0971 17.1333 22.0951C17.1333 22.093 17.1333 22.091 17.1333 22.0889C17.1333 22.087 17.1333 22.0849 17.1333 22.0829C17.1333 22.0808 17.1333 22.0788 17.1333 22.0769C17.1333 22.0748 17.1333 22.0728 17.1333 22.0707C17.1333 22.0688 17.1333 22.0668 17.1333 22.0647C17.1333 22.0627 17.1333 22.0606 17.1333 22.0587C17.1333 22.0566 17.1333 22.0546 17.1333 22.0525C17.1333 22.0505 17.1333 22.0486 17.1333 22.0465C17.1333 22.0445 17.1333 22.0424 17.1333 22.0405C17.1333 22.0385 17.1333 22.0364 17.1333 22.0343C17.1333 22.0324 17.1333 22.0304 17.1333 22.0283C17.1333 22.0263 17.1333 22.0242 17.1333 22.0223C17.1333 22.0203 17.1333 22.0182 17.1333 22.0162C17.1333 22.0143 17.1333 22.0122 17.1333 22.0101C17.1333 22.0081 17.1333 22.0062 17.1333 22.0041C17.1333 22.0021 17.1333 22 17.1333 21.9981C17.1333 21.9961 17.1333 21.994 17.1333 21.992C17.1333 21.9901 17.1333 21.988 17.1333 21.9859C17.1333 21.9839 17.1333 21.982 17.1333 21.9799C17.1333 21.9779 17.1333 21.9758 17.1333 21.9739C17.1333 21.9719 17.1333 21.9698 17.1333 21.9678C17.1333 21.9659 17.1333 21.9638 17.1333 21.9617C17.1333 21.9597 17.1333 21.9578 17.1333 21.9557C17.1333 21.9537 17.1333 21.9516 17.1333 21.9497C17.1333 21.9477 17.1333 21.9456 17.1333 21.9437C17.1333 21.9417 17.1333 21.9396 17.1333 21.9375C17.1333 21.9356 17.1333 21.9336 17.1333 21.9315C17.1333 21.9296 17.1333 21.9276 17.1333 21.9255C17.1333 21.9235 17.1333 21.9216 17.1333 21.9195C17.1333 21.9175 17.1333 21.9154 17.1333 21.9135C17.1333 21.9114 17.1333 21.9094 17.1333 21.9075C17.1333 21.9054 17.1333 21.9034 17.1333 21.9013C17.1333 21.8994 17.1333 21.8974 17.1333 21.8953C17.1333 21.8934 17.1333 21.8913 17.1333 21.8893C17.1333 21.8874 17.1333 21.8853 17.1333 21.8833C17.1333 21.8812 17.1333 21.8793 17.1333 21.8773C17.1333 21.8752 17.1333 21.8733 17.1333 21.8713C17.1333 21.8692 17.1333 21.8673 17.1333 21.8652C17.1333 21.8632 17.1333 21.8613 17.1333 21.8592C17.1333 21.8572 17.1333 21.8551 17.1333 21.8532C17.1333 21.8512 17.1333 21.8491 17.1333 21.8472C17.1333 21.8451 17.1333 21.8431 17.1333 21.8412C17.1333 21.8391 17.1333 21.8371 17.1333 21.8352C17.1333 21.8331 17.1333 21.8311 17.1333 21.8292C17.1333 21.8271 17.1333 21.8251 17.1333 21.8231C17.1333 21.8211 17.1333 21.819 17.1333 21.8171C17.1333 21.8151 17.1333 21.813 17.1333 21.8111C17.1333 21.8091 17.1333 21.807 17.1333 21.8051C17.1333 21.8031 17.1333 21.801 17.1333 21.7991C17.1333 21.797 17.1333 21.795 17.1333 21.7931C17.1333 21.791 17.1333 21.789 17.1333 21.7871C17.1333 21.785 17.1333 21.783 17.1333 21.7811C17.1333 21.779 17.1333 21.7769 17.1333 21.775C17.1333 21.773 17.1333 21.7711 17.1333 21.769C17.1333 21.767 17.1333 21.7651 17.1333 21.763C17.1333 21.761 17.1333 21.7591 17.1333 21.757C17.1333 21.7549 17.1333 21.753 17.1333 21.751C17.1333 21.7491 17.1333 21.747 17.1333 21.745C17.1333 21.7431 17.1333 21.741 17.1333 21.739C17.1333 21.7371 17.1333 21.735 17.1333 21.7329C17.1333 21.731 17.1333 21.729 17.1333 21.7271C17.1333 21.725 17.1333 21.723 17.1333 21.7211C17.1333 21.719 17.1333 21.7171 17.1333 21.7151C17.1333 21.713 17.1333 21.7111 17.1333 21.709C17.1333 21.707 17.1333 21.7051 17.1333 21.703C17.1333 21.7011 17.1333 21.6991 17.1333 21.697C17.1333 21.6951 17.1333 21.6931 17.1333 21.6911C17.1333 21.6891 17.1333 21.687 17.1333 21.6851C17.1333 21.6831 17.1333 21.6812 17.1333 21.6791C17.1333 21.6771 17.1333 21.6752 17.1333 21.6731C17.1333 21.6712 17.1333 21.6691 17.1333 21.6671C17.1333 21.6652 17.1333 21.6631 17.1333 21.6612C17.1333 21.6592 17.1333 21.6571 17.1333 21.6552C17.1333 21.6532 17.1333 21.6513 17.1333 21.6492C17.1333 21.6473 17.1333 21.6452 17.1333 21.6432C17.1333 21.6413 17.1333 21.6392 17.1333 21.6373C17.1333 21.6353 17.1333 21.6332 17.1333 21.6313C17.1333 21.6293 17.1333 21.6273 17.1333 21.6253C17.1333 21.6234 17.1333 21.6213 17.1333 21.6193C17.1333 21.6174 17.1333 21.6153 17.1333 21.6134C17.1333 21.6114 17.1333 21.6095 17.1333 21.6074C17.1333 21.6055 17.1333 21.6034 17.1333 21.6014C17.1333 21.5995 17.1333 21.5974 17.1333 21.5955C17.1333 21.5935 17.1333 21.5916 17.1333 21.5895C17.1333 21.5876 17.1333 21.5855 17.1333 21.5835C17.1333 21.5816 17.1333 21.5795 17.1333 21.5776C17.1333 21.5756 17.1333 21.5737 17.1333 21.5716C17.1333 21.5697 17.1333 21.5677 17.1333 21.5657C17.1333 21.5637 17.1333 21.5616 17.1333 21.5597C17.1333 21.5577 17.1333 21.5558 17.1333 21.5537C17.1333 21.5518 17.1333 21.5498 17.1333 21.5479C17.1333 21.5458 17.1333 21.5439 17.1333 21.5418C17.1333 21.5399 17.1333 21.5379 17.1333 21.536C17.1333 21.5339 17.1333 21.532 17.1333 21.53C17.1333 21.5279 17.1333 21.526 17.1333 21.5239C17.1333 21.522 17.1333 21.52 17.1333 21.5181C17.1333 21.516 17.1333 21.5141 17.1333 21.5121C17.1333 21.5102 17.1333 21.5081 17.1333 21.5062C17.1333 21.5041 17.1333 21.5022 17.1333 21.5002C17.1333 21.4983 17.1333 21.4962 17.1333 21.4943C17.1333 21.4923 17.1333 21.4904 17.1333 21.4883C17.1333 21.4864 17.1333 21.4843 17.1333 21.4824C17.1333 21.4804 17.1333 21.4785 17.1333 21.4764C17.1333 21.4745 17.1333 21.4725 17.1333 21.4706C17.1333 21.4685 17.1333 21.4666 17.1333 21.4645C17.1333 21.4626 17.1333 21.4606 17.1333 21.4587C17.1333 21.4566 17.1333 21.4547 17.1333 21.4528C17.1333 21.4508 17.1333 21.4489 17.1333 21.4468C17.1333 21.4449 17.1333 21.4428 17.1333 21.4409C17.1333 21.4389 17.1333 21.437 17.1333 21.4349C17.1333 21.433 17.1333 21.431 17.1333 21.4291C17.1333 21.427 17.1333 21.4251 17.1333 21.423C17.1333 21.4211 17.1333 21.4192 17.1333 21.4172C17.1333 21.4153 17.1333 21.4132 17.1333 21.4113C17.1333 21.4093 17.1333 21.4073 17.1333 21.4053C17.1333 21.4034 17.1333 21.4013 17.1333 21.3994C17.1333 21.3975 17.1333 21.3955 17.1333 21.3936C17.1333 21.3915 17.1333 21.3896 17.1333 21.3875C17.1333 21.3856 17.1333 21.3836 17.1333 21.3817C17.1333 21.3798 17.1333 21.3777 17.1333 21.3758C17.1333 21.3738 17.1333 21.3719 17.1333 21.3698C17.1333 21.3679 17.1333 21.3658 17.1333 21.3639C17.1333 21.362 17.1333 21.36 17.1333 21.3581C17.1333 21.356 17.1333 21.3541 17.1333 21.3521C17.1333 21.3501 17.1333 21.3482 17.1333 21.3462C17.1333 21.3443 17.1333 21.3422 17.1333 21.3403C17.1333 21.3384 17.1333 21.3364 17.1333 21.3345C17.1333 21.3324 17.1333 21.3305 17.1333 21.3284C17.1333 21.3265 17.1333 21.3246 17.1333 21.3226C17.1333 21.3207 17.1333 21.3186 17.1333 21.3167C17.1333 21.3148 17.1333 21.3127 17.1333 21.3108C17.1333 21.3088 17.1333 21.3069 17.1333 21.305C17.1333 21.3029 17.1333 21.301 17.1333 21.299C17.1333 21.2971 17.1333 21.2951 17.1333 21.2931C17.1333 21.2912 17.1333 21.2893 17.1333 21.2872C17.1333 21.2853 17.1333 21.2833 17.1333 21.2814C17.1333 21.2795 17.1333 21.2774 17.1333 21.2755C17.1333 21.2734 17.1333 21.2715 17.1333 21.2696C17.1333 21.2676 17.1333 21.2657 17.1333 21.2638C17.1333 21.2617 17.1333 21.2598 17.1333 21.2577C17.1333 21.2558 17.1333 21.2539 17.1333 21.2519C17.1333 21.25 17.1333 21.2481 17.1333 21.246C17.1333 21.2441 17.1333 21.2422 17.1333 21.2401C17.1333 21.2382 17.1333 21.2362 17.1333 21.2343C17.1333 21.2324 17.1333 21.2303 17.1333 21.2284C17.1333 21.2265 17.1333 21.2245 17.1333 21.2225C17.1333 21.2206 17.1333 21.2186 17.1333 21.2167C17.1333 21.2148 17.1333 21.2127 17.1333 21.2108C17.1333 21.2089 17.1333 21.2069 17.1333 21.2049C17.1333 21.2029 17.1333 21.201 17.1333 21.1991C17.1333 21.197 17.1333 21.1951 17.1333 21.1932C17.1333 21.1912 17.1333 21.1893 17.1333 21.1873C17.1333 21.1853 17.1333 21.1834 17.1333 21.1815C17.1333 21.1796 17.1333 21.1775 17.1333 21.1756C17.1333 21.1737 17.1333 21.1717 17.1333 21.1697C17.1333 21.1678 17.1333 21.1658 17.1333 21.1639C17.1333 21.162 17.1333 21.1599 17.1333 21.158C17.1333 21.1561 17.1333 21.1541 17.1333 21.1521C17.1333 21.1502 17.1333 21.1482 17.1333 21.1463C17.1333 21.1444 17.1333 21.1425 17.1333 21.1404C17.1333 21.1385 17.1333 21.1366 17.1333 21.1345C17.1333 21.1326 17.1333 21.1307 17.1333 21.1287C17.1333 21.1268 17.1333 21.1249 17.1333 21.123C17.1333 21.1209 17.1333 21.119 17.1333 21.1171C17.1333 21.115 17.1333 21.1131 17.1333 21.1112C17.1333 21.1093 17.1333 21.1073 17.1333 21.1054C17.1333 21.1035 17.1333 21.1014 17.1333 21.0995C17.1333 21.0976 17.1333 21.0957 17.1333 21.0936C17.1333 21.0917 17.1333 21.0898 17.1333 21.0878C17.1333 21.0859 17.1333 21.0839 17.1333 21.082C17.1333 21.08 17.1333 21.0781 17.1333 21.0762C17.1333 21.0743 17.1333 21.0722 17.1333 21.0703C17.1333 21.0684 17.1333 21.0665 17.1333 21.0644C17.1333 21.0625 17.1333 21.0606 17.1333 21.0587C17.1333 21.0567 17.1333 21.0548 17.1333 21.0529C17.1333 21.0509 17.1333 21.0489 17.1333 21.047C17.1333 21.0451 17.1333 21.0432 17.1333 21.0411C17.1333 21.0392 17.1333 21.0373 17.1333 21.0354C17.1333 21.0333 17.1333 21.0314 17.1333 21.0295C17.1333 21.0276 17.1333 21.0256 17.1333 21.0237C17.1333 21.0218 17.1333 21.0199 17.1333 21.0178C17.1333 21.0159 17.1333 21.014 17.1333 21.0121C17.1333 21.0102 17.1333 21.0081 17.1333 21.0062C17.1333 21.0043 17.1333 21.0024 17.1333 21.0003C17.1333 20.9984 17.1333 20.9965 17.1333 20.9946C17.1333 20.9927 17.1333 20.9907 17.1333 20.9888C17.1333 20.9869 17.1333 20.9849 17.1333 20.983C17.1333 20.981 17.1333 20.9791 17.1333 20.9772C17.1333 20.9753 17.1333 20.9734 17.1333 20.9713C17.1333 20.9694 17.1333 20.9675 17.1333 20.9656C17.1333 20.9637 17.1333 20.9616 17.1333 20.9597C17.1333 20.9578 17.1333 20.9559 17.1333 20.954C17.1333 20.9519 17.1333 20.95 17.1333 20.9481C17.1333 20.9462 17.1333 20.9443 17.1333 20.9423C17.1333 20.9404 17.1333 20.9385 17.1333 20.9365C17.1333 20.9346 17.1333 20.9327 17.1333 20.9307C17.1333 20.9288 17.1333 20.9269 17.1333 20.925C17.1333 20.9231 17.1333 20.9211 17.1333 20.9191C17.1333 20.9172 17.1333 20.9153 17.1333 20.9134C17.1333 20.9115 17.1333 20.9096 17.1333 20.9075C17.1333 20.9056 17.1333 20.9037 17.1333 20.9018C17.1333 20.8999 17.1333 20.898 17.1333 20.8959C17.1333 20.894 17.1333 20.8921 17.1333 20.8902C17.1333 20.8883 17.1333 20.8864 17.1333 20.8845C17.1333 20.8824 17.1333 20.8805 17.1333 20.8786C17.1333 20.8767 17.1333 20.8748 17.1333 20.8729C17.1333 20.871 17.1333 20.8689 17.1333 20.867C17.1333 20.8651 17.1333 20.8632 17.1333 20.8613C17.1333 20.8594 17.1333 20.8575 17.1333 20.8554C17.1333 20.8535 17.1333 20.8516 17.1333 20.8497C17.1333 20.8478 17.1333 20.8459 17.1333 20.844C17.1333 20.8421 17.1333 20.84 17.1333 20.8381C17.1333 20.8362 17.1333 20.8343 17.1333 20.8324C17.1333 20.8305 17.1333 20.8286 17.1333 20.8267C17.1333 20.8248 17.1333 20.8227 17.1333 20.8208C17.1333 20.8189 17.1333 20.817 17.1333 20.8151C17.1333 20.8132 17.1333 20.8113 17.1333 20.8094C17.1333 20.8075 17.1333 20.8056 17.1333 20.8035C17.1333 20.8016 17.1333 20.7997 17.1333 20.7978C17.1333 20.7959 17.1333 20.794 17.1333 20.7921C17.1333 20.7902 17.1333 20.7883 17.1333 20.7864C17.1333 20.7845 17.1333 20.7824 17.1333 20.7805C17.1333 20.7786 17.1333 20.7767 17.1333 20.7748C17.1333 20.7729 17.1333 20.771 17.1333 20.7691C17.1333 20.7671 17.1333 20.7652 17.1333 20.7633C17.1333 20.7614 17.1333 20.7595 17.1333 20.7576C17.1333 20.7556 17.1333 20.7537 17.1333 20.7517C17.1333 20.7498 17.1333 20.7479 17.1333 20.746C17.1333 20.7441 17.1333 20.7422 17.1333 20.7403C17.1333 20.7384 17.1333 20.7365 17.1333 20.7346C17.1333 20.7327 17.1333 20.7308 17.1333 20.7289C17.1333 20.727 17.1333 20.7251 17.1333 20.7231C17.1333 20.7211 17.1333 20.7192 17.1333 20.7173C17.1333 20.7154 17.1333 20.7135 17.1333 20.7116C17.1333 20.7097 17.1333 20.7077 17.1333 20.7058C17.1333 20.7039 17.1333 20.702 17.1333 20.7001C17.1333 20.6982 17.1333 20.6963 17.1333 20.6944C17.1333 20.6925 17.1333 20.6906 17.1333 20.6887C17.1333 20.6868 17.1333 20.6849 17.1333 20.683C17.1333 20.6811 17.1333 20.6791 17.1333 20.6772C17.1333 20.6753 17.1333 20.6734 17.1333 20.6715C17.1333 20.6696 17.1333 20.6677 17.1333 20.6658C17.1333 20.6639 17.1333 20.662 17.1333 20.6601C17.1333 20.6582 17.1333 20.6563 17.1333 20.6544C17.1333 20.6525 17.1333 20.6505 17.1333 20.6486C17.1333 20.6467 17.1333 20.6448 17.1333 20.6429C17.1333 20.641 17.1333 20.6391 17.1333 20.6372C17.1333 20.6353 17.1333 20.6334 17.1333 20.6315C17.1333 20.6296 17.1333 20.6277 17.1333 20.6258C17.1333 20.6239 17.1333 20.6219 17.1333 20.62C17.1333 20.6181 17.1333 20.6162 17.1333 20.6143C17.1333 20.6124 17.1333 20.6105 17.1333 20.6086C17.1333 20.6067 17.1333 20.6048 17.1333 20.6029C17.1333 20.601 17.1333 20.5991 17.1333 20.5972C17.1333 20.5953 17.1333 20.5935 17.1333 20.5916C17.1333 20.5897 17.1333 20.5878 17.1333 20.5859C17.1333 20.584 17.1333 20.5821 17.1333 20.5801C17.1333 20.5782 17.1333 20.5763 17.1333 20.5744C17.1333 20.5725 17.1333 20.5706 17.1333 20.5687C17.1333 20.5668 17.1333 20.5649 17.1333 20.563C17.1333 20.5611 17.1333 20.5593 17.1333 20.5574C17.1333 20.5555 17.1333 20.5536 17.1333 20.5517C17.1333 20.5498 17.1333 20.5479 17.1333 20.546C17.1333 20.5441 17.1333 20.5422 17.1333 20.5403C17.1333 20.5383 17.1333 20.5364 17.1333 20.5345C17.1333 20.5328 17.1333 20.5309 17.1333 20.529C17.1333 20.5271 17.1333 20.5251 17.1333 20.5232C17.1333 20.5213 17.1333 20.5194 17.1333 20.5175C17.1333 20.5156 17.1333 20.5137 17.1333 20.5119C17.1333 20.51 17.1333 20.5081 17.1333 20.5062C17.1333 20.5043 17.1333 20.5024 17.1333 20.5005C17.1333 20.4986 17.1333 20.4967 17.1333 20.4949C17.1333 20.493 17.1333 20.4911 17.1333 20.4892C17.1333 20.4873 17.1333 20.4854 17.1333 20.4835C17.1333 20.4816 17.1333 20.4797 17.1333 20.4779C17.1333 20.476 17.1333 20.4741 17.1333 20.4722C17.1333 20.4703 17.1333 20.4684 17.1333 20.4665C17.1333 20.4646 17.1333 20.4628 17.1333 20.4609C17.1333 20.459 17.1333 20.4571 17.1333 20.4552C17.1333 20.4533 17.1333 20.4514 17.1333 20.4496C17.1333 20.4477 17.1333 20.4458 17.1333 20.4439C17.1333 20.442 17.1333 20.4401 17.1333 20.4382C17.1333 20.4364 17.1333 20.4345 17.1333 20.4326C17.1333 20.4307 17.1333 20.4288 17.1333 20.4269C17.1333 20.4251 17.1333 20.4232 17.1333 20.4213C17.1333 20.4194 17.1333 20.4175 17.1333 20.4156C17.1333 20.4138 17.1333 20.4119 17.1333 20.41C17.1333 20.4081 17.1333 20.4062 17.1333 20.4043C17.1333 20.4025 17.1333 20.4006 17.1333 20.3987C17.1333 20.3968 17.1333 20.3949 17.1333 20.393C17.1333 20.3912 17.1333 20.3893 17.1333 20.3874C17.1333 20.3855 17.1333 20.3836 17.1333 20.3819C17.1333 20.3799 17.1333 20.378 17.1333 20.3761C17.1333 20.3742 17.1333 20.3725 17.1333 20.3706C17.1333 20.3687 17.1333 20.3667 17.1333 20.3648C17.1333 20.3631 17.1333 20.3612 17.1333 20.3593C17.1333 20.3574 17.1333 20.3555 17.1333 20.3537C17.1333 20.3518 17.1333 20.3499 17.1333 20.348C17.1333 20.3461 17.1333 20.3443 17.1333 20.3424C17.1333 20.3405 17.1333 20.3386 17.1333 20.3368C17.1333 20.3349 17.1333 20.333 17.1333 20.3311C17.1333 20.3292 17.1333 20.3274 17.1333 20.3255C17.1333 20.3236 17.1333 20.3217 17.1333 20.32C17.1333 20.3181 17.1333 20.3161 17.1333 20.3142C17.1333 20.3125 17.1333 20.3106 17.1333 20.3087C17.1333 20.3068 17.1333 20.3049 17.1333 20.3031C17.1333 20.3012 17.1333 20.2993 17.1333 20.2974C17.1333 20.2956 17.1333 20.2937 17.1333 20.2918C17.1333 20.29 17.1333 20.2881 17.1333 20.2862C17.1333 20.2843 17.1333 20.2826 17.1333 20.2807C17.1333 20.2787 17.1333 20.2768 17.1333 20.2751C17.1333 20.2732 17.1333 20.2713 17.1333 20.2694C17.1333 20.2676 17.1333 20.2657 17.1333 20.2638C17.1333 20.262 17.1333 20.2601 17.1333 20.2582C17.1333 20.2563 17.1333 20.2545 17.1333 20.2526C17.1333 20.2507 17.1333 20.2488 17.1333 20.2471C17.1333 20.2452 17.1333 20.2433 17.1333 20.2415C17.1333 20.2396 17.1333 20.2377 17.1333 20.2359C17.1333 20.234 17.1333 20.2321 17.1333 20.2302C17.1333 20.2284 17.1333 20.2265 17.1333 20.2246C17.1333 20.2229 17.1333 20.221 17.1333 20.2191C17.1333 20.2173 17.1333 20.2154 17.1333 20.2135C17.1333 20.2116 17.1333 20.2098 17.1333 20.2079C17.1333 20.206 17.1333 20.2042 17.1333 20.2023C17.1333 20.2004 17.1333 20.1987 17.1333 20.1968C17.1333 20.1949 17.1333 20.1931 17.1333 20.1912C17.1333 20.1893 17.1333 20.1875 17.1333 20.1856C17.1333 20.1837 17.1333 20.1819 17.1333 20.18C17.1333 20.1781 17.1333 20.1764 17.1333 20.1745C17.1333 20.1726 17.1333 20.1708 17.1333 20.1689C17.1333 20.167 17.1333 20.1652 17.1333 20.1633C17.1333 20.1614 17.1333 20.1597 17.1333 20.1577C17.1333 20.156 17.1333 20.1541 17.1333 20.1522C17.1333 20.1504 17.1333 20.1485 17.1333 20.1466C17.1333 20.1448 17.1333 20.1429 17.1333 20.141C17.1333 20.1393 17.1333 20.1374 17.1333 20.1356C17.1333 20.1337 17.1333 20.1318 17.1333 20.13C17.1333 20.1281 17.1333 20.1262 17.1333 20.1245C17.1333 20.1225 17.1333 20.1208 17.1333 20.1189C17.1333 20.117 17.1333 20.1152 17.1333 20.1133C17.1333 20.1114 17.1333 20.1096 17.1333 20.1077C17.1333 20.106 17.1333 20.1041 17.1333 20.1022C17.1333 20.1004 17.1333 20.0985 17.1333 20.0967C17.1333 20.0948 17.1333 20.0929 17.1333 20.0912C17.1333 20.0893 17.1333 20.0875 17.1333 20.0856C17.1333 20.0838 17.1333 20.0819 17.1333 20.08C17.1333 20.0783 17.1333 20.0763 17.1333 20.0746C17.1333 20.0727 17.1333 20.0708 17.1333 20.069C17.1333 20.0671 17.1333 20.0653 17.1333 20.0634C17.1333 20.0617 17.1333 20.0598 17.1333 20.0579C17.1333 20.0561 17.1333 20.0542 17.1333 20.0524C17.1333 20.0505 17.1333 20.0488 17.1333 20.0469C17.1333 20.045 17.1333 20.0432 17.1333 20.0413C17.1333 20.0395 17.1333 20.0376 17.1333 20.0359C17.1333 20.034 17.1333 20.0322 17.1333 20.0303C17.1333 20.0284 17.1333 20.0266 17.1333 20.0247C17.1333 20.023 17.1333 20.0211 17.1333 20.0193C17.1333 20.0174 17.1333 20.0156 17.1333 20.0137C17.1333 20.012 17.1333 20.0101 17.1333 20.0083C17.1333 20.0064 17.1333 20.0045 17.1333 20.0027C17.1333 20.0008 17.1333 19.9991 17.1333 19.9971C17.1333 19.9954 17.1333 19.9935 17.1333 19.9917C17.1333 19.9898 17.1333 19.9881 17.1333 19.9861C17.1333 19.9844 17.1333 19.9825 17.1333 19.9807C17.1333 19.9788 17.1333 19.9771 17.1333 19.9751C17.1333 19.9734 17.1333 19.9715 17.1333 19.9697C17.1333 19.9678 17.1333 19.9661 17.1333 19.9641C17.1333 19.9624 17.1333 19.9605 17.1333 19.9587C17.1333 19.9568 17.1333 19.9551 17.1333 19.9531C17.1333 19.9514 17.1333 19.9495 17.1333 19.9477C17.1333 19.9458 17.1333 19.9441 17.1333 19.9421C17.1333 19.9404 17.1333 19.9385 17.1333 19.9367C17.1333 19.9348 17.1333 19.9331 17.1333 19.9313C17.1333 19.9294 17.1333 19.9276 17.1333 19.9257C17.1333 19.924 17.1333 19.9221 17.1333 19.9203C17.1333 19.9184 17.1333 19.9166 17.1333 19.9147C17.1333 19.913 17.1333 19.9111 17.1333 19.9093C17.1333 19.9075 17.1333 19.9056 17.1333 19.9039C17.1333 19.902 17.1333 19.9002 17.1333 19.8983C17.1333 19.8965 17.1333 19.8946 17.1333 19.8929C17.1333 19.8911 17.1333 19.8892 17.1333 19.8874C17.1333 19.8855 17.1333 19.8838 17.1333 19.8819C17.1333 19.8801 17.1333 19.8783 17.1333 19.8764C17.1333 19.8747 17.1333 19.8728 17.1333 19.871C17.1333 19.8691 17.1333 19.8673 17.1333 19.8656C17.1333 19.8637 17.1333 19.8619 17.1333 19.86C17.1333 19.8583 17.1333 19.8565 17.1333 19.8546C17.1333 19.8528 17.1333 19.8509 17.1333 19.8492C17.1333 19.8473 17.1333 19.8455 17.1333 19.8437C17.1333 19.8418 17.1333 19.8401 17.1333 19.8383C17.1333 19.8364 17.1333 19.8346 17.1333 19.8327C17.1333 19.831 17.1333 19.8292 17.1333 19.8273C17.1333 19.8255 17.1333 19.8236 17.1333 19.8219C17.1333 19.8201 17.1333 19.8182 17.1333 19.8165C17.1333 19.8147 17.1333 19.8128 17.1333 19.811C17.1333 19.8091 17.1333 19.8074 17.1333 19.8056C17.1333 19.8037 17.1333 19.8019 17.1333 19.8002C17.1333 19.7983 17.1333 19.7965 17.1333 19.7946C17.1333 19.7928 17.1333 19.7911 17.1333 19.7892C17.1333 19.7874 17.1333 19.7857 17.1333 19.7837C17.1333 19.782 17.1333 19.7802 17.1333 19.7783C17.1333 19.7766 17.1333 19.7748 17.1333 19.7729C17.1333 19.7711 17.1333 19.7694 17.1333 19.7675C17.1333 19.7657 17.1333 19.7639 17.1333 19.762C17.1333 19.7603 17.1333 19.7585 17.1333 19.7566C17.1333 19.7549 17.1333 19.7531 17.1333 19.7512C17.1333 19.7494 17.1333 19.7477 17.1333 19.7458C17.1333 19.744 17.1333 19.7422 17.1333 19.7403C17.1333 19.7386 17.1333 19.7368 17.1333 19.7349C17.1333 19.7331 17.1333 19.7314 17.1333 19.7296C17.1333 19.7277 17.1333 19.726 17.1333 19.7242C17.1333 19.7223 17.1333 19.7205 17.1333 19.7188C17.1333 19.7169 17.1333 19.7151 17.1333 19.7133C17.1333 19.7116 17.1333 19.7097 17.1333 19.7079C17.1333 19.7062 17.1333 19.7043 17.1333 19.7025C17.1333 19.7007 17.1333 19.699 17.1333 19.6971C17.1333 19.6953 17.1333 19.6935 17.1333 19.6916C17.1333 19.6899 17.1333 19.6881 17.1333 19.6864C17.1333 19.6845 17.1333 19.6827 17.1333 19.6809C17.1333 19.6792 17.1333 19.6773 17.1333 19.6755C17.1333 19.6737 17.1333 19.672 17.1333 19.6701C17.1333 19.6683 17.1333 19.6666 17.1333 19.6648C17.1333 19.6629 17.1333 19.6611 17.1333 19.6594C17.1333 19.6576 17.1333 19.6557 17.1333 19.6539C17.1333 19.6522 17.1333 19.6504 17.1333 19.6485C17.1333 19.6468 17.1333 19.645 17.1333 19.6432C17.1333 19.6413 17.1333 19.6396 17.1333 19.6378C17.1333 19.6361 17.1333 19.6343 17.1333 19.6324C17.1333 19.6306 17.1333 19.6289 17.1333 19.6271C17.1333 19.6252 17.1333 19.6234 17.1333 19.6217C17.1333 19.6199 17.1333 19.6182 17.1333 19.6163C17.1333 19.6145 17.1333 19.6127 17.1333 19.611C17.1333 19.6092 17.1333 19.6073 17.1333 19.6055C17.1333 19.6038 17.1333 19.602 17.1333 19.6003C17.1333 19.5984 17.1333 19.5966 17.1333 19.5948C17.1333 19.5931 17.1333 19.5913 17.1333 19.5894C17.1333 19.5877 17.1333 19.5859 17.1333 19.5841C17.1333 19.5824 17.1333 19.5805 17.1333 19.5787C17.1333 19.5769 17.1333 19.5752 17.1333 19.5734C17.1333 19.5717 17.1333 19.5698 17.1333 19.568C17.1333 19.5662 17.1333 19.5645 17.1333 19.5627C17.1333 19.561 17.1333 19.5591 17.1333 19.5573C17.1333 19.5555 17.1333 19.5538 17.1333 19.552C17.1333 19.5503 17.1333 19.5485 17.1333 19.5466C17.1333 19.5448 17.1333 19.5431 17.1333 19.5413C17.1333 19.5395 17.1333 19.5378 17.1333 19.536C17.1333 19.5341 17.1333 19.5324 17.1333 19.5306C17.1333 19.5288 17.1333 19.5271 17.1333 19.5253C17.1333 19.5236 17.1333 19.5217 17.1333 19.5199C17.1333 19.5181 17.1333 19.5164 17.1333 19.5146C17.1333 19.5129 17.1333 19.5111 17.1333 19.5093C17.1333 19.5076 17.1333 19.5057 17.1333 19.5039C17.1333 19.5021 17.1333 19.5004 17.1333 19.4986C17.1333 19.4969 17.1333 19.4951 17.1333 19.4933C17.1333 19.4916 17.1333 19.4897 17.1333 19.4879C17.1333 19.4862 17.1333 19.4844 17.1333 19.4826C17.1333 19.4809 17.1333 19.4791 17.1333 19.4774C17.1333 19.4756 17.1333 19.4738 17.1333 19.4721C17.1333 19.4702 17.1333 19.4684 17.1333 19.4667C17.1333 19.4649 17.1333 19.4631 17.1333 19.4614C17.1333 19.4596 17.1333 19.4579 17.1333 19.4561C17.1333 19.4543 17.1333 19.4526 17.1333 19.4508C17.1333 19.4491 17.1333 19.4473 17.1333 19.4454C17.1333 19.4436 17.1333 19.4419 17.1333 19.4401C17.1333 19.4383 17.1333 19.4366 17.1333 19.4348C17.1333 19.4331 17.1333 19.4313 17.1333 19.4295C17.1333 19.4278 17.1333 19.426 17.1333 19.4243C17.1333 19.4225 17.1333 19.4207 17.1333 19.419C17.1333 19.4172 17.1333 19.4155 17.1333 19.4137C17.1333 19.4119 17.1333 19.4102 17.1333 19.4084C17.1333 19.4067 17.1333 19.4049 17.1333 19.4031C17.1333 19.4014 17.1333 19.3996 17.1333 19.3979C17.1333 19.396 17.1333 19.3942 17.1333 19.3924C17.1333 19.3907 17.1333 19.3889 17.1333 19.3872C17.1333 19.3854 17.1333 19.3836 17.1333 19.3819C17.1333 19.3801 17.1333 19.3784 17.1333 19.3766C17.1333 19.3748 17.1333 19.3731 17.1333 19.3713C17.1333 19.3696 17.1333 19.3678 17.1333 19.366C17.1333 19.3644 17.1333 19.3627 17.1333 19.3609C17.1333 19.3591 17.1333 19.3574 17.1333 19.3556C17.1333 19.3539 17.1333 19.3521 17.1333 19.3503C17.1333 19.3486 17.1333 19.3468 17.1333 19.3451C17.1333 19.3433 17.1333 19.3415 17.1333 19.3398C17.1333 19.338 17.1333 19.3363 17.1333 19.3345C17.1333 19.3327 17.1333 19.331 17.1333 19.3292C17.1333 19.3275 17.1333 19.3257 17.1333 19.3239H15.6667ZM12 15.6581C14.0252 15.6581 15.6667 17.2991 15.6667 19.3239H17.1333C17.1333 16.4887 14.8349 14.1914 12 14.1914V15.6581ZM2.46667 19.3239C2.46667 17.2991 4.10813 15.6581 6.13333 15.6581V14.1914C3.29843 14.1914 1 16.4887 1 19.3239H2.46667ZM21.5333 20.0667V22.2667H23V20.0667H21.5333ZM22.2667 21.5333H18.6V23H22.2667V21.5333ZM18.6 17.1333C20.2201 17.1333 21.5333 18.4466 21.5333 20.0667H23C23 17.6365 21.0301 15.6667 18.6 15.6667V17.1333ZM17.8667 12.7333C16.6517 12.7333 15.6667 11.7484 15.6667 10.5333H14.2C14.2 12.5584 15.8416 14.2 17.8667 14.2V12.7333ZM20.0667 10.5333C20.0667 11.7484 19.0817 12.7333 17.8667 12.7333V14.2C19.8917 14.2 21.5333 12.5584 21.5333 10.5333H20.0667ZM17.8667 8.33333C19.0817 8.33333 20.0667 9.3183 20.0667 10.5333H21.5333C21.5333 8.50829 19.8917 6.86667 17.8667 6.86667V8.33333ZM17.8667 6.86667C15.8416 6.86667 14.2 8.50829 14.2 10.5333H15.6667C15.6667 9.3183 16.6517 8.33333 17.8667 8.33333V6.86667Z" fill="#333333"/>
</svg>
