<svg width="29" height="29" viewBox="0 0 29 29" fill="none" xmlns="http://www.w3.org/2000/svg">
<path d="M1 14.5C1 7.04406 7.04406 1 14.5 1C21.9559 1 28 7.04406 28 14.5C28 21.9559 21.9559 28 14.5 28C7.04406 28 1 21.9559 1 14.5Z" fill="#031056"/>
<path d="M12.3327 16.92L16.6577 14.42L12.3327 11.92V16.92ZM21.966 10.395C22.0743 10.7867 22.1493 11.3117 22.1993 11.9783C22.2577 12.645 22.2827 13.22 22.2827 13.72L22.3327 14.42C22.3327 16.245 22.1993 17.5867 21.966 18.445C21.7577 19.195 21.2743 19.6783 20.5243 19.8867C20.1327 19.995 19.416 20.07 18.316 20.12C17.2327 20.1783 16.241 20.2033 15.3243 20.2033L13.9993 20.2533C10.5077 20.2533 8.33268 20.12 7.47435 19.8867C6.72435 19.6783 6.24102 19.195 6.03268 18.445C5.92435 18.0533 5.84935 17.5283 5.79935 16.8617C5.74102 16.195 5.71602 15.62 5.71602 15.12L5.66602 14.42C5.66602 12.595 5.79935 11.2533 6.03268 10.395C6.24102 9.645 6.72435 9.16167 7.47435 8.95334C7.86602 8.845 8.58268 8.77 9.68268 8.72C10.766 8.66167 11.7577 8.63667 12.6743 8.63667L13.9993 8.58667C17.491 8.58667 19.666 8.72 20.5243 8.95334C21.2743 9.16167 21.7577 9.645 21.966 10.395Z" fill="#F9FAFC"/>
</svg>
