<?xml version="1.0" encoding="utf-8"?>
<!-- Generator: Adobe Illustrator 28.3.0, SVG Export Plug-In . SVG Version: 6.00 Build 0)  -->
<svg version="1.1" id="Camada_2_00000117655070844332368720000002236650609301555623_"
	 xmlns="http://www.w3.org/2000/svg" xmlns:xlink="http://www.w3.org/1999/xlink" x="0px" y="0px" viewBox="0 0 711 189.6"
	 style="enable-background:new 0 0 711 189.6;" xml:space="preserve">
<style type="text/css">
	.st0{fill-rule:evenodd;clip-rule:evenodd;fill:#FFCB05;}
	.st1{fill-rule:evenodd;clip-rule:evenodd;fill:#ED1C24;}
	.st2{fill-rule:evenodd;clip-rule:evenodd;fill:#F7941D;}
	.st3{fill-rule:evenodd;clip-rule:evenodd;fill:#FFFFFF;}
	.st4{fill:#ED1C24;}
	.st5{fill-rule:evenodd;clip-rule:evenodd;fill:#231F20;}
</style>
<g id="Camada_1-2">
	<g>
		<g>
			<path class="st0" d="M234.6,48c19.8,35.3,7.3,79.9-28,99.7c-35.3,19.8-79.9,7.3-99.7-28c-19.8-35.3-7.3-79.9,28-99.7
				C170.2,0.3,214.8,12.8,234.6,48L234.6,48z"/>
			<path class="st1" d="M81.3,96.1c2.6,47.5,41.9,85.2,90.1,85.2s90.2-40.4,90.2-90.2c0-3.2-0.2-6.5-0.5-9.6
				C199.7,70.6,143.5,115.2,81.3,96.1z"/>
			<path class="st2" d="M81.3,96.1c0.2,3.3,0.6,6.6,1.1,9.8c59.8-14.8,114.3,26.6,173.7,16.2c3.6-9.7,5.5-20.1,5.5-31
				c0-3.2-0.2-6.5-0.5-9.6C199.7,70.6,143.5,115.1,81.3,96.1L81.3,96.1z"/>
			<g>
				<path class="st1" d="M199.8,173.1l4.3-7.2c10.6,6.7,25.8,8,36.4-0.7c5.1-3.6,8.8-12.1,17.2-12.8c9.2-1.1,10.5,12,18.2,9.3
					c-3.4,2.9-7-1.5-9.2-3.4c-2.5-2.3-5.6-4.6-8.6-3.8c-6.9,1.1-9.1,8.5-14.7,13.8C232.2,179.4,213.8,180.3,199.8,173.1L199.8,173.1
					z"/>
				<path class="st1" d="M237.6,152.6l-5.8-6c6.1-4.6,12.8-5.5,19.2-4.6c7.8,0.5,11.5,8.2,14,12.2c2.2,4.7,8.6,4,12.1-0.1
					c1.9-1.8,3.4-4.9,6.6-5.7c3.2-0.6,5.7,1.4,8,3c-2.4-1.3-5.2-2.9-7.7-2c-2.4,0.9-3.5,3.7-5.3,6c-2.7,5.3-12.9,7.7-17,1.3
					c-3.9-4.8-6.7-9.1-11.4-8.5C245.6,148,240.3,149.9,237.6,152.6L237.6,152.6z"/>
				<path class="st1" d="M221.2,165.8l4.2-7.2c12.7,7.3,28.8,14.3,42.9,8.3c6.9-2.5,13.2-9.5,22.2-9.5c8.8,0.2,14.3,10,22.7,5.8
					c-8,5-15.5-4.6-22.6-3.8c-7.7,0.6-12.8,7.4-20.5,11.2C253.9,178.8,236,172.6,221.2,165.8L221.2,165.8z"/>
				<path class="st1" d="M260.5,140.5c-0.4,0.9-2.1,2.4-4.4,3.9c-0.7-2.4-1-4.8-0.5-5.8c0.4-0.9,2.1-2.4,4.4-3.9
					C260.7,137.1,260.9,139.5,260.5,140.5L260.5,140.5z"/>
				<path class="st1" d="M304.4,165c1,0.3,2.6,1.8,4.4,4c-2.3,1-4.7,1.4-5.7,1.1c-1-0.3-2.6-1.8-4.4-4
					C301,165.1,303.3,164.7,304.4,165L304.4,165z"/>
				<path class="st1" d="M277.4,172.9c0,1.1-0.9,1.9-1.9,1.9s-2-0.9-2-1.9s0.9-1.9,2-1.9S277.4,171.8,277.4,172.9z"/>
				<path class="st1" d="M283.1,159.3c0.4-0.2,0.9-1,1.2-1.9c-1.1-0.1-1.9,0-2.3,0.2c-0.4,0.2-0.9,1-1.2,1.9
					C281.9,159.6,282.8,159.5,283.1,159.3L283.1,159.3z"/>
				<path class="st1" d="M277.2,160.2c-0.4,0.2-0.9,1-1.2,1.9c1.1,0.1,1.9,0,2.3-0.2c0.4-0.2,0.9-1,1.2-1.9
					C278.4,160,277.5,160,277.2,160.2z"/>
				<path class="st1" d="M281.5,157.1c0-0.4-0.3-1.3-0.9-2.1c-0.7,0.8-1.1,1.6-1.1,2c0,0.4,0.3,1.3,0.9,2.1
					C281,158.2,281.5,157.4,281.5,157.1L281.5,157.1z"/>
				<path class="st1" d="M279.1,162.6c0,0.4,0.3,1.3,0.9,2.1c0.7-0.8,1.1-1.6,1.1-2c0-0.4-0.3-1.3-0.9-2.1
					C279.5,161.4,279.1,162.2,279.1,162.6L279.1,162.6z"/>
				<path class="st1" d="M281,160.3c0.3,1,0.6,1.8,0.9,2.1c0.3,0.3,1.2,0.5,2.2,0.5c-0.3-1-0.6-1.8-0.9-2.1
					C282.9,160.6,282,160.3,281,160.3z"/>
				<path class="st1" d="M279.7,159.5c-0.3-1-0.6-1.8-0.9-2.1c-0.3-0.3-1.2-0.5-2.2-0.5c0.3,1,0.6,1.8,0.9,2.1
					C277.8,159.2,278.7,159.4,279.7,159.5z"/>
				<path class="st1" d="M279.8,159.9c0,0.2,0.2,0.4,0.5,0.4s0.5-0.2,0.5-0.4s-0.2-0.4-0.5-0.4S279.8,159.6,279.8,159.9z"/>
				<path class="st1" d="M268.3,157.6c0.1-0.1,0.2-0.3,0.3-0.6c-0.3,0-0.6,0-0.7,0.1s-0.2,0.3-0.3,0.6
					C268,157.7,268.2,157.7,268.3,157.6L268.3,157.6z"/>
				<path class="st1" d="M266.6,157.9c-0.1,0.1-0.2,0.3-0.3,0.6c0.3,0,0.6,0,0.7-0.1c0.1-0.1,0.2-0.3,0.3-0.6
					C267,157.8,266.7,157.8,266.6,157.9L266.6,157.9z"/>
				<path class="st1" d="M267.9,157c0-0.1-0.1-0.4-0.3-0.6c-0.2,0.2-0.3,0.5-0.3,0.6c0,0.1,0.1,0.4,0.3,0.6
					C267.7,157.3,267.9,157.1,267.9,157z"/>
				<path class="st1" d="M267.2,158.5c0,0.1,0.1,0.4,0.3,0.6c0.2-0.2,0.3-0.5,0.3-0.6c0-0.1-0.1-0.4-0.3-0.6
					C267.3,158.2,267.2,158.4,267.2,158.5L267.2,158.5z"/>
				<path class="st1" d="M267.7,157.9c0.1,0.3,0.2,0.5,0.3,0.6c0.1,0.1,0.4,0.1,0.6,0.1c-0.1-0.3-0.2-0.5-0.3-0.6
					C268.3,158,268,157.9,267.7,157.9L267.7,157.9z"/>
				<path class="st1" d="M267.4,157.7c-0.1-0.3-0.2-0.5-0.3-0.6c-0.1-0.1-0.4-0.1-0.6-0.1c0.1,0.3,0.2,0.5,0.3,0.6
					C266.8,157.6,267.1,157.7,267.4,157.7L267.4,157.7z"/>
				<path class="st1" d="M267.4,157.8c0,0.1,0.1,0.1,0.1,0.1s0.1-0.1,0.1-0.1s-0.1-0.1-0.1-0.1S267.4,157.7,267.4,157.8z"/>
				<path class="st1" d="M267.7,145.3c0.4-0.2,0.9-1,1.2-1.9c-1.1-0.1-1.9,0-2.3,0.2c-0.4,0.2-0.9,1-1.2,1.9
					C266.5,145.6,267.4,145.5,267.7,145.3L267.7,145.3z"/>
				<path class="st1" d="M261.8,146.2c-0.4,0.2-0.9,1-1.2,1.9c1.1,0.1,1.9,0,2.3-0.2c0.4-0.2,0.9-1,1.2-1.9
					C263,145.9,262.1,146,261.8,146.2L261.8,146.2z"/>
				<path class="st1" d="M266.1,143c0-0.4-0.3-1.3-0.9-2.1c-0.7,0.8-1.1,1.6-1.1,2c0,0.4,0.3,1.3,0.9,2.1
					C265.6,144.2,266.1,143.4,266.1,143L266.1,143z"/>
				<path class="st1" d="M263.7,148.5c0,0.4,0.3,1.3,0.9,2.1c0.7-0.8,1.1-1.6,1.1-2c0-0.4-0.3-1.3-0.9-2.1
					C264.2,147.4,263.7,148.1,263.7,148.5z"/>
				<path class="st1" d="M265.6,146.3c0.3,1,0.6,1.8,0.9,2.1c0.3,0.3,1.2,0.5,2.2,0.5c-0.3-1-0.6-1.8-0.9-2.1
					C267.5,146.6,266.6,146.3,265.6,146.3L265.6,146.3z"/>
				<path class="st1" d="M264.3,145.4c-0.3-1-0.6-1.8-0.9-2.1c-0.3-0.3-1.2-0.5-2.2-0.5c0.3,1,0.6,1.8,0.9,2.1
					C262.4,145.2,263.3,145.4,264.3,145.4z"/>
				<path class="st1" d="M264.4,145.9c0,0.2,0.2,0.4,0.4,0.4s0.4-0.2,0.4-0.4s-0.2-0.4-0.4-0.4S264.4,145.6,264.4,145.9z"/>
				<path class="st1" d="M268.3,171c0.1-0.1,0.3-0.3,0.4-0.7c-0.4,0-0.7,0-0.8,0.1c-0.1,0.1-0.3,0.4-0.4,0.7
					C267.9,171.1,268.2,171.1,268.3,171z"/>
				<path class="st1" d="M266.3,171.3c-0.1,0.1-0.3,0.3-0.4,0.7c0.4,0,0.7,0,0.8-0.1c0.1-0.1,0.3-0.3,0.4-0.7
					C266.7,171.2,266.4,171.2,266.3,171.3z"/>
				<path class="st1" d="M267.8,170.2c0-0.1-0.1-0.4-0.3-0.7c-0.2,0.3-0.4,0.6-0.4,0.7c0,0.1,0.1,0.4,0.3,0.7
					C267.6,170.6,267.7,170.4,267.8,170.2L267.8,170.2z"/>
				<path class="st1" d="M266.9,172.1c0,0.1,0.1,0.4,0.3,0.7c0.2-0.3,0.4-0.6,0.4-0.7c0-0.1-0.1-0.4-0.3-0.7
					C267.1,171.7,266.9,172,266.9,172.1z"/>
				<path class="st1" d="M267.6,171.4c0.1,0.4,0.2,0.6,0.3,0.7c0.1,0.1,0.4,0.2,0.8,0.2c-0.1-0.4-0.2-0.6-0.3-0.7
					C268.2,171.4,267.9,171.4,267.6,171.4L267.6,171.4z"/>
				<path class="st1" d="M267.1,171.1c-0.1-0.4-0.2-0.6-0.3-0.7c-0.1-0.1-0.4-0.2-0.8-0.2c0.1,0.4,0.2,0.6,0.3,0.7
					C266.5,171,266.8,171.1,267.1,171.1z"/>
				<path class="st1" d="M267.2,171.2c0,0.1,0.1,0.1,0.2,0.1s0.2-0.1,0.2-0.1s-0.1-0.2-0.2-0.2S267.2,171.1,267.2,171.2z"/>
				<path class="st1" d="M243.4,176.1c0.4-0.2,0.9-1,1.2-1.9c-1.1-0.1-1.9,0-2.3,0.2c-0.4,0.2-0.9,1-1.2,1.9
					C242.2,176.4,243.1,176.3,243.4,176.1L243.4,176.1z"/>
				<path class="st1" d="M237.5,177c-0.4,0.2-0.9,1-1.2,1.9c1.1,0.1,1.9,0,2.3-0.2c0.4-0.2,0.9-1,1.2-1.9
					C238.7,176.7,237.8,176.8,237.5,177L237.5,177z"/>
				<path class="st1" d="M241.8,173.8c0-0.4-0.3-1.3-0.9-2.1c-0.7,0.8-1.1,1.6-1.1,2c0,0.4,0.3,1.3,0.9,2.1
					C241.3,175,241.8,174.2,241.8,173.8z"/>
				<path class="st1" d="M239.4,179.3c0,0.4,0.3,1.3,0.9,2.1c0.7-0.8,1.1-1.6,1.1-2c0-0.4-0.3-1.3-0.9-2.1
					C239.9,178.2,239.4,179,239.4,179.3L239.4,179.3z"/>
				<path class="st1" d="M241.3,177.1c0.3,1,0.6,1.8,0.9,2.1c0.3,0.3,1.2,0.5,2.2,0.5c-0.3-1-0.6-1.8-0.9-2.1
					C243.2,177.3,242.3,177.1,241.3,177.1z"/>
				<path class="st1" d="M240,176.2c-0.3-1-0.6-1.8-0.9-2.1c-0.3-0.3-1.2-0.5-2.2-0.5c0.3,1,0.6,1.8,0.9,2.1
					C238.1,176,239,176.2,240,176.2L240,176.2z"/>
				<path class="st1" d="M240.1,176.7c0,0.2,0.2,0.4,0.4,0.4s0.4-0.2,0.4-0.4s-0.2-0.4-0.4-0.4S240.1,176.4,240.1,176.7z"/>
				<path class="st1" d="M213.3,156.7c0.4-0.2,0.9-1,1.2-1.9c-1.1-0.1-1.9,0-2.3,0.2c-0.4,0.2-0.9,1-1.2,1.9
					C212.1,157,213,156.9,213.3,156.7L213.3,156.7z"/>
				<path class="st1" d="M207.4,157.6c-0.4,0.2-0.9,1-1.2,1.9c1.1,0.1,1.9,0,2.3-0.2c0.4-0.2,0.9-1,1.2-1.9
					C208.6,157.3,207.7,157.4,207.4,157.6L207.4,157.6z"/>
				<path class="st1" d="M211.7,154.4c0-0.4-0.3-1.3-0.9-2.1c-0.7,0.8-1.1,1.6-1.1,2c0,0.4,0.3,1.3,0.9,2.1
					C211.3,155.6,211.7,154.8,211.7,154.4z"/>
				<path class="st1" d="M209.3,159.9c0,0.4,0.3,1.3,0.9,2.1c0.7-0.8,1.1-1.6,1.1-2c0.1-0.4-0.3-1.3-0.9-2.1
					C209.8,158.8,209.4,159.6,209.3,159.9L209.3,159.9z"/>
				<path class="st1" d="M211.2,157.7c0.3,1,0.6,1.8,0.9,2.1c0.3,0.3,1.2,0.5,2.2,0.5c-0.3-1-0.6-1.8-0.9-2.1
					C213.1,157.9,212.2,157.7,211.2,157.7L211.2,157.7z"/>
				<path class="st1" d="M209.9,156.9c-0.3-1-0.6-1.8-0.9-2.1c-0.3-0.3-1.2-0.5-2.2-0.5c0.3,1,0.6,1.8,0.9,2.1
					C208,156.6,208.9,156.8,209.9,156.9L209.9,156.9z"/>
				<path class="st1" d="M210,157.3c0,0.2,0.2,0.4,0.4,0.4s0.4-0.2,0.4-0.4s-0.2-0.4-0.4-0.4S210,157,210,157.3z"/>
				<path class="st1" d="M242.1,156.5c0.2-0.1,0.4-0.4,0.5-0.9c-0.5,0-0.9,0-1,0.1c-0.2,0.1-0.4,0.4-0.5,0.8
					C241.5,156.6,241.9,156.6,242.1,156.5L242.1,156.5z"/>
				<path class="st1" d="M239.5,156.9c-0.2,0.1-0.4,0.4-0.5,0.8c0.5,0,0.9,0,1-0.1c0.2-0.1,0.4-0.4,0.5-0.8
					C240,156.8,239.6,156.8,239.5,156.9z"/>
				<path class="st1" d="M241.4,155.5c0-0.2-0.1-0.6-0.4-0.9c-0.3,0.4-0.5,0.7-0.5,0.9c0,0.2,0.1,0.6,0.4,0.9
					C241.2,156,241.4,155.7,241.4,155.5L241.4,155.5z"/>
				<path class="st1" d="M240.3,157.9c0,0.2,0.1,0.6,0.4,0.9c0.3-0.4,0.5-0.7,0.5-0.9c0-0.2-0.1-0.6-0.4-0.9
					C240.6,157.4,240.4,157.8,240.3,157.9L240.3,157.9z"/>
				<path class="st1" d="M241.2,156.9c0.1,0.4,0.3,0.8,0.4,0.9c0.1,0.1,0.5,0.2,1,0.2c-0.1-0.4-0.3-0.8-0.4-0.9
					C242,157.1,241.6,157,241.2,156.9L241.2,156.9z"/>
				<path class="st1" d="M240.6,156.6c-0.1-0.4-0.3-0.8-0.4-0.9c-0.1-0.1-0.5-0.2-1-0.2c0.1,0.4,0.3,0.8,0.4,0.9
					C239.8,156.5,240.2,156.6,240.6,156.6L240.6,156.6z"/>
				<path class="st1" d="M240.6,156.8c0,0.1,0.1,0.2,0.2,0.2s0.2-0.1,0.2-0.2s-0.1-0.2-0.2-0.2S240.6,156.6,240.6,156.8z"/>
				<path class="st1" d="M237.8,132c0.3-0.2,0.7-0.8,0.9-1.5c-0.8,0-1.5,0-1.8,0.2c-0.3,0.2-0.7,0.8-0.9,1.5
					C236.8,132.2,237.5,132.1,237.8,132z"/>
				<path class="st1" d="M233.1,132.7c-0.3,0.2-0.7,0.8-0.9,1.5c0.9,0.1,1.5,0,1.8-0.2c0.3-0.2,0.7-0.8,0.9-1.5
					C234.1,132.4,233.4,132.5,233.1,132.7z"/>
				<path class="st1" d="M236.5,130.1c0-0.3-0.3-1-0.7-1.7c-0.5,0.7-0.9,1.3-0.9,1.6c0,0.3,0.3,1,0.7,1.6
					C236.2,131.1,236.5,130.5,236.5,130.1z"/>
				<path class="st1" d="M234.6,134.5c0,0.3,0.3,1,0.7,1.7c0.5-0.7,0.9-1.3,0.9-1.6c0-0.3-0.3-1-0.7-1.6
					C235,133.6,234.6,134.2,234.6,134.5L234.6,134.5z"/>
				<path class="st1" d="M236.1,132.8c0.2,0.8,0.5,1.5,0.7,1.7c0.2,0.2,1,0.4,1.8,0.4c-0.2-0.8-0.5-1.5-0.7-1.7
					C237.6,132.9,236.9,132.8,236.1,132.8z"/>
				<path class="st1" d="M235.1,132.1c-0.2-0.8-0.5-1.5-0.7-1.7c-0.2-0.2-1-0.4-1.7-0.4c0.2,0.8,0.5,1.5,0.7,1.7
					C233.6,131.9,234.3,132.1,235.1,132.1z"/>
				<path class="st1" d="M235.2,132.4c0,0.2,0.2,0.4,0.4,0.4s0.4-0.2,0.4-0.4c0-0.2-0.2-0.4-0.4-0.4S235.2,132.2,235.2,132.4z"/>
				<path class="st1" d="M251.8,140.6c0.2-0.1,0.5-0.6,0.7-1.2c-0.6,0-1.2,0-1.4,0.1c-0.2,0.1-0.5,0.6-0.7,1.2
					C251,140.7,251.6,140.7,251.8,140.6L251.8,140.6z"/>
				<path class="st1" d="M248.2,141.1c-0.2,0.1-0.5,0.6-0.7,1.1c0.6,0,1.2,0,1.4-0.1c0.2-0.1,0.5-0.6,0.7-1.2
					C248.9,140.9,248.4,141,248.2,141.1L248.2,141.1z"/>
				<path class="st1" d="M250.8,139.2c0-0.3-0.2-0.8-0.6-1.2c-0.4,0.5-0.6,1-0.7,1.2c0,0.3,0.2,0.8,0.6,1.2
					C250.5,139.9,250.8,139.4,250.8,139.2L250.8,139.2z"/>
				<path class="st1" d="M249.4,142.5c0,0.2,0.2,0.8,0.6,1.2c0.4-0.5,0.7-1,0.7-1.2c0-0.3-0.2-0.8-0.6-1.2
					C249.6,141.8,249.4,142.3,249.4,142.5z"/>
				<path class="st1" d="M250.5,141.2c0.2,0.6,0.4,1.1,0.6,1.3c0.2,0.2,0.7,0.3,1.3,0.3c-0.2-0.6-0.4-1.1-0.5-1.3
					C251.6,141.3,251.1,141.2,250.5,141.2L250.5,141.2z"/>
				<path class="st1" d="M249.7,140.7c-0.2-0.6-0.4-1.1-0.5-1.3c-0.2-0.2-0.7-0.3-1.3-0.3c0.2,0.6,0.4,1.1,0.5,1.3
					C248.6,140.5,249.1,140.6,249.7,140.7z"/>
				<path class="st1" d="M249.8,140.9c0,0.1,0.1,0.3,0.3,0.3s0.3-0.1,0.3-0.3s-0.1-0.3-0.3-0.3S249.8,140.8,249.8,140.9z"/>
				<path class="st1" d="M293.2,176.4c0.3-0.1,0.6-0.7,0.9-1.4c-0.8-0.1-1.4,0-1.6,0.1c-0.3,0.1-0.6,0.7-0.9,1.4
					C292.3,176.6,293,176.5,293.2,176.4z"/>
				<path class="st1" d="M289,177c-0.3,0.1-0.6,0.7-0.9,1.4c0.8,0.1,1.4,0,1.6-0.1c0.3-0.2,0.6-0.7,0.9-1.4
					C289.8,176.9,289.2,176.9,289,177L289,177z"/>
				<path class="st1" d="M292,174.8c0-0.3-0.2-0.9-0.6-1.5c-0.5,0.6-0.8,1.2-0.8,1.4c0,0.3,0.2,0.9,0.7,1.5
					C291.7,175.6,292,175,292,174.8L292,174.8z"/>
				<path class="st1" d="M290.3,178.7c0,0.3,0.2,0.9,0.6,1.5c0.5-0.6,0.8-1.1,0.8-1.4c0-0.3-0.2-0.9-0.6-1.5
					C290.6,177.9,290.3,178.4,290.3,178.7L290.3,178.7z"/>
				<path class="st1" d="M291.7,177.1c0.2,0.7,0.5,1.3,0.6,1.5c0.2,0.2,0.9,0.4,1.6,0.4c-0.2-0.8-0.4-1.3-0.6-1.5
					C293,177.3,292.4,177.1,291.7,177.1L291.7,177.1z"/>
				<path class="st1" d="M290.8,176.5c-0.2-0.7-0.5-1.3-0.6-1.5c-0.2-0.2-0.9-0.4-1.6-0.4c0.2,0.7,0.4,1.3,0.6,1.5
					C289.4,176.3,290.1,176.5,290.8,176.5L290.8,176.5z"/>
				<path class="st1" d="M290.8,176.8c0,0.2,0.1,0.3,0.3,0.3s0.3-0.1,0.3-0.3s-0.1-0.3-0.3-0.3S290.8,176.6,290.8,176.8z"/>
				<path class="st1" d="M301.7,156.9c0.2-0.1,0.4-0.5,0.6-0.9c-0.5,0-0.9,0-1.1,0.1c-0.2,0.1-0.4,0.5-0.6,0.9
					C301.2,157,301.6,157,301.7,156.9z"/>
				<path class="st1" d="M298.9,157.3c-0.2,0.1-0.4,0.5-0.6,0.9c0.5,0,0.9,0,1.1-0.1c0.2-0.1,0.4-0.5,0.6-0.9
					C299.5,157.2,299.1,157.2,298.9,157.3z"/>
				<path class="st1" d="M301,155.8c0-0.2-0.2-0.6-0.4-1c-0.3,0.4-0.5,0.8-0.5,0.9c0,0.2,0.2,0.6,0.4,1
					C300.8,156.4,301,156,301,155.8L301,155.8z"/>
				<path class="st1" d="M299.8,158.5c0,0.2,0.2,0.6,0.4,1c0.3-0.4,0.5-0.8,0.5-0.9c0-0.2-0.2-0.6-0.4-1
					C300,157.9,299.8,158.3,299.8,158.5L299.8,158.5z"/>
				<path class="st1" d="M300.7,157.4c0.1,0.5,0.3,0.9,0.4,1c0.1,0.1,0.6,0.2,1,0.2c-0.1-0.5-0.3-0.9-0.4-1
					C301.6,157.5,301.2,157.4,300.7,157.4L300.7,157.4z"/>
				<path class="st1" d="M300.1,157c-0.1-0.5-0.3-0.9-0.4-1c-0.1-0.1-0.6-0.2-1-0.3c0.1,0.5,0.3,0.9,0.4,1
					C299.2,156.9,299.6,157,300.1,157L300.1,157z"/>
				<path class="st1" d="M300.1,157.2c0,0.1,0.1,0.2,0.2,0.2s0.2-0.1,0.2-0.2s-0.1-0.2-0.2-0.2S300.1,157.1,300.1,157.2z"/>
			</g>
			<g>
				<path class="st1" d="M139.2,165.9l4.3,7.2c-13.9,7.2-32.3,6.2-43.4-4.8c-5.6-5.3-7.8-12.8-14.8-13.9c-3.1-0.8-6.2,1.5-8.8,3.8
					c-2.3,2-5.8,6.2-9,3.4c7.3,2.8,8.8-10.4,18.1-9.3c8.5,0.7,12.2,9.3,17.2,12.8C113.5,173.8,128.6,172.6,139.2,165.9L139.2,165.9z
					"/>
				<path class="st1" d="M111.5,146.6l-5.8,6c-2.7-2.7-7.9-4.7-12.8-4.4c-4.7-0.6-7.5,3.7-11.4,8.5c-4.1,6.3-14.2,3.9-16.8-1.4
					c-1.8-2.3-2.9-5.2-5.4-6.1c-2.5-0.9-5.4,0.7-7.8,2c2.3-1.6,4.8-3.6,8.1-3c3.3,0.9,4.8,3.9,6.7,5.8c3.5,4.1,9.8,4.8,12,0.1
					c2.5-3.9,6.2-11.7,14.1-12.2C98.7,141.1,105.5,141.9,111.5,146.6L111.5,146.6z"/>
				<path class="st1" d="M118,158.6l4.2,7.2c-14.8,6.8-32.8,13-48.8,4.7c-7.7-3.9-12.7-10.6-20.5-11.3c-7.2-0.8-14.7,8.7-22.6,3.7
					c8.2,4.2,13.7-5.6,22.6-5.8c9,0.1,15.4,7.1,22.2,9.6C89.1,172.8,105.2,165.8,118,158.6z"/>
				<path class="st1" d="M82.8,140.5c0.4,0.9,2.1,2.4,4.4,3.9c0.8-2.4,0.9-4.8,0.5-5.8c-0.4-0.9-2.1-2.4-4.4-3.9
					C82.6,137.1,82.4,139.5,82.8,140.5z"/>
				<path class="st1" d="M39,165c-0.9,0.3-2.6,1.8-4.4,4c2.3,1,4.7,1.4,5.7,1.1c1-0.3,2.6-1.8,4.4-4C42.4,165.1,40,164.7,39,165z"/>
				<path class="st1" d="M66,172.9c0,1.1,0.9,1.9,1.9,1.9c1.1,0,1.9-0.9,1.9-1.9s-0.9-1.9-1.9-1.9S66,171.8,66,172.9z"/>
				<path class="st1" d="M22.4,167.1c0,0.5,0.4,1,1,1s1-0.4,1-1s-0.4-1-1-1S22.4,166.6,22.4,167.1z"/>
				<path class="st1" d="M54,139.3c-0.3-0.2-0.7-0.8-1-1.6c0.9-0.1,1.6,0,1.9,0.2c0.3,0.2,0.7,0.8,1,1.6
					C55,139.5,54.3,139.5,54,139.3L54,139.3z"/>
				<path class="st1" d="M58.9,140.1c0.3,0.2,0.7,0.8,1,1.6c-0.9,0.1-1.6,0-1.9-0.2c-0.3-0.2-0.7-0.8-1-1.6
					C57.9,139.8,58.6,139.9,58.9,140.1L58.9,140.1z"/>
				<path class="st1" d="M55.3,137.4c0-0.3,0.3-1.1,0.8-1.7c0.5,0.7,0.9,1.3,0.9,1.6c0,0.3-0.3,1.1-0.8,1.7
					C55.7,138.4,55.4,137.8,55.3,137.4z"/>
				<path class="st1" d="M57.3,142c0,0.4-0.3,1.1-0.8,1.7c-0.5-0.7-0.9-1.3-0.9-1.6c0-0.4,0.3-1.1,0.8-1.7
					C56.9,141,57.3,141.7,57.3,142z"/>
				<path class="st1" d="M55.8,140.1c-0.2,0.9-0.5,1.5-0.8,1.7c-0.3,0.2-1,0.4-1.8,0.4c0.2-0.9,0.5-1.5,0.7-1.7
					C54.2,140.3,54.9,140.1,55.8,140.1L55.8,140.1z"/>
				<path class="st1" d="M56.8,139.4c0.2-0.9,0.5-1.5,0.8-1.7c0.3-0.2,1-0.4,1.8-0.4c-0.2,0.9-0.5,1.5-0.7,1.7
					C58.4,139.2,57.6,139.4,56.8,139.4L56.8,139.4z"/>
				<path class="st1" d="M56.8,139.8c0,0.2-0.2,0.4-0.4,0.4S56,140,56,139.8s0.2-0.4,0.4-0.4S56.8,139.6,56.8,139.8z"/>
				<path class="st1" d="M60.2,159.3c-0.4-0.2-0.9-1-1.2-1.9c1.1-0.1,2,0,2.3,0.2c0.4,0.2,0.9,1,1.2,1.9
					C61.5,159.6,60.6,159.5,60.2,159.3L60.2,159.3z"/>
				<path class="st1" d="M66.2,160.2c0.4,0.2,0.9,1,1.2,1.9c-1.1,0.1-1.9,0-2.3-0.2c-0.4-0.2-0.9-1-1.2-1.9
					C64.9,160,65.8,160,66.2,160.2z"/>
				<path class="st1" d="M61.9,157.1c0-0.4,0.3-1.3,0.9-2.1c0.7,0.8,1.1,1.6,1.1,2c0,0.4-0.3,1.3-0.9,2.1
					C62.3,158.2,61.9,157.4,61.9,157.1z"/>
				<path class="st1" d="M64.3,162.6c0,0.4-0.3,1.3-0.9,2.1c-0.7-0.8-1.1-1.6-1.1-2c0-0.4,0.3-1.3,0.9-2.1
					C63.8,161.4,64.2,162.2,64.3,162.6L64.3,162.6z"/>
				<path class="st1" d="M62.3,160.3c-0.3,1-0.6,1.8-0.9,2.1c-0.3,0.3-1.2,0.5-2.2,0.5c0.3-1,0.6-1.8,0.9-2.1
					C60.5,160.6,61.4,160.3,62.3,160.3z"/>
				<path class="st1" d="M63.7,159.5c0.3-1,0.6-1.8,0.9-2.1c0.3-0.3,1.2-0.5,2.2-0.5c-0.3,1-0.6,1.8-0.9,2.1
					C65.5,159.2,64.6,159.4,63.7,159.5z"/>
				<path class="st1" d="M63.6,159.9c0,0.2-0.2,0.4-0.5,0.4s-0.5-0.2-0.5-0.4s0.2-0.4,0.5-0.4S63.6,159.6,63.6,159.9z"/>
				<path class="st1" d="M75,157.6c-0.1-0.1-0.2-0.3-0.3-0.6c0.3,0,0.6,0,0.7,0.1c0.1,0.1,0.2,0.3,0.3,0.6
					C75.3,157.7,75.1,157.7,75,157.6L75,157.6z"/>
				<path class="st1" d="M76.7,157.9c0.1,0.1,0.2,0.3,0.3,0.6c-0.3,0-0.6,0-0.7-0.1c-0.1-0.1-0.2-0.3-0.3-0.6
					C76.3,157.8,76.6,157.8,76.7,157.9L76.7,157.9z"/>
				<path class="st1" d="M75.5,157c0-0.1,0.1-0.4,0.3-0.6c0.2,0.2,0.3,0.5,0.3,0.6c0,0.1-0.1,0.4-0.3,0.6
					C75.6,157.3,75.5,157.1,75.5,157z"/>
				<path class="st1" d="M76.2,158.5c0,0.1-0.1,0.4-0.3,0.6c-0.2-0.2-0.3-0.5-0.3-0.6s0.1-0.4,0.3-0.6
					C76,158.2,76.2,158.4,76.2,158.5L76.2,158.5z"/>
				<path class="st1" d="M75.6,157.9c-0.1,0.3-0.2,0.5-0.3,0.6c-0.1,0.1-0.4,0.1-0.6,0.1c0.1-0.3,0.2-0.5,0.3-0.6
					C75.1,158,75.3,157.9,75.6,157.9z"/>
				<path class="st1" d="M76,157.7c0.1-0.3,0.2-0.5,0.3-0.6s0.3-0.1,0.6-0.1c-0.1,0.3-0.2,0.5-0.3,0.6
					C76.5,157.6,76.3,157.7,76,157.7L76,157.7z"/>
				<path class="st1" d="M76,157.8c0,0.1-0.1,0.1-0.1,0.1c-0.1,0-0.1-0.1-0.1-0.1s0.1-0.1,0.1-0.1C75.9,157.6,76,157.7,76,157.8z"/>
				<path class="st1" d="M75.6,145.3c-0.4-0.2-0.9-1-1.2-1.9c1.1-0.1,1.9,0,2.3,0.2c0.4,0.2,0.9,1,1.2,1.9
					C76.8,145.6,76,145.5,75.6,145.3L75.6,145.3z"/>
				<path class="st1" d="M81.5,146.2c0.4,0.2,0.9,1,1.2,1.9c-1.1,0.1-1.9,0-2.3-0.2c-0.4-0.2-0.9-1-1.2-1.9
					C80.3,145.9,81.2,146,81.5,146.2L81.5,146.2z"/>
				<path class="st1" d="M77.2,143c0-0.4,0.3-1.3,0.9-2.1c0.7,0.8,1.1,1.6,1.1,2c0,0.4-0.3,1.3-0.9,2.1
					C77.7,144.2,77.3,143.4,77.2,143z"/>
				<path class="st1" d="M79.6,148.5c0,0.4-0.3,1.3-0.9,2.1c-0.7-0.8-1.1-1.6-1.1-2c0-0.4,0.3-1.3,0.9-2.1
					C79.2,147.4,79.6,148.1,79.6,148.5z"/>
				<path class="st1" d="M77.7,146.3c-0.3,1-0.6,1.8-0.9,2.1c-0.3,0.3-1.2,0.5-2.2,0.5c0.3-1,0.6-1.8,0.9-2.1
					C75.8,146.6,76.8,146.3,77.7,146.3L77.7,146.3z"/>
				<path class="st1" d="M79,145.4c0.3-1,0.6-1.8,0.9-2.1c0.3-0.3,1.2-0.5,2.2-0.5c-0.3,1-0.6,1.8-0.9,2.1
					C80.9,145.2,80,145.4,79,145.4L79,145.4z"/>
				<path class="st1" d="M78.9,145.9c0,0.2-0.2,0.4-0.4,0.4s-0.4-0.2-0.4-0.4s0.2-0.4,0.4-0.4S78.9,145.6,78.9,145.9z"/>
				<path class="st1" d="M75,171c-0.1-0.1-0.3-0.3-0.4-0.7c0.4,0,0.7,0,0.8,0.1c0.1,0.1,0.3,0.4,0.4,0.7
					C75.5,171.1,75.2,171.1,75,171z"/>
				<path class="st1" d="M77.1,171.3c0.1,0.1,0.3,0.3,0.4,0.7c-0.4,0-0.7,0-0.8-0.1c-0.1-0.1-0.3-0.3-0.4-0.7
					C76.6,171.2,76.9,171.2,77.1,171.3z"/>
				<path class="st1" d="M75.6,170.2c0-0.1,0.1-0.4,0.3-0.7c0.2,0.3,0.4,0.6,0.4,0.7c0,0.1-0.1,0.4-0.3,0.7
					C75.8,170.6,75.6,170.4,75.6,170.2L75.6,170.2z"/>
				<path class="st1" d="M76.4,172.1c0,0.1-0.1,0.4-0.3,0.7c-0.2-0.3-0.4-0.6-0.4-0.7c0-0.1,0.1-0.4,0.3-0.7
					C76.2,171.7,76.4,172,76.4,172.1L76.4,172.1z"/>
				<path class="st1" d="M75.8,171.4c-0.1,0.4-0.2,0.6-0.3,0.7c-0.1,0.1-0.4,0.2-0.8,0.2c0.1-0.4,0.2-0.6,0.3-0.7
					C75.1,171.4,75.4,171.4,75.8,171.4L75.8,171.4z"/>
				<path class="st1" d="M76.2,171.1c0.1-0.4,0.2-0.6,0.3-0.7c0.1-0.1,0.4-0.2,0.8-0.2c-0.1,0.4-0.2,0.6-0.3,0.7
					C76.8,171,76.5,171.1,76.2,171.1z"/>
				<path class="st1" d="M76.2,171.2c0,0.1-0.1,0.1-0.2,0.1c-0.1,0-0.2-0.1-0.2-0.1s0.1-0.2,0.2-0.2
					C76.1,171.1,76.2,171.1,76.2,171.2z"/>
				<path class="st1" d="M99.9,176.1c-0.4-0.2-0.9-1-1.2-1.9c1.1-0.1,1.9,0,2.3,0.2c0.4,0.2,0.9,1,1.2,1.9
					C101.1,176.4,100.3,176.3,99.9,176.1L99.9,176.1z"/>
				<path class="st1" d="M105.8,177c0.4,0.2,0.9,1,1.2,1.9c-1.1,0.1-1.9,0-2.3-0.2c-0.4-0.2-0.9-1-1.2-1.9
					C104.6,176.7,105.5,176.8,105.8,177L105.8,177z"/>
				<path class="st1" d="M101.6,173.8c0-0.4,0.3-1.3,0.9-2.1c0.7,0.8,1.1,1.6,1.1,2c0,0.4-0.3,1.3-0.9,2.1
					C102,175,101.6,174.2,101.6,173.8L101.6,173.8z"/>
				<path class="st1" d="M104,179.3c0,0.4-0.3,1.3-0.9,2.1c-0.7-0.8-1.1-1.6-1.1-2c0-0.4,0.3-1.3,0.9-2.1
					C103.5,178.2,103.9,179,104,179.3L104,179.3z"/>
				<path class="st1" d="M102,177.1c-0.3,1-0.6,1.8-0.9,2.1c-0.3,0.3-1.2,0.5-2.2,0.5c0.3-1,0.6-1.8,0.9-2.1
					C100.2,177.3,101.1,177.1,102,177.1L102,177.1z"/>
				<path class="st1" d="M103.3,176.2c0.3-1,0.6-1.8,0.9-2.1c0.3-0.3,1.2-0.5,2.2-0.5c-0.3,1-0.6,1.8-0.9,2.1
					C105.2,176,104.3,176.2,103.3,176.2L103.3,176.2z"/>
				<path class="st1" d="M103.3,176.7c0,0.2-0.2,0.4-0.4,0.4s-0.4-0.2-0.4-0.4s0.2-0.4,0.4-0.4S103.3,176.4,103.3,176.7z"/>
				<path class="st1" d="M130,156.7c-0.4-0.2-0.9-1-1.2-1.9c1.1-0.1,1.9,0,2.3,0.2c0.4,0.2,0.9,1,1.2,1.9
					C131.2,157,130.3,156.9,130,156.7L130,156.7z"/>
				<path class="st1" d="M135.9,157.6c0.4,0.2,0.9,1,1.2,1.9c-1.1,0.1-1.9,0-2.3-0.2c-0.4-0.2-0.9-1-1.2-1.9
					C134.7,157.3,135.6,157.4,135.9,157.6L135.9,157.6z"/>
				<path class="st1" d="M131.6,154.4c0-0.4,0.3-1.3,0.9-2.1c0.7,0.8,1.1,1.6,1.1,2c0,0.4-0.3,1.3-0.9,2.1
					C132.1,155.6,131.6,154.8,131.6,154.4L131.6,154.4z"/>
				<path class="st1" d="M134,159.9c0,0.4-0.3,1.3-0.9,2.1c-0.7-0.8-1.1-1.6-1.1-2c0-0.4,0.3-1.3,0.9-2.1
					C133.6,158.8,134,159.6,134,159.9z"/>
				<path class="st1" d="M132.1,157.7c-0.3,1-0.6,1.8-0.9,2.1c-0.3,0.3-1.2,0.5-2.2,0.5c0.3-1,0.6-1.8,0.9-2.1
					C130.2,157.9,131.1,157.7,132.1,157.7L132.1,157.7z"/>
				<path class="st1" d="M133.4,156.9c0.3-1,0.6-1.8,0.9-2.1c0.3-0.3,1.2-0.5,2.2-0.5c-0.3,1-0.6,1.8-0.9,2.1
					C135.3,156.6,134.4,156.8,133.4,156.9z"/>
				<path class="st1" d="M133.3,157.3c0,0.2-0.2,0.4-0.4,0.4s-0.4-0.2-0.4-0.4s0.2-0.4,0.4-0.4S133.3,157,133.3,157.3z"/>
				<path class="st1" d="M101.2,156.5c-0.2-0.1-0.4-0.4-0.5-0.9c0.5,0,0.8,0,1,0.1c0.2,0.1,0.4,0.4,0.5,0.8
					C101.8,156.6,101.4,156.6,101.2,156.5L101.2,156.5z"/>
				<path class="st1" d="M103.8,156.9c0.2,0.1,0.4,0.4,0.5,0.8c-0.5,0-0.8,0-1-0.1c-0.2-0.1-0.4-0.4-0.5-0.8
					C103.3,156.8,103.7,156.8,103.8,156.9z"/>
				<path class="st1" d="M102,155.5c0-0.2,0.2-0.6,0.4-0.9c0.3,0.4,0.5,0.7,0.5,0.9c0,0.2-0.2,0.6-0.4,0.9
					C102.2,156,102,155.7,102,155.5L102,155.5z"/>
				<path class="st1" d="M103,157.9c0,0.2-0.2,0.6-0.4,0.9c-0.3-0.4-0.5-0.7-0.5-0.9c0-0.2,0.2-0.6,0.4-0.9
					C102.8,157.4,103,157.8,103,157.9L103,157.9z"/>
				<path class="st1" d="M102.2,156.9c-0.1,0.4-0.3,0.8-0.4,0.9c-0.1,0.1-0.5,0.2-1,0.2c0.1-0.4,0.3-0.8,0.4-0.9
					C101.3,157.1,101.7,157,102.2,156.9L102.2,156.9z"/>
				<path class="st1" d="M102.8,156.6c0.1-0.4,0.3-0.8,0.4-0.9c0.1-0.1,0.6-0.2,1-0.2c-0.1,0.4-0.3,0.8-0.4,0.9
					C103.6,156.5,103.2,156.6,102.8,156.6L102.8,156.6z"/>
				<path class="st1" d="M102.7,156.8c0,0.1-0.1,0.2-0.2,0.2s-0.2-0.1-0.2-0.2s0.1-0.2,0.2-0.2S102.7,156.6,102.7,156.8z"/>
				<path class="st1" d="M105.5,132c-0.3-0.2-0.7-0.8-0.9-1.5c0.8,0,1.5,0,1.8,0.2c0.3,0.2,0.7,0.8,0.9,1.5
					C106.5,132.2,105.8,132.1,105.5,132L105.5,132z"/>
				<path class="st1" d="M110.2,132.7c0.3,0.2,0.7,0.8,0.9,1.5c-0.8,0.1-1.5,0-1.8-0.2c-0.3-0.2-0.7-0.8-0.9-1.5
					C109.3,132.4,110,132.5,110.2,132.7z"/>
				<path class="st1" d="M106.8,130.1c0-0.3,0.3-1,0.7-1.7c0.5,0.7,0.9,1.3,0.9,1.6c0,0.3-0.3,1-0.7,1.6
					C107.2,131.1,106.8,130.5,106.8,130.1z"/>
				<path class="st1" d="M108.7,134.5c0,0.3-0.3,1-0.7,1.7c-0.5-0.7-0.9-1.3-0.9-1.6c0-0.3,0.3-1,0.7-1.6
					C108.3,133.6,108.7,134.2,108.7,134.5L108.7,134.5z"/>
				<path class="st1" d="M107.2,132.8c-0.2,0.8-0.5,1.5-0.7,1.7c-0.2,0.2-1,0.4-1.8,0.4c0.2-0.8,0.5-1.5,0.7-1.7
					C105.7,132.9,106.4,132.8,107.2,132.8L107.2,132.8z"/>
				<path class="st1" d="M108.2,132.1c0.2-0.8,0.5-1.5,0.7-1.7c0.2-0.2,1-0.4,1.7-0.4c-0.2,0.8-0.5,1.5-0.7,1.7
					C109.7,131.9,109,132.1,108.2,132.1L108.2,132.1z"/>
				<path class="st1" d="M108.2,132.4c0,0.2-0.2,0.4-0.4,0.4s-0.4-0.2-0.4-0.4c0-0.2,0.2-0.4,0.4-0.4S108.2,132.2,108.2,132.4z"/>
				<path class="st1" d="M91.6,140.6c-0.2-0.1-0.5-0.6-0.7-1.2c0.6,0,1.2,0,1.4,0.1c0.2,0.1,0.5,0.6,0.7,1.2
					C92.3,140.7,91.8,140.7,91.6,140.6z"/>
				<path class="st1" d="M95.1,141.1c0.2,0.1,0.5,0.6,0.7,1.1c-0.6,0-1.2,0-1.4-0.1c-0.2-0.1-0.5-0.6-0.7-1.2
					C94.4,140.9,94.9,141,95.1,141.1L95.1,141.1z"/>
				<path class="st1" d="M92.6,139.2c0-0.3,0.2-0.8,0.5-1.2c0.4,0.5,0.7,1,0.7,1.2c0,0.3-0.2,0.8-0.6,1.2
					C92.8,139.9,92.6,139.4,92.6,139.2L92.6,139.2z"/>
				<path class="st1" d="M94,142.5c0,0.2-0.2,0.8-0.5,1.2c-0.4-0.5-0.7-1-0.7-1.2c0-0.3,0.2-0.8,0.6-1.2
					C93.7,141.8,94,142.3,94,142.5L94,142.5z"/>
				<path class="st1" d="M92.8,141.2c-0.2,0.6-0.4,1.1-0.5,1.3c-0.2,0.2-0.7,0.3-1.3,0.3c0.2-0.6,0.4-1.1,0.5-1.3
					C91.7,141.3,92.3,141.2,92.8,141.2z"/>
				<path class="st1" d="M93.6,140.7c0.2-0.6,0.4-1.1,0.5-1.3c0.2-0.2,0.7-0.3,1.3-0.3c-0.2,0.6-0.4,1.1-0.5,1.3
					C94.8,140.5,94.2,140.6,93.6,140.7z"/>
				<path class="st1" d="M93.6,140.9c0,0.1-0.1,0.3-0.3,0.3s-0.3-0.1-0.3-0.3s0.1-0.3,0.3-0.3S93.6,140.8,93.6,140.9z"/>
				<path class="st1" d="M50.1,176.4c-0.3-0.1-0.6-0.7-0.9-1.4c0.8-0.1,1.4,0,1.6,0.1c0.3,0.1,0.6,0.7,0.8,1.4
					C51,176.6,50.4,176.5,50.1,176.4L50.1,176.4z"/>
				<path class="st1" d="M54.4,177c0.3,0.1,0.6,0.7,0.9,1.4c-0.8,0.1-1.4,0-1.6-0.1c-0.3-0.2-0.6-0.7-0.8-1.4
					C53.5,176.9,54.2,176.9,54.4,177L54.4,177z"/>
				<path class="st1" d="M51.3,174.8c0-0.3,0.2-0.9,0.7-1.5c0.5,0.6,0.8,1.2,0.8,1.4c0,0.3-0.2,0.9-0.7,1.5
					C51.6,175.6,51.3,175,51.3,174.8L51.3,174.8z"/>
				<path class="st1" d="M53,178.7c0,0.3-0.2,0.9-0.7,1.5c-0.5-0.6-0.8-1.1-0.8-1.4c0-0.3,0.2-0.9,0.7-1.5
					C52.7,177.9,53,178.4,53,178.7L53,178.7z"/>
				<path class="st1" d="M51.7,177.1c-0.2,0.7-0.4,1.3-0.7,1.5c-0.2,0.2-0.9,0.4-1.6,0.4c0.2-0.8,0.4-1.3,0.7-1.5
					C50.3,177.3,51,177.1,51.7,177.1L51.7,177.1z"/>
				<path class="st1" d="M52.6,176.5c0.2-0.7,0.5-1.3,0.7-1.5c0.2-0.2,0.9-0.4,1.6-0.4c-0.2,0.7-0.4,1.3-0.7,1.5
					C53.9,176.3,53.3,176.5,52.6,176.5L52.6,176.5z"/>
				<path class="st1" d="M52.5,176.8c0,0.2-0.1,0.3-0.3,0.3s-0.3-0.1-0.3-0.3s0.2-0.3,0.3-0.3S52.5,176.6,52.5,176.8z"/>
				<path class="st1" d="M15.6,162c-0.1-0.1-0.2-0.3-0.3-0.6c0.3,0,0.6,0,0.6,0.1s0.2,0.3,0.3,0.6C16,162,15.7,162,15.6,162
					L15.6,162z"/>
				<path class="st1" d="M17.3,162.2c0.1,0.1,0.2,0.3,0.3,0.6c-0.3,0-0.5,0-0.6-0.1c-0.1-0.1-0.2-0.3-0.3-0.6
					C17,162.1,17.2,162.2,17.3,162.2z"/>
				<path class="st1" d="M16.1,161.3c0-0.1,0.1-0.4,0.3-0.6c0.2,0.2,0.3,0.5,0.3,0.6c0,0.1-0.1,0.4-0.3,0.6
					C16.2,161.6,16.1,161.4,16.1,161.3L16.1,161.3z"/>
				<path class="st1" d="M16.8,162.9c0,0.1-0.1,0.4-0.3,0.6c-0.2-0.2-0.3-0.4-0.3-0.6c0-0.1,0.1-0.4,0.2-0.6
					C16.6,162.6,16.8,162.8,16.8,162.9z"/>
				<path class="st1" d="M16.2,162.2c-0.1,0.3-0.2,0.5-0.3,0.6c-0.1,0.1-0.4,0.1-0.6,0.1c0.1-0.3,0.2-0.5,0.3-0.6
					C15.7,162.3,16,162.2,16.2,162.2z"/>
				<path class="st1" d="M16.6,162c0.1-0.3,0.2-0.5,0.2-0.6c0.1-0.1,0.4-0.1,0.6-0.1c-0.1,0.3-0.2,0.5-0.2,0.6
					C17.1,161.9,16.9,162,16.6,162z"/>
				<path class="st1" d="M16.6,162.1c0,0.1-0.1,0.1-0.1,0.1s-0.1-0.1-0.1-0.1s0.1-0.1,0.1-0.1C16.5,162,16.6,162,16.6,162.1z"/>
				<path class="st1" d="M15.2,170.8c-0.4-0.2-0.9-1-1.2-1.9c1.1-0.1,1.9,0,2.3,0.2c0.4,0.2,0.9,1,1.2,1.9
					C16.4,171.1,15.5,171,15.2,170.8L15.2,170.8z"/>
				<path class="st1" d="M21.1,171.7c0.4,0.2,0.9,1,1.2,1.9c-1.1,0.1-1.9,0-2.3-0.2c-0.4-0.2-0.9-1-1.2-1.9
					C19.9,171.4,20.8,171.5,21.1,171.7L21.1,171.7z"/>
				<path class="st1" d="M16.8,168.5c0-0.4,0.3-1.3,0.9-2.1c0.7,0.8,1.1,1.6,1.1,2c0,0.4-0.3,1.3-0.9,2.1
					C17.3,169.7,16.8,168.9,16.8,168.5z"/>
				<path class="st1" d="M19.2,174c0,0.4-0.3,1.3-0.9,2.1c-0.6-0.8-1.1-1.6-1.1-2c0-0.4,0.3-1.3,0.9-2.1
					C18.7,172.9,19.2,173.6,19.2,174z"/>
				<path class="st1" d="M17.3,171.8c-0.3,1-0.6,1.8-0.9,2.1c-0.3,0.3-1.2,0.5-2.2,0.5c0.3-1,0.6-1.8,0.9-2.1
					C15.4,172.1,16.3,171.8,17.3,171.8L17.3,171.8z"/>
				<path class="st1" d="M18.6,170.9c0.3-1,0.6-1.8,0.9-2.1c0.3-0.3,1.2-0.5,2.2-0.5c-0.3,1-0.6,1.8-0.9,2.1
					C20.5,170.7,19.6,170.9,18.6,170.9z"/>
				<path class="st1" d="M18.5,171.4c0,0.2-0.2,0.5-0.5,0.5s-0.4-0.2-0.4-0.5s0.2-0.4,0.4-0.4S18.5,171.1,18.5,171.4z"/>
				<path class="st1" d="M41.6,156.9c-0.2-0.1-0.4-0.5-0.6-0.9c0.5,0,0.9,0,1.1,0.1c0.2,0.1,0.4,0.5,0.6,0.9
					C42.2,157,41.8,157,41.6,156.9z"/>
				<path class="st1" d="M44.4,157.3c0.2,0.1,0.4,0.5,0.6,0.9c-0.5,0-0.9,0-1.1-0.1c-0.2-0.1-0.4-0.5-0.6-0.9
					C43.8,157.2,44.3,157.2,44.4,157.3z"/>
				<path class="st1" d="M42.4,155.8c0-0.2,0.2-0.6,0.4-1c0.3,0.4,0.5,0.8,0.5,0.9c0,0.2-0.2,0.6-0.4,1
					C42.6,156.4,42.4,156,42.4,155.8L42.4,155.8z"/>
				<path class="st1" d="M43.5,158.5c0,0.2-0.2,0.6-0.4,1c-0.3-0.4-0.5-0.8-0.5-0.9c0-0.2,0.2-0.6,0.4-1
					C43.3,157.9,43.5,158.3,43.5,158.5L43.5,158.5z"/>
				<path class="st1" d="M42.6,157.4c-0.1,0.5-0.3,0.9-0.4,1c-0.2,0.1-0.6,0.2-1.1,0.2c0.1-0.5,0.3-0.9,0.4-1
					C41.7,157.5,42.2,157.4,42.6,157.4L42.6,157.4z"/>
				<path class="st1" d="M43.2,157c0.1-0.5,0.3-0.9,0.4-1c0.2-0.1,0.6-0.2,1.1-0.3c-0.1,0.5-0.3,0.9-0.4,1
					C44.1,156.9,43.7,157,43.2,157L43.2,157z"/>
				<path class="st1" d="M43.2,157.2c0,0.1-0.1,0.2-0.2,0.2c-0.1,0-0.2-0.1-0.2-0.2s0.1-0.2,0.2-0.2C43.1,157,43.2,157.1,43.2,157.2
					z"/>
			</g>
			<path class="st1" d="M216.6,172.2c-0.9,0-5-0.1-5-0.1l-1.7-0.4l-1-1c0,0-0.6-0.7-0.7-1.1c-0.1-0.4-1.9-1-1.9-1l-1.4-0.7l-2.9-3.4
				l-1.1-0.4c0,0-1-0.7-1.1-1.4c-0.1-0.7-7.6-25.9-7.8-27.1s-0.1-4.4,0-6.3c0.1-1.9-0.7-2.7-1.1-4c-0.4-1.3-5.1-10.8-7.6-15.8
				c-2.4-5-9.3-16.1-9.3-16.1l-0.1-1.1l0.1-3.1v-1.3l0.1-3.3c0,0,0.4-1.4,1-2.6c0.6-1.1-0.1-5.6-0.1-5.6s2.7,0.7,3.9,0.4
				c1.1-0.3,6.1-0.1,10.8-1c4.7-0.9,6.7-1.6,6.7-1.6l2.3-0.2c0,0,2.4-0.1,3.3-0.3c0.9-0.2,3.6-2,3.6-2l1-0.7l0.9-1.3
				c0,0,0-0.8-0.3-1.3c-0.3-0.4-0.7-1.4-0.7-1.4l-0.4-1.3c0,0-1.1-1.8-1.7-2.1s-2.7,0.3-2.7,0.3s-0.9-0.1-1.9,0.3
				c-1,0.4-2.6,4.4-2.6,4.4s-11.1,0.7-12.7,0.7s-8.7-2.4-8.7-2.4l0.1-5.3c0,0,2.7-1.9,3.7-2.8c1.6-1.4,0.6-2.1,0.1-3.7
				c-0.4-1.6-2.7-4-3.7-5.7c-1-1.7-3.4-8.8-3.4-8.8s-0.4-0.9-1-1.4c-0.6-0.6,0.7-2.7,0.7-2.7s1.6-3.3,2.3-3.4
				c0.7-0.1,4.3-0.3,5.3-0.7c1-0.4,0.4-2.1,0.4-2.1l0.4-0.6l-0.1-1.1l0.3-0.9L181,26c0,0,0.7-0.1,0.9-1s-1.9-3.1-1.9-3.7v-2.1
				c0,0-0.6-2.1-2.1-4.6c-1.6-2.4-4.1-3.1-9-3.9c-4.9-0.7-6.6,2.7-7.1,3.1c-0.6,0.4-2.1-1.3-3.1-1.7c-1-0.4-1.3-0.1-3,0.7
				c-1.7,0.9-0.7,1.4-1.7,7c-1,5.6,4.3,9.3,4.3,9.3l0.7-1.1l-0.1-1.1v-1.6l1-0.3l-0.9-3.6l0.9-0.1c0,0-0.3-2.1-0.3-3.1
				c0-1-0.1-2-0.1-2l1.4-0.6c0,0,0,1.1-0.1,2c-0.1,0.9-0.4,3.7-0.3,4.4c0.1,0.7,0.7,1.1,0.7,3.3s2.3,4.4,2.3,4.4v2.9
				c0,0.8-1.6,3.3-2.3,4.7c-0.7,1.4-2.1,2-2.1,2l-1.4,1.3c0,0-0.6,2.7-1.7,5.4c-1.1,2.7-0.7,8.8-0.7,8.8l-6,9.8c0,0-1.3,2.1-2.3,5.6
				c-1,3.4-3,20-3,20s-0.4,2.4-1.1,4.4c-0.7,2-0.4,5.3-0.4,5.3l0.3,1.4l1.3,1l1.4,1l1.1-0.2l0.4,4.6v2.3l-0.4,3.6
				c0,0-1.6,4.8-1.9,5.3c-0.3,0.4-1.1,3.3-1.1,3.3l-3.1,9.7c0,0-3.3,9.3-3.8,11.3s-4.7,13.7-7.1,18.7c-2.4,5-4.3,11.8-4.3,12.8
				s2.8,1.9,2.8,1.9l-0.7,3.6c0,0-0.8,1.6-0.7,2.3c0.1,0.7,5.7,2.3,6.3,2.3c0.6,0,2.3-1.3,2.3-1.3l2.9,1.9l13-0.1
				c0,0,0.4-0.6,1.1-0.6s0.6-1.7,0.6-2.4s-1.4-0.9-2.1-1.1c-0.7-0.3-5.3-2.3-5.3-2.3s0.1-21.2,0.3-22.5c0.1-1.3,0.9-4.7,2.1-5.7
				s4.3-3.1,4.3-3.1l1.9-4.4c0,0,1-2.6,2.6-5c1.6-2.4,1.9-7.7,1.9-9c0-1.3,6-14.2,6-14.2s11,13.4,12.1,16c1.1,2.6,1.3,7,3.1,13.1
				s8.4,16.4,8.4,16.4v3.4c0,1.6,1.9,8.7,1.9,8.7l1,0.3h1l0.9,1.1l0.6,1.4l0.9,6.9l8-1.1l1.9-1.4c0,0,2.7,0.4,5,0.3
				c2.3-0.1,8.7-4,8.7-4s0.7-0.9,0.7-1.9S217.5,172.1,216.6,172.2L216.6,172.2L216.6,172.2z M155.6,73.8L155.6,73.8
				c-0.7,1.6-1.7,4-1.7,4l-1,1.6c0,0-0.3,0.6-0.6,1.1c-0.3,0.6-2.3,4.1-2.3,4.1s3.3-9.3,3.4-10.8c0.1-1.6,0.7-3.9,1-4.7
				c0.3-0.8,2.1-2.8,2.1-2.8S156.3,72.2,155.6,73.8L155.6,73.8z"/>
			<path class="st3" d="M217.9,171.7c-0.9,0-5-0.1-5-0.1l-1.7-0.4l-1-1c0,0-0.6-0.7-0.7-1.1c-0.1-0.4-1.9-1-1.9-1l-1.4-0.7l-2.9-3.4
				l-1.1-0.4c0,0-1-0.7-1.1-1.4c-0.1-0.7-7.6-25.9-7.8-27.1s-0.1-4.4,0-6.3c0.1-1.9-0.7-2.7-1.1-4c-0.4-1.3-5.1-10.8-7.6-15.8
				c-2.4-5-9.3-16.1-9.3-16.1l-0.1-1.1l0.1-3.1v-1.3l0.1-3.3c0,0,0.4-1.4,1-2.6s-0.1-5.6-0.1-5.6s2.7,0.7,3.9,0.4s6.1-0.1,10.8-1
				c4.7-0.8,6.7-1.6,6.7-1.6l2.3-0.2c0,0,2.4-0.1,3.3-0.3c0.9-0.1,3.6-2,3.6-2l1-0.7l0.9-1.3c0,0,0-0.9-0.3-1.3s-0.7-1.4-0.7-1.4
				l-0.4-1.3c0,0-1.1-1.9-1.7-2.1c-0.6-0.3-2.7,0.3-2.7,0.3s-0.9-0.1-1.9,0.3c-1,0.4-2.6,4.4-2.6,4.4s-11.1,0.7-12.7,0.7
				s-8.7-2.4-8.7-2.4l0.1-5.3c0,0,2.7-1.9,3.7-2.8c1.6-1.4,0.6-2.1,0.1-3.7c-0.4-1.6-2.7-4-3.7-5.7c-1-1.7-3.4-8.8-3.4-8.8
				s-0.4-0.8-1-1.4c-0.6-0.6,0.7-2.7,0.7-2.7s1.6-3.3,2.3-3.4c0.7-0.2,4.3-0.3,5.3-0.7c1-0.4,0.4-2.1,0.4-2.1L182,29l-0.1-1.1
				l0.3-0.9l0.1-1.4c0,0,0.7-0.1,0.9-1c0.1-0.9-1.9-3.1-1.9-3.7v-2.1c0,0-0.6-2.1-2.1-4.6c-1.6-2.4-4.1-3.1-9-3.9
				c-4.8-0.7-6.6,2.7-7.1,3.1c-0.6,0.4-2.1-1.3-3.1-1.7c-1-0.4-1.3-0.2-3,0.7c-1.7,0.9-0.7,1.4-1.7,7c-1,5.6,4.3,9.3,4.3,9.3
				l0.7-1.1l-0.1-1.1v-1.6l1-0.3l-0.9-3.6l0.9-0.1c0,0-0.3-2.1-0.3-3.1s-0.1-2-0.1-2l1.4-0.6c0,0,0,1.1-0.1,2
				c-0.1,0.9-0.4,3.7-0.3,4.4c0.1,0.7,0.7,1.1,0.7,3.3s2.3,4.4,2.3,4.4v2.8c0,0.9-1.6,3.3-2.3,4.7c-0.7,1.4-2.1,2-2.1,2l-1.4,1.3
				c0,0-0.6,2.7-1.7,5.4c-1.1,2.7-0.7,8.8-0.7,8.8l-6,9.8c0,0-1.3,2.1-2.3,5.6c-1,3.4-3,20-3,20s-0.4,2.4-1.1,4.4s-0.4,5.3-0.4,5.3
				l0.3,1.4l1.3,1l1.4,1l1.1-0.1l0.4,4.6v2.3l-0.4,3.6c0,0-1.6,4.8-1.9,5.3c-0.3,0.4-1.1,3.3-1.1,3.3l-3.1,9.7c0,0-3.3,9.3-3.9,11.3
				c-0.6,2-4.7,13.7-7.1,18.7c-2.4,5-4.3,11.8-4.3,12.8s2.8,1.9,2.8,1.9l-0.7,3.6c0,0-0.9,1.6-0.7,2.3c0.1,0.7,5.7,2.3,6.3,2.3
				s2.3-1.3,2.3-1.3l2.9,1.9l13-0.1c0,0,0.4-0.6,1.1-0.6s0.6-1.7,0.6-2.4s-1.4-0.9-2.1-1.1s-5.3-2.3-5.3-2.3s0.1-21.2,0.3-22.5
				s0.9-4.7,2.1-5.7c1.3-1,4.3-3.1,4.3-3.1l1.9-4.4c0,0,1-2.6,2.6-5c1.6-2.4,1.9-7.7,1.9-9c0-1.3,6-14.3,6-14.3s11,13.4,12.1,16
				c1.1,2.6,1.3,7,3.1,13.1c1.9,6.1,8.4,16.4,8.4,16.4v3.4c0,1.6,1.9,8.7,1.9,8.7l1,0.3h1l0.9,1.1l0.6,1.4l0.9,6.8l8-1.1l1.9-1.4
				c0,0,2.7,0.4,5,0.3c2.3-0.1,8.7-4,8.7-4s0.7-0.9,0.7-1.9S218.7,171.7,217.9,171.7L217.9,171.7L217.9,171.7z M156.9,73.3
				L156.9,73.3c-0.7,1.6-1.7,4-1.7,4l-1,1.6c0,0-0.3,0.6-0.6,1.1c-0.3,0.6-2.3,4.1-2.3,4.1s3.3-9.3,3.4-10.8c0.1-1.6,0.7-3.8,1-4.7
				c0.3-0.9,2.1-2.9,2.1-2.9S157.6,71.7,156.9,73.3L156.9,73.3z"/>
			<path class="st1" d="M218.1,171.5c-1.7,0-3.7,0.2-5.4-0.2c-1.8-0.4-2.2-1.8-3.5-2.9c-2.4-2-6.1-3.7-7.9-6.5
				c-1.3-2.1-1.7-5.8-2.4-8.2c-1.4-4.9-2.8-9.7-4.2-14.5c-1-3.3-1.5-5.9-1.3-9.4c0.2-5-3.3-10.2-5.4-14.6c-2.4-5-4.9-9.8-7.6-14.6
				c-1.6-2.7-5.1-6.4-4.9-9.7c0.2-3.8,0.6-6.8,1.4-10.6c0.2-0.7,0.1-4.3-0.5-4.4c1.9,0.5,3.5,0.3,5.4,0.2c5.3-0.3,10.6-0.8,15.7-2.4
				c2.1-0.6,4.6,0.3,6.6-0.8c1-0.5,5-2.3,4.9-3.9c-0.2-2.1-1.8-6.1-4.2-6.2c-0.8,0-3.4,0.3-4.1,0.8c-1.1,0.8-1.7,2.3-2.2,3.5
				c-0.7,1.4-2.4,1-4.4,1.1c-3.5,0.2-7.2,0.8-10.6-0.1c-1.8-0.5-3.6-1.1-5.4-1.7c-1.2-0.4-0.6-2.3-0.6-3.4c0.1-3.1,2.3-2.6,3.8-4.9
				c2.3-3.5-2.4-7.1-3.9-10.1c-1.8-3.4-7.2-15,0.3-15.7c5.1-0.5,3.6-1.4,4.9-5.4c0.4-1,1.1-2.3,0.8-3.3c-0.6-2.1-1.6-2.6-1.6-5
				c0-1.3-1.4-3.7-2.2-4.6c-3.1-4-10.4-5.3-14.7-2.6c-0.7,0.4-1.2,1.1-1.7,1.7c-0.1,0.1-2.9-1.7-3.7-1.8c-0.9-0.1-2.6,0.8-3.2,1.4
				c-1.6,1.8-1.2,6.1-1.4,8.4c-0.2,2.9,2.2,6,4.4,7.7c0.2,0.1,0.6,0,0.7-0.2c0.6-1,0.3-3.7,1.2-4c0.1,0,0.3-0.1,0.3-0.2
				c-0.2-0.8-1.3-3.3-0.4-3.5c0.1,0,0.4-0.1,0.4-0.2c-0.1-1-0.2-2.1-0.3-3.1c0,0,0.6-3,0.6-1.7c-0.1,2.1-0.9,4.4-0.2,6.4
				c0.8,2.2,0.4,4.2,2,6.1c2.3,2.8-0.7,8.9-3.5,10.3c-2.8,1.4-3.4,6.7-3.9,9.3c-0.3,2-0.2,4.1-0.1,6.1c0.1,1.3-2,3.6-2.7,4.7
				c-1.8,3-3.7,5.8-4.9,9.1c-1.9,4.7-2.1,10.2-2.8,15.1c-0.4,3.2-0.7,6.5-1.5,9.7c-0.8,3.1-2.2,7.1,0.7,9.3c2.2,1.7,2.5,0.8,2.9,4.2
				c0.3,3.5-0.2,6.7-1.3,10c-2.1,6.1-4.1,12.3-6.2,18.4c-3.3,9.5-6.3,19.1-10.6,28.3c-0.6,1.4-5.1,10.8-3.1,12.1
				c1.9,1.2,2.4,1,1.9,3.4c-0.1,0.6-1.3,3.2-0.9,3.6c1.2,1.2,4.9,2.6,6.5,2.3c0.8-0.1,1.5-0.6,2.2-1.1c0.6-0.4,2.1,1.6,2.8,1.6
				c4.6,0.3,10.2,0.7,14.5-0.8c2.6-0.9-0.1-3.4-1.4-3.8c-5.1-1.6-5.2-2.1-5.2-6.8c0-4.6,0.1-9.1,0.1-13.7c0.1-5.8,1.1-9.2,6.1-12.8
				c1.7-1.2,2.8-6,3.8-7.9c2.4-4.7,2.2-9.3,4-14c1.5-3.7,3.1-7.3,4.8-10.9c-0.6,1.3,5.2,7.3,6.6,9.1c3.2,4.1,5.2,7,6.2,12.1
				c1.4,7.2,3.8,13.3,7.4,19.6c0.9,1.6,1.8,3.1,2.8,4.6c0.7,1.1,0.1,3.7,0.3,5.1c0.3,1.6,0.4,7.5,2.8,7.5c3.2,0,2.9,7.4,3.1,9.4
				c0,0.1,0.2,0.1,0.3,0c2.7-0.4,5.3-0.8,8-1.1c0.6-0.1,1.3-0.9,1.7-1.2c1-0.8,3.9,0.3,5.1,0C211.7,178.9,224,173.8,218.1,171.5
				c-0.1,0-0.7,0.2-0.5,0.3c4.8,1.9-3.2,5.4-3.9,5.8c-3.2,1.6-5.7,0.6-8.8,1.1c-0.6,0.1-1.3,0.8-1.7,1.2c-1.3,1-4.2,0.8-5.7,1.1
				c-2.1,0.3-2.1,0.7-2.3-1.4c-0.2-1.9-0.2-4-0.9-5.8c-0.4-0.9-0.7-1.9-1.8-1.9c-2.3,0-2.2-3.5-2.6-5.2c-0.5-2.3-0.7-4.3-0.7-6.6
				c0-1.4-1.5-3-2.2-4.1c-3.9-6.6-6.6-13.1-8.1-20.7c-1.6-8.4-8.1-14.8-13.4-21.2c-0.1-0.1-0.6,0.1-0.7,0.2c-2,4.4-5.2,9.4-6,14.3
				c-1,6.2-2.9,15.9-8.4,19.9c-4.5,3.2-4.3,7.6-4.4,12.7c-0.1,5.7-0.1,11.5-0.2,17.2c0,0,0,0,0,0c1.8,0.8,3.5,1.6,5.3,2.3
				c4.6,1.9,1,3.9-0.9,3.9c-5,0.1-9.6,1-13.8-1.7c-0.2-0.1-0.5,0-0.6,0.1c-2.4,1.8-5.2,0.5-7.7-0.8c-0.5-0.2,1.1-5.6,1.1-6.1
				c0-0.1,0-0.1-0.1-0.1c-4.9-1.7-1.2-7.9,0.1-11.4c1.7-4.6,3.9-9,5.6-13.6c2.4-6.4,4.4-12.9,6.7-19.3c3.4-9.6,7.2-18.6,6.2-28.9
				c0-0.1-0.2-0.1-0.3-0.1c-7.2,0.9-2.1-14.4-1.6-18.5c1.2-9.1,2.5-16.6,7.3-24.4c1.6-2.7,3.3-4.4,3.2-7.5c-0.1-5,0.9-11.1,5.1-14.2
				c1.4-1,4.9-7.1,3.2-8.8c-3.7-4-2.7-9.2-2.6-14.1c0-0.1-0.4,0-0.5,0c-0.5,0.2-0.9,0.4-1.4,0.6c-0.1,0-0.2,0.1-0.2,0.2
				c0.1,0.9,0.8,4.9,0,5c-0.1,0-0.4,0.1-0.4,0.2c0.2,1,1.4,3.3,0.2,3.6c-0.1,0-0.3,0.1-0.3,0.2c0,1.5,0.8,4.3-1,2.7
				c-3.3-3-3.3-6.1-2.9-10.1c0.1-1.3,0.2-2.7,0.4-4c0.6-3.8,5.1-0.2,6.5,0.1c0.2,0,0.4,0,0.6-0.1c3.6-2.3,7.4-3.1,11.7-2
				c3.3,0.9,6,4.8,6,8.2c0,1.9,2.6,4.3,1,5.9c-0.4,0.4-0.5,2.2-0.4,2.9c0.4,3.2-4.4,2.6-6,3.9c-1.2,1-1.8,2.5-2.5,3.8
				c-1.2,2.2-0.2,1.9,0.5,4c0.8,2.4,1.7,4.7,2.6,7.1c1.1,2.7,3.3,4.6,4.4,7.3c1.7,3.8-2.8,4.2-3.9,6.5c-0.6,1.3-0.1,3.9-0.1,5.3
				c0,0,0,0,0.1,0.1c7.7,2.6,13.5,2.2,21.5,1.7c0.1,0,0.4-0.1,0.5-0.2c1.2-2.9,5-7.5,8.1-2.7c2.4,3.7,0.1,7.3-4.4,7.9
				c-8.3,1-17.6,4.5-25.9,2.5c-0.1,0-0.7,0-0.6,0.2c0.7,4.4-1,8.3-1,12.7c0,1.5-0.6,3.4,0.3,4.7c1.6,2.5,3.1,5.1,4.6,7.6
				c3.6,6.1,6.6,12.4,9.6,18.7c1.2,2.5,2.4,5,3.4,7.6c1,2.4-0.5,5.7,0.3,8.3c2.5,8.9,5.5,17.7,7.7,26.6c0.4,1.5,2.2,1.8,3,2.8
				c1.6,1.9,2.6,2.8,4.9,3.8c1.6,0.7,1.6,2.4,3.6,2.9c1.7,0.4,3.7,0.2,5.5,0.3C217.8,171.8,218.5,171.5,218.1,171.5L218.1,171.5z"/>
			<path class="st1" d="M156.6,73.4c-1.2,2.8-2.5,5.4-4,8c-0.4,0.8-0.9,1.6-1.3,2.3c-0.4,0.8,0.4,0.3,0.6-0.2
				c0.5-1.6,1.1-3.1,1.6-4.7c1.1-3.4,1.6-6.9,2.6-10.3c0.3-1,1.3-1.9,2-2.7c-0.5,0.6-0.5,0.2-0.6,1.4
				C157.3,69.3,157.2,71.4,156.6,73.4c-0.1,0.2,0.6,0.1,0.7-0.1c0.9-2.4,0.9-5.1,1-7.6c0-0.2-0.6,0-0.7,0.1
				c-2.6,2.8-2.6,5.7-3.5,9.2c-0.9,3.1-2,6.2-3,9.2c-0.1,0.2,0.6,0,0.7-0.1c2-3.6,3.9-7.1,5.6-10.8
				C157.3,73.1,156.6,73.2,156.6,73.4L156.6,73.4z"/>
		</g>
		<g>
			<rect x="301.8" y="99.6" class="st4" width="375.8" height="1.4"/>
			<rect x="301.8" y="146.5" class="st4" width="375.8" height="1.4"/>
			<path class="st5" d="M318,96.3c-3.7,2-8.4,2.9-13.9,2.9c-7.2,0-12.9-2.3-17.2-6.9c-4.3-4.6-6.5-10.7-6.5-18.2
				c0-8.1,2.4-14.6,7.3-19.5c4.9-5,11-7.5,18.4-7.5c4.8,0,8.7,0.7,11.9,2.1v6.3c-3.6-2-7.6-3-11.9-3c-5.8,0-10.5,1.9-14.1,5.8
				c-3.6,3.9-5.4,9-5.4,15.5s1.7,11,5,14.7c3.4,3.6,7.8,5.5,13.2,5.5c5,0,9.4-1.1,13.1-3.4L318,96.3L318,96.3L318,96.3z M367.3,98.4
				h-6.5l-5.3-14.1H334l-5,14.1h-6.5L341.8,48h6.1L367.3,98.4L367.3,98.4z M353.5,79l-7.9-21.5c-0.3-0.7-0.5-1.8-0.8-3.3h-0.2
				c-0.2,1.4-0.5,2.5-0.8,3.4L336,79H353.5L353.5,79z M426,98.4h-5.9V64.6c0-2.7,0.2-5.9,0.5-9.8h-0.1c-0.6,2.3-1.1,3.9-1.5,4.9
				l-17.2,38.7h-2.9L381.7,60c-0.5-1.1-1-2.8-1.5-5.2h-0.1c0.2,2,0.3,5.3,0.3,9.9v33.7h-5.7V48h7.8l15.5,35.1c1.2,2.7,2,4.7,2.3,6
				h0.2c1-2.8,1.8-4.8,2.4-6.2l15.8-35h7.4L426,98.4L426,98.4L426,98.4z M450.1,48v5h-4.9v40.3h4.9v5h-15.7v-5h4.9V53.1h-4.9v-5
				H450.1z M499,98.4h-7.2l-25.9-40.2c-0.7-1-1.2-2.1-1.6-3.2h-0.2c0.2,1.1,0.3,3.4,0.3,6.9v36.4h-5.9V48h7.6l25.2,39.5
				c1.1,1.6,1.7,2.8,2,3.4h0.1c-0.2-1.4-0.4-3.9-0.4-7.4V48h5.9L499,98.4L499,98.4L499,98.4z M550.1,98.4h-5.9V75.4h-26v22.9h-5.9
				V48h5.9v22.1h26V48h5.9V98.4L550.1,98.4z M602.3,98.4h-6.5l-5.3-14.1h-21.4l-5,14.1h-6.5L576.8,48h6.1L602.3,98.4L602.3,98.4
				L602.3,98.4z M588.6,79l-7.9-21.5c-0.3-0.7-0.5-1.8-0.8-3.3h-0.2c-0.2,1.4-0.5,2.5-0.8,3.4L571,79H588.6L588.6,79z M609.8,98.4
				V48h13.9c17.7,0,26.6,8.2,26.6,24.5c0,7.8-2.5,14-7.4,18.7c-4.9,4.7-11.5,7.1-19.8,7.1H609.8z M615.7,53.3v39.7h7.5
				c6.6,0,11.7-1.8,15.4-5.3c3.7-3.5,5.5-8.6,5.5-15c0-12.9-6.9-19.4-20.6-19.4H615.7z M699.2,98.4h-6.5l-5.3-14.1H666l-5,14.1h-6.5
				L673.7,48h6.1L699.2,98.4L699.2,98.4L699.2,98.4z M685.4,79l-7.9-21.5c-0.3-0.7-0.5-1.8-0.8-3.3h-0.2c-0.2,1.4-0.5,2.5-0.8,3.4
				L667.9,79H685.4L685.4,79z"/>
			<path class="st5" d="M282.1,144.8v-33.9h9.4c12,0,17.9,5.5,17.9,16.5c0,5.2-1.7,9.4-5,12.6c-3.3,3.2-7.8,4.8-13.3,4.8H282.1
				L282.1,144.8z M286.1,114.5v26.8h5.1c4.4,0,7.9-1.2,10.4-3.6c2.5-2.4,3.7-5.8,3.7-10.1c0-8.7-4.6-13.1-13.9-13.1H286.1z
				 M342.4,144.8H338l-3.6-9.5H320l-3.4,9.5h-4.4l13-33.9h4.1L342.4,144.8L342.4,144.8L342.4,144.8z M333.1,131.7l-5.3-14.5
				c-0.2-0.5-0.4-1.2-0.5-2.2h-0.1c-0.2,0.9-0.4,1.7-0.6,2.3l-5.3,14.4H333.1L333.1,131.7z M395.3,144.8h-4v-22.8
				c0-1.8,0.1-4,0.4-6.6h-0.1c-0.4,1.5-0.7,2.6-1,3.3L379,144.8H377l-11.6-25.9c-0.3-0.8-0.7-1.9-1-3.5h-0.1
				c0.1,1.4,0.2,3.6,0.2,6.7v22.7h-3.8v-33.9h5.2l10.4,23.7c0.8,1.8,1.3,3.2,1.6,4.1h0.1c0.7-1.9,1.2-3.3,1.6-4.2l10.6-23.6h5
				L395.3,144.8L395.3,144.8L395.3,144.8z M430.5,144.8h-4.4l-3.6-9.5h-14.4l-3.4,9.5h-4.4l13-33.9h4.1L430.5,144.8L430.5,144.8
				L430.5,144.8z M421.2,131.7l-5.3-14.5c-0.2-0.5-0.4-1.2-0.5-2.2h-0.1c-0.2,0.9-0.4,1.7-0.6,2.3l-5.3,14.4H421.2L421.2,131.7z
				 M422.9,102.2c0,1.7-0.4,3-1.1,4.1c-0.8,1-1.8,1.6-3.1,1.6c-1.1,0-2.4-0.4-3.8-1.2c-1.2-0.7-2.2-1-2.8-1c-1.4,0-2.1,0.9-2.1,2.7
				h-2.2c0-1.7,0.4-3,1.1-4.1c0.8-1,1.8-1.5,3.2-1.5c1,0,2.2,0.4,3.5,1.2c1.2,0.7,2.2,1,3,1c1.3,0,2-0.9,2-2.7L422.9,102.2
				L422.9,102.2z M453.5,144.8h-18v-33.9h17.2v3.6h-13.2v11.3h12.3v3.6h-12.3v11.9h14V144.8L453.5,144.8L453.5,144.8z M477.3,132
				v12.8h-4v-33.9h9.3c3.6,0,6.4,0.9,8.4,2.7c2,1.8,3,4.2,3,7.5s-1.1,5.8-3.3,7.9c-2.2,2-5.2,3.1-9,3.1H477.3L477.3,132z
				 M477.3,114.5v13.9h4.2c2.8,0,4.8-0.6,6.3-1.9c1.5-1.2,2.2-3,2.2-5.3c0-4.5-2.6-6.7-7.9-6.7H477.3L477.3,114.5z M514.1,145.4
				c-4.8,0-8.7-1.6-11.5-4.8c-2.9-3.2-4.4-7.3-4.4-12.4c0-5.5,1.5-9.8,4.4-13.1c3-3.3,7-4.9,12-4.9c4.7,0,8.5,1.6,11.3,4.7
				c2.9,3.2,4.3,7.3,4.3,12.4c0,5.5-1.5,9.9-4.4,13.2C523,143.8,519,145.4,514.1,145.4L514.1,145.4L514.1,145.4z M514.4,113.9
				c-3.6,0-6.5,1.3-8.7,3.9c-2.2,2.6-3.3,5.9-3.3,10.1s1.1,7.5,3.3,10.1c2.2,2.6,5,3.8,8.5,3.8c3.7,0,6.7-1.2,8.8-3.6
				c2.1-2.4,3.2-5.8,3.2-10.2s-1-7.9-3.1-10.4C520.9,115.1,518.1,113.9,514.4,113.9L514.4,113.9L514.4,113.9z M557.1,114.5h-9.8
				v30.3h-4v-30.3h-9.8v-3.6h23.6L557.1,114.5L557.1,114.5L557.1,114.5z M559.1,144.8v-3.4h3.3v-27.2h-3.3v-3.4h10.6v3.4h-3.3v27.2
				h3.3v3.4H559.1z M600.7,142.5c-12.4,7-27.6,1.4-27.6-14.2c0-14.4,14.6-22.1,26.9-16.2v4.4c-10-6.3-22.7-1.3-22.7,11.5
				c0,11.9,10.6,17,19.4,12.2v-9.5h-7.4v-3.6h11.4L600.7,142.5L600.7,142.5L600.7,142.5z M633.4,131.1c0,9.5-4.3,14.3-12.9,14.3
				s-12.3-4.6-12.3-13.8v-20.8h4v20.5c0,7,2.9,10.4,8.8,10.4s8.5-3.4,8.5-10.1v-20.8h4L633.4,131.1L633.4,131.1L633.4,131.1z
				 M668.1,144.8h-4.4l-3.6-9.5h-14.4l-3.4,9.5h-4.4l13-33.9h4.1L668.1,144.8L668.1,144.8L668.1,144.8z M658.8,131.7
				c-1.8-5-5-11.7-5.9-16.7h-0.1c-0.8,4.8-4.1,11.9-5.8,16.7H658.8L658.8,131.7z M697.5,144.8h-4.8c-7.5-12.5-6.4-14.4-15.6-14.4
				v14.4h-4v-33.9c7.3,0,20.5-1.9,20.5,9c0,4.7-3.1,8-7.5,9.1v0.1C690,130.9,695.7,141.9,697.5,144.8L697.5,144.8L697.5,144.8z
				 M677.1,114.5v12.3c5.1,0,12.3,0.5,12.3-6.5C689.4,113.6,681.9,114.5,677.1,114.5L677.1,114.5z"/>
		</g>
	</g>
</g>
</svg>
