<?xml version="1.0" encoding="utf-8"?>
<!-- Generator: Adobe Illustrator 28.3.0, SVG Export Plug-In . SVG Version: 6.00 Build 0)  -->
<svg version="1.1" id="Camada_2_00000039854204560900472210000001213470234523816858_"
	 xmlns="http://www.w3.org/2000/svg" xmlns:xlink="http://www.w3.org/1999/xlink" x="0px" y="0px" viewBox="0 0 602 475"
	 style="enable-background:new 0 0 602 475;" xml:space="preserve">
<style type="text/css">
	.st0{fill-rule:evenodd;clip-rule:evenodd;fill:#F7941D;}
	.st1{fill-rule:evenodd;clip-rule:evenodd;fill:#231F20;}
	.st2{fill-rule:evenodd;clip-rule:evenodd;fill:#FFFCD5;}
	.st3{fill-rule:evenodd;clip-rule:evenodd;fill:#FFCB05;}
	.st4{fill-rule:evenodd;clip-rule:evenodd;fill:#ED1C24;}
	.st5{fill:#ED1C24;}
	.st6{fill-rule:evenodd;clip-rule:evenodd;fill:#FFFFFF;}
</style>
<g id="Camada_1-2">
	<g>
		<path class="st0" d="M301,462.1c-27.9,0-55-5-80.8-15H32.9c-11.4,0-20.6-9.2-20.6-20.6V292.7c0-11.4,9.2-20.6,20.6-20.6h46.2
			c-1.8-11.4-2.7-23-2.7-34.6c0-60,23.4-116.4,65.8-158.8S241,12.9,301,12.9s116.4,23.4,158.8,65.8s65.8,98.8,65.8,158.8
			c0,11.6-0.9,23.2-2.7,34.6h46.2c11.3,0,20.6,9.2,20.6,20.6v133.8c0,11.4-9.2,20.6-20.6,20.6H381.8
			C356,457.1,328.9,462.1,301,462.1L301,462.1z"/>
		<path class="st1" d="M566,283.1h-57.4c3-14.2,4.5-28.9,4.5-44c0-118.9-96.4-215.2-215.2-215.2S82.6,120.2,82.6,239.1
			c0,15.1,1.6,29.8,4.5,44H29.7c-6.2,0-11.2,5-11.2,11.2v133.8c0,6.2,5,11.2,11.2,11.2h189.1c24.5,9.7,51.1,15,79,15s54.6-5.3,79-15
			H566c6.2,0,11.2-5,11.2-11.2V294.3C577.2,288.1,572.2,283.1,566,283.1z"/>
		<path class="st2" d="M569.1,281.5h-57.4c3-14.2,4.5-28.9,4.5-44c0-118.9-96.4-215.2-215.2-215.2S85.7,118.6,85.7,237.5
			c0,15.1,1.6,29.8,4.5,44H32.9c-6.2,0-11.2,5-11.2,11.2v133.8c0,6.2,5,11.2,11.2,11.2H222c24.5,9.7,51.1,15,79,15s54.6-5.3,79-15
			h189.1c6.2,0,11.2-5,11.2-11.2V292.7C580.3,286.5,575.3,281.5,569.1,281.5L569.1,281.5z"/>
		<path class="st3" d="M383,116.6c25.8,45.9,9.5,104.1-36.4,129.9c-45.9,25.8-104.1,9.5-129.9-36.4c-25.8-45.9-9.5-104.1,36.4-129.9
			C299,54.3,357.2,70.7,383,116.6L383,116.6z"/>
		<path class="st4" d="M183.3,179.1c3.4,61.9,54.6,111.1,117.3,111.1s117.5-52.6,117.5-117.5c0-4.2-0.2-8.4-0.7-12.5
			C337.5,146,264.2,204,183.3,179.1L183.3,179.1z"/>
		<path class="st0" d="M183.3,179.1c0.2,4.3,0.7,8.6,1.4,12.8c77.9-19.2,148.9,34.6,226.3,21.1c4.6-12.6,7.1-26.2,7.1-40.4
			c0-4.2-0.2-8.4-0.7-12.5C337.5,146,264.2,204,183.3,179.1L183.3,179.1z"/>
		<g>
			<path class="st4" d="M337.7,279.5l5.6-9.4c13.8,8.7,33.5,10.4,47.4-0.9c6.6-4.6,11.4-15.8,22.4-16.6
				c11.9-1.5,13.6,15.7,23.7,12.1c-4.5,3.8-9.1-1.9-12-4.4c-3.3-3-7.3-6-11.2-4.9c-9,1.4-11.8,11.1-19.2,18
				C379.8,287.7,355.8,289,337.7,279.5L337.7,279.5z"/>
			<path class="st4" d="M386.9,252.8l-7.5-7.8c8-6.1,16.7-7.2,25.1-6c10.2,0.6,15,10.7,18.2,15.9c2.9,6.1,11.2,5.2,15.8-0.1
				c2.5-2.4,4.4-6.4,8.6-7.4c4.2-0.8,7.5,1.9,10.4,3.9c-3.1-1.7-6.8-3.7-10-2.6c-3.1,1.1-4.6,4.8-6.9,7.9c-3.5,6.9-16.8,10-22.1,1.7
				c-5.1-6.3-8.7-11.8-14.8-11.1C397.2,246.8,390.4,249.3,386.9,252.8L386.9,252.8z"/>
			<path class="st4" d="M365.5,270l5.4-9.4c16.6,9.5,37.6,18.6,55.9,10.8c8.9-3.3,17.2-12.4,28.9-12.4c11.5,0.2,18.6,13.1,29.5,7.6
				c-10.5,6.5-20.2-6-29.5-4.9c-10.1,0.8-16.6,9.6-26.7,14.6C408.2,287,384.7,278.9,365.5,270L365.5,270z"/>
			<path class="st4" d="M416.7,237c-0.5,1.2-2.7,3.1-5.7,5.1c-1-3.1-1.2-6.2-0.7-7.6c0.5-1.2,2.7-3.1,5.7-5.1
				C417,232.6,417.3,235.7,416.7,237L416.7,237z"/>
			<path class="st4" d="M473.9,269c1.2,0.4,3.4,2.4,5.7,5.2c-3,1.3-6.1,1.9-7.5,1.4c-1.2-0.4-3.4-2.4-5.7-5.2
				C469.4,269.2,472.5,268.6,473.9,269L473.9,269z"/>
			<path class="st4" d="M438.7,279.2c0,1.4-1.1,2.5-2.5,2.5s-2.5-1.1-2.5-2.5s1.1-2.5,2.5-2.5S438.7,277.8,438.7,279.2z"/>
			<path class="st4" d="M495.5,271.7c0,0.7-0.6,1.3-1.3,1.3s-1.3-0.6-1.3-1.3s0.6-1.3,1.3-1.3S495.5,271,495.5,271.7z"/>
			<path class="st4" d="M454.3,235.5c0.4-0.2,0.9-1.1,1.3-2.1c-1.1-0.1-2.1,0-2.4,0.2c-0.4,0.2-0.9,1.1-1.3,2.1
				C453,235.8,453.9,235.7,454.3,235.5L454.3,235.5z"/>
			<path class="st4" d="M447.9,236.5c-0.4,0.2-0.9,1.1-1.3,2.1c1.1,0.1,2.1,0,2.4-0.2c0.4-0.2,0.9-1.1,1.3-2.1
				C449.2,236.2,448.3,236.3,447.9,236.5L447.9,236.5z"/>
			<path class="st4" d="M452.5,233.1c0-0.5-0.4-1.4-1-2.2c-0.7,0.9-1.2,1.7-1.2,2.1c0,0.5,0.4,1.4,1,2.2
				C452,234.3,452.5,233.5,452.5,233.1L452.5,233.1z"/>
			<path class="st4" d="M449.9,239c0,0.5,0.4,1.4,1,2.2c0.7-0.9,1.2-1.7,1.2-2.1c0-0.5-0.4-1.4-1-2.2
				C450.4,237.8,450,238.6,449.9,239z"/>
			<path class="st4" d="M452,236.6c0.3,1.1,0.7,2,1,2.3c0.3,0.3,1.3,0.6,2.4,0.6c-0.3-1.1-0.7-2-1-2.3
				C454,236.9,453.1,236.6,452,236.6z"/>
			<path class="st4" d="M450.6,235.7c-0.3-1.1-0.7-2-1-2.3c-0.3-0.3-1.3-0.6-2.4-0.6c0.3,1.1,0.7,2,1,2.3
				C448.6,235.4,449.6,235.7,450.6,235.7z"/>
			<path class="st4" d="M450.7,236.1c0,0.3,0.2,0.5,0.5,0.5s0.5-0.2,0.5-0.5s-0.2-0.5-0.5-0.5S450.7,235.9,450.7,236.1z"/>
			<path class="st4" d="M446.1,261.6c0.5-0.3,1.1-1.3,1.5-2.5c-1.4-0.1-2.5,0-3,0.3c-0.5,0.3-1.1,1.3-1.5,2.5
				C444.6,261.9,445.7,261.8,446.1,261.6L446.1,261.6z"/>
			<path class="st4" d="M438.4,262.7c-0.5,0.3-1.1,1.3-1.5,2.5c1.4,0.1,2.5,0,3-0.3c0.5-0.3,1.1-1.3,1.5-2.5
				C440,262.4,438.9,262.5,438.4,262.7L438.4,262.7z"/>
			<path class="st4" d="M444,258.6c0-0.6-0.4-1.7-1.2-2.7c-0.9,1.1-1.4,2.1-1.5,2.6c0,0.6,0.4,1.7,1.2,2.7
				C443.4,260.1,444,259.1,444,258.6L444,258.6z"/>
			<path class="st4" d="M440.9,265.8c-0.1,0.6,0.4,1.7,1.2,2.7c0.9-1.1,1.4-2.1,1.5-2.6c0-0.6-0.4-1.7-1.2-2.7
				C441.5,264.3,441,265.3,440.9,265.8L440.9,265.8z"/>
			<path class="st4" d="M443.4,262.9c0.4,1.3,0.8,2.4,1.2,2.7c0.4,0.4,1.6,0.7,2.9,0.7c-0.4-1.4-0.8-2.4-1.2-2.7
				C445.9,263.2,444.7,262.9,443.4,262.9z"/>
			<path class="st4" d="M441.7,261.8c-0.4-1.3-0.8-2.4-1.2-2.7c-0.4-0.4-1.6-0.7-2.9-0.7c0.4,1.3,0.8,2.4,1.2,2.7
				C439.2,261.5,440.4,261.8,441.7,261.8z"/>
			<path class="st4" d="M441.8,262.3c0,0.3,0.3,0.6,0.6,0.6s0.6-0.3,0.6-0.6c0-0.3-0.3-0.6-0.6-0.6S441.8,262,441.8,262.3z"/>
			<path class="st4" d="M426.9,259.4c0.1-0.1,0.3-0.4,0.4-0.7c-0.4,0-0.7,0-0.9,0.1c-0.1,0.1-0.3,0.4-0.4,0.7
				C426.5,259.5,426.8,259.4,426.9,259.4z"/>
			<path class="st4" d="M424.7,259.7c-0.1,0.1-0.3,0.4-0.4,0.7c0.4,0,0.7,0,0.9-0.1c0.1-0.1,0.3-0.4,0.4-0.7
				C425.2,259.6,424.8,259.6,424.7,259.7L424.7,259.7z"/>
			<path class="st4" d="M426.3,258.5c0-0.2-0.1-0.5-0.3-0.8c-0.2,0.3-0.4,0.6-0.4,0.7c0,0.2,0.1,0.5,0.3,0.8
				C426.1,258.9,426.3,258.6,426.3,258.5L426.3,258.5z"/>
			<path class="st4" d="M425.4,260.6c0,0.1,0.1,0.5,0.3,0.8c0.2-0.3,0.4-0.6,0.4-0.8c0-0.1-0.1-0.5-0.3-0.8
				C425.6,260.1,425.4,260.4,425.4,260.6z"/>
			<path class="st4" d="M426.1,259.7c0.1,0.4,0.2,0.7,0.3,0.8c0.1,0.1,0.5,0.2,0.8,0.2c-0.1-0.4-0.2-0.7-0.3-0.8
				C426.9,259.8,426.5,259.7,426.1,259.7L426.1,259.7z"/>
			<path class="st4" d="M425.6,259.4c-0.1-0.4-0.2-0.7-0.3-0.8c-0.1-0.1-0.5-0.2-0.8-0.2c0.1,0.4,0.2,0.7,0.3,0.8
				C424.9,259.3,425.3,259.4,425.6,259.4z"/>
			<path class="st4" d="M425.7,259.6c0,0.1,0.1,0.2,0.2,0.2s0.2-0.1,0.2-0.2s-0.1-0.2-0.2-0.2S425.7,259.5,425.7,259.6z"/>
			<path class="st4" d="M426.1,243.3c0.5-0.3,1.1-1.3,1.5-2.5c-1.4-0.1-2.5,0-3,0.3c-0.5,0.3-1.1,1.3-1.6,2.5
				C424.5,243.7,425.7,243.6,426.1,243.3L426.1,243.3z"/>
			<path class="st4" d="M418.4,244.5c-0.5,0.3-1.1,1.3-1.5,2.5c1.4,0.1,2.5,0,3-0.3c0.5-0.3,1.1-1.3,1.5-2.5
				C420,244.1,418.9,244.2,418.4,244.5L418.4,244.5z"/>
			<path class="st4" d="M424,240.4c0-0.6-0.4-1.7-1.2-2.7c-0.9,1.1-1.4,2.1-1.5,2.6c0,0.6,0.4,1.7,1.2,2.7
				C423.4,241.8,424,240.9,424,240.4L424,240.4z"/>
			<path class="st4" d="M420.9,247.5c-0.1,0.6,0.4,1.7,1.2,2.7c0.9-1.1,1.4-2.1,1.5-2.6c0-0.6-0.4-1.7-1.2-2.7
				C421.5,246,420.9,247,420.9,247.5L420.9,247.5z"/>
			<path class="st4" d="M423.4,244.6c0.4,1.3,0.8,2.4,1.2,2.7c0.4,0.4,1.6,0.7,2.9,0.7c-0.4-1.4-0.8-2.4-1.2-2.7
				C425.8,244.9,424.7,244.6,423.4,244.6z"/>
			<path class="st4" d="M421.7,243.5c-0.4-1.3-0.8-2.4-1.2-2.7c-0.4-0.4-1.6-0.7-2.9-0.7c0.4,1.3,0.8,2.4,1.2,2.7
				C419.2,243.2,420.4,243.5,421.7,243.5z"/>
			<path class="st4" d="M421.8,244.1c0,0.3,0.3,0.6,0.6,0.6s0.6-0.3,0.6-0.6s-0.3-0.6-0.6-0.6S421.8,243.7,421.8,244.1z"/>
			<path class="st4" d="M426.9,276.8c0.2-0.1,0.4-0.5,0.5-0.9c-0.5,0-0.9,0-1,0.1c-0.2,0.1-0.4,0.5-0.5,0.9
				C426.3,276.9,426.7,276.9,426.9,276.8z"/>
			<path class="st4" d="M424.2,277.2c-0.2,0.1-0.4,0.5-0.5,0.9c0.5,0,0.9,0,1-0.1c0.2-0.1,0.4-0.5,0.5-0.9
				C424.8,277.1,424.4,277.1,424.2,277.2z"/>
			<path class="st4" d="M426.2,275.8c0-0.2-0.1-0.6-0.4-0.9c-0.3,0.4-0.5,0.7-0.5,0.9c0,0.2,0.1,0.6,0.4,0.9
				C425.9,276.3,426.1,276,426.2,275.8L426.2,275.8z"/>
			<path class="st4" d="M425.1,278.3c0,0.2,0.1,0.6,0.4,0.9c0.3-0.4,0.5-0.7,0.5-0.9c0-0.2-0.1-0.6-0.4-0.9
				C425.3,277.7,425.1,278.1,425.1,278.3L425.1,278.3z"/>
			<path class="st4" d="M425.9,277.3c0.1,0.5,0.3,0.8,0.4,0.9c0.1,0.1,0.5,0.2,1,0.2c-0.1-0.5-0.3-0.8-0.4-0.9
				C426.8,277.4,426.4,277.3,425.9,277.3L425.9,277.3z"/>
			<path class="st4" d="M425.4,276.9c-0.1-0.5-0.3-0.8-0.4-0.9c-0.1-0.1-0.5-0.2-1-0.2c0.1,0.5,0.3,0.8,0.4,0.9
				C424.5,276.8,424.9,276.9,425.4,276.9z"/>
			<path class="st4" d="M425.4,277.1c0,0.1,0.1,0.2,0.2,0.2s0.2-0.1,0.2-0.2s-0.1-0.2-0.2-0.2S425.4,277,425.4,277.1z"/>
			<path class="st4" d="M394.4,283.4c0.5-0.3,1.1-1.3,1.5-2.5c-1.4-0.1-2.5,0-3,0.3c-0.5,0.3-1.1,1.3-1.5,2.5
				C392.9,283.8,394,283.7,394.4,283.4L394.4,283.4z"/>
			<path class="st4" d="M386.7,284.6c-0.5,0.3-1.1,1.3-1.5,2.5c1.4,0.1,2.5,0,3-0.3c0.5-0.3,1.1-1.3,1.5-2.5
				C388.3,284.2,387.2,284.3,386.7,284.6L386.7,284.6z"/>
			<path class="st4" d="M392.3,280.5c0-0.5-0.4-1.7-1.2-2.7c-0.9,1.1-1.4,2.1-1.5,2.6c0,0.6,0.4,1.7,1.2,2.7
				C391.7,282,392.3,281,392.3,280.5L392.3,280.5z"/>
			<path class="st4" d="M389.2,287.7c0,0.5,0.4,1.7,1.2,2.7c0.9-1.1,1.4-2.1,1.5-2.6c0-0.6-0.4-1.7-1.2-2.7
				C389.8,286.1,389.3,287.1,389.2,287.7L389.2,287.7z"/>
			<path class="st4" d="M391.7,284.7c0.4,1.3,0.8,2.4,1.2,2.7c0.4,0.4,1.6,0.7,2.9,0.7c-0.4-1.4-0.8-2.4-1.2-2.7
				C394.2,285,393,284.8,391.7,284.7z"/>
			<path class="st4" d="M390,283.6c-0.4-1.3-0.8-2.4-1.2-2.7c-0.4-0.4-1.6-0.7-2.9-0.7c0.4,1.4,0.8,2.4,1.2,2.8
				C387.5,283.3,388.7,283.6,390,283.6L390,283.6z"/>
			<path class="st4" d="M390.1,284.2c0,0.3,0.3,0.6,0.6,0.6s0.6-0.3,0.6-0.6s-0.3-0.6-0.6-0.6S390.1,283.8,390.1,284.2z"/>
			<path class="st4" d="M355.3,258.2c0.5-0.3,1.1-1.3,1.5-2.5c-1.4-0.1-2.5,0-3,0.3c-0.5,0.3-1.1,1.3-1.5,2.5
				C353.7,258.5,354.8,258.4,355.3,258.2z"/>
			<path class="st4" d="M347.6,259.3c-0.5,0.3-1.1,1.3-1.5,2.5c1.4,0.1,2.5,0,3-0.3c0.5-0.3,1.1-1.3,1.5-2.5
				C349.2,259,348,259.1,347.6,259.3L347.6,259.3z"/>
			<path class="st4" d="M353.2,255.2c0-0.6-0.4-1.7-1.2-2.7c-0.9,1.1-1.4,2.1-1.5,2.6c0,0.6,0.4,1.7,1.2,2.7
				C352.6,256.7,353.1,255.7,353.2,255.2L353.2,255.2z"/>
			<path class="st4" d="M350,262.4c-0.1,0.6,0.4,1.7,1.2,2.7c0.9-1.1,1.4-2.1,1.5-2.6c0.1-0.6-0.4-1.7-1.2-2.7
				C350.6,260.9,350.1,261.9,350,262.4z"/>
			<path class="st4" d="M352.5,259.5c0.4,1.3,0.8,2.4,1.2,2.7c0.4,0.4,1.6,0.7,2.9,0.7c-0.4-1.3-0.8-2.4-1.2-2.7
				C355,259.8,353.8,259.5,352.5,259.5L352.5,259.5z"/>
			<path class="st4" d="M350.8,258.4c-0.4-1.3-0.8-2.4-1.2-2.7c-0.4-0.4-1.6-0.7-2.9-0.7c0.3,1.3,0.8,2.4,1.2,2.7
				C348.4,258,349.6,258.3,350.8,258.4L350.8,258.4z"/>
			<path class="st4" d="M350.9,258.9c0,0.3,0.3,0.6,0.6,0.6s0.6-0.3,0.6-0.6s-0.3-0.6-0.6-0.6S350.9,258.6,350.9,258.9z"/>
			<path class="st4" d="M392.7,257.9c0.2-0.1,0.5-0.6,0.7-1.1c-0.6,0-1.1,0-1.3,0.1c-0.2,0.1-0.5,0.6-0.7,1.1
				C392,258.1,392.5,258,392.7,257.9L392.7,257.9z"/>
			<path class="st4" d="M389.3,258.4c-0.2,0.1-0.5,0.6-0.7,1.1c0.6,0,1.1,0,1.3-0.1c0.2-0.1,0.5-0.6,0.7-1.1
				C390,258.3,389.5,258.3,389.3,258.4L389.3,258.4z"/>
			<path class="st4" d="M391.8,256.6c0-0.2-0.2-0.7-0.5-1.2c-0.4,0.5-0.6,0.9-0.6,1.1c0,0.2,0.2,0.7,0.5,1.2
				C391.5,257.3,391.8,256.8,391.8,256.6L391.8,256.6z"/>
			<path class="st4" d="M390.4,259.8c0,0.2,0.2,0.7,0.5,1.2c0.4-0.5,0.6-0.9,0.6-1.1c0-0.2-0.2-0.7-0.5-1.2
				C390.7,259.1,390.4,259.5,390.4,259.8L390.4,259.8z"/>
			<path class="st4" d="M391.5,258.5c0.2,0.6,0.4,1.1,0.5,1.2c0.2,0.2,0.7,0.3,1.2,0.3c-0.1-0.6-0.4-1-0.5-1.2
				C392.6,258.6,392.1,258.5,391.5,258.5L391.5,258.5z"/>
			<path class="st4" d="M390.8,258c-0.1-0.6-0.4-1-0.5-1.2c-0.2-0.2-0.7-0.3-1.2-0.3c0.1,0.6,0.4,1,0.5,1.2
				C389.7,257.9,390.2,258,390.8,258L390.8,258z"/>
			<path class="st4" d="M390.8,258.2c0,0.1,0.1,0.3,0.3,0.3s0.3-0.1,0.3-0.3s-0.1-0.3-0.3-0.3S390.8,258.1,390.8,258.2z"/>
			<path class="st4" d="M387.2,225.9c0.4-0.2,0.9-1.1,1.2-2c-1.1-0.1-2,0-2.4,0.2c-0.4,0.2-0.9,1.1-1.2,2
				C385.9,226.2,386.8,226.1,387.2,225.9z"/>
			<path class="st4" d="M381,226.8c-0.4,0.2-0.9,1-1.2,2c1.1,0.1,2,0,2.4-0.2c0.4-0.2,0.9-1.1,1.2-2
				C382.3,226.6,381.4,226.7,381,226.8L381,226.8z"/>
			<path class="st4" d="M385.5,223.6c0-0.4-0.4-1.3-0.9-2.1c-0.7,0.9-1.1,1.7-1.2,2.1c0,0.4,0.4,1.3,0.9,2.1
				C385,224.8,385.5,224,385.5,223.6z"/>
			<path class="st4" d="M383,229.3c0,0.4,0.3,1.3,0.9,2.1c0.7-0.9,1.1-1.6,1.2-2.1c0-0.4-0.4-1.3-0.9-2.1
				C383.5,228.1,383,228.9,383,229.3L383,229.3z"/>
			<path class="st4" d="M385,227c0.3,1.1,0.6,1.9,0.9,2.2c0.3,0.3,1.3,0.5,2.3,0.6c-0.3-1.1-0.6-1.9-0.9-2.2
				C386.9,227.2,386,227,385,227z"/>
			<path class="st4" d="M383.6,226.1c-0.3-1.1-0.6-1.9-0.9-2.2c-0.3-0.3-1.3-0.5-2.3-0.6c0.3,1.1,0.6,1.9,0.9,2.2
				C381.7,225.8,382.6,226,383.6,226.1L383.6,226.1z"/>
			<path class="st4" d="M383.7,226.5c0,0.3,0.2,0.5,0.5,0.5s0.5-0.2,0.5-0.5s-0.2-0.5-0.5-0.5S383.7,226.2,383.7,226.5z"/>
			<path class="st4" d="M405.3,237.2c0.3-0.2,0.7-0.8,0.9-1.5c-0.8,0-1.5,0-1.8,0.2c-0.3,0.2-0.7,0.8-0.9,1.5
				C404.4,237.4,405.1,237.3,405.3,237.2z"/>
			<path class="st4" d="M400.7,237.8c-0.3,0.2-0.7,0.8-0.9,1.5c0.8,0.1,1.5,0,1.8-0.1c0.3-0.2,0.7-0.8,0.9-1.5
				C401.7,237.6,401,237.7,400.7,237.8L400.7,237.8z"/>
			<path class="st4" d="M404.1,235.4c0-0.3-0.3-1-0.7-1.6c-0.5,0.7-0.9,1.3-0.9,1.6c0,0.3,0.3,1,0.7,1.6
				C403.7,236.3,404,235.7,404.1,235.4L404.1,235.4z"/>
			<path class="st4" d="M402.2,239.7c0,0.3,0.3,1,0.7,1.6c0.5-0.7,0.9-1.2,0.9-1.6c0-0.3-0.3-1-0.7-1.6
				C402.6,238.8,402.2,239.4,402.2,239.7z"/>
			<path class="st4" d="M403.7,237.9c0.2,0.8,0.5,1.4,0.7,1.6c0.2,0.2,1,0.4,1.7,0.4c-0.2-0.8-0.5-1.4-0.7-1.6
				C405.2,238.1,404.5,238,403.7,237.9L403.7,237.9z"/>
			<path class="st4" d="M402.7,237.3c-0.2-0.8-0.5-1.4-0.7-1.6c-0.2-0.2-1-0.4-1.7-0.4c0.2,0.8,0.5,1.4,0.7,1.6
				C401.2,237.1,401.9,237.2,402.7,237.3L402.7,237.3z"/>
			<path class="st4" d="M402.7,237.6c0,0.2,0.2,0.4,0.4,0.4s0.4-0.2,0.4-0.4s-0.2-0.4-0.4-0.4S402.7,237.4,402.7,237.6z"/>
			<path class="st4" d="M459.3,283.8c0.4-0.2,0.8-1,1.1-1.8c-1-0.1-1.8,0-2.1,0.2c-0.4,0.2-0.8,1-1.1,1.8
				C458.2,284.1,459,284,459.3,283.8z"/>
			<path class="st4" d="M453.8,284.7c-0.4,0.2-0.8,1-1.1,1.8c1,0.1,1.8,0,2.1-0.2c0.4-0.2,0.8-1,1.1-1.8
				C454.9,284.4,454.1,284.5,453.8,284.7L453.8,284.7z"/>
			<path class="st4" d="M457.8,281.7c0-0.4-0.3-1.2-0.9-2c-0.6,0.8-1,1.5-1.1,1.9c0,0.4,0.3,1.2,0.9,1.9
				C457.4,282.8,457.8,282,457.8,281.7L457.8,281.7z"/>
			<path class="st4" d="M455.5,286.8c0,0.4,0.3,1.2,0.9,2c0.6-0.8,1-1.5,1.1-1.9c0-0.4-0.3-1.2-0.9-1.9
				C456,285.8,455.6,286.5,455.5,286.8z"/>
			<path class="st4" d="M457.3,284.7c0.2,1,0.6,1.7,0.9,2c0.3,0.3,1.1,0.5,2.1,0.5c-0.2-1-0.6-1.7-0.8-2
				C459.1,285,458.3,284.8,457.3,284.7L457.3,284.7z"/>
			<path class="st4" d="M456.1,284c-0.3-1-0.6-1.7-0.9-2c-0.3-0.3-1.1-0.5-2.1-0.5c0.2,1,0.6,1.7,0.8,2
				C454.3,283.7,455.2,283.9,456.1,284z"/>
			<path class="st4" d="M456.2,284.3c0,0.2,0.2,0.4,0.4,0.4s0.4-0.2,0.4-0.4s-0.2-0.4-0.4-0.4S456.2,284.1,456.2,284.3z"/>
			<path class="st4" d="M504.3,265c0.1-0.1,0.3-0.4,0.4-0.7c-0.4,0-0.7,0-0.8,0.1c-0.1,0.1-0.3,0.4-0.4,0.7
				C503.8,265.1,504.1,265.1,504.3,265L504.3,265z"/>
			<path class="st4" d="M502.1,265.3c-0.1,0.1-0.3,0.4-0.4,0.7c0.4,0,0.7,0,0.8-0.1c0.1-0.1,0.3-0.4,0.4-0.7
				C502.5,265.2,502.2,265.3,502.1,265.3z"/>
			<path class="st4" d="M503.7,264.2c0-0.2-0.1-0.5-0.3-0.8c-0.2,0.3-0.4,0.6-0.4,0.7c0,0.1,0.1,0.5,0.3,0.8
				C503.5,264.6,503.7,264.3,503.7,264.2L503.7,264.2z"/>
			<path class="st4" d="M502.8,266.2c0,0.1,0.1,0.5,0.3,0.8c0.2-0.3,0.4-0.6,0.4-0.7c0-0.2-0.1-0.5-0.3-0.8
				C503,265.8,502.8,266.1,502.8,266.2L502.8,266.2z"/>
			<path class="st4" d="M503.5,265.4c0.1,0.4,0.2,0.7,0.3,0.8c0.1,0.1,0.5,0.2,0.8,0.2c-0.1-0.4-0.2-0.7-0.3-0.8
				C504.2,265.5,503.9,265.4,503.5,265.4z"/>
			<path class="st4" d="M503,265.1c-0.1-0.4-0.2-0.7-0.3-0.8c-0.1-0.1-0.5-0.2-0.8-0.2c0.1,0.4,0.2,0.7,0.3,0.8
				C502.3,265,502.6,265.1,503,265.1z"/>
			<path class="st4" d="M503,265.2c0,0.1,0.1,0.2,0.2,0.2s0.2-0.1,0.2-0.2s-0.1-0.2-0.2-0.2S503,265.1,503,265.2z"/>
			<path class="st4" d="M504.8,276.5c0.5-0.3,1.1-1.3,1.5-2.5c-1.4-0.1-2.5,0-3,0.3c-0.5,0.3-1.1,1.3-1.6,2.5
				C503.3,276.9,504.4,276.8,504.8,276.5L504.8,276.5z"/>
			<path class="st4" d="M497.1,277.7c-0.5,0.3-1.1,1.3-1.5,2.5c1.4,0.1,2.5,0,3-0.3c0.5-0.3,1.1-1.3,1.5-2.5
				C498.7,277.4,497.6,277.5,497.1,277.7L497.1,277.7z"/>
			<path class="st4" d="M502.7,273.6c0-0.5-0.4-1.7-1.2-2.7c-0.9,1.1-1.4,2.1-1.5,2.6c0,0.6,0.4,1.7,1.2,2.7
				C502.1,275.1,502.7,274.1,502.7,273.6L502.7,273.6z"/>
			<path class="st4" d="M499.6,280.8c-0.1,0.6,0.4,1.7,1.2,2.7c0.9-1.1,1.4-2.1,1.5-2.6c0.1-0.6-0.4-1.7-1.2-2.7
				C500.2,279.3,499.7,280.3,499.6,280.8L499.6,280.8z"/>
			<path class="st4" d="M502.1,277.8c0.4,1.3,0.8,2.4,1.2,2.7c0.4,0.4,1.6,0.7,2.9,0.7c-0.4-1.4-0.8-2.4-1.2-2.7
				C504.6,278.2,503.4,277.9,502.1,277.8L502.1,277.8z"/>
			<path class="st4" d="M500.4,276.7c-0.4-1.3-0.8-2.4-1.2-2.7c-0.4-0.4-1.6-0.7-2.9-0.7c0.4,1.3,0.8,2.4,1.2,2.7
				C497.9,276.4,499.1,276.7,500.4,276.7z"/>
			<path class="st4" d="M500.5,277.3c0,0.3,0.3,0.6,0.6,0.6s0.6-0.3,0.6-0.6s-0.3-0.6-0.6-0.6S500.5,277,500.5,277.3z"/>
			<path class="st4" d="M470.4,258.4c0.2-0.1,0.5-0.6,0.7-1.2c-0.7,0-1.2,0-1.4,0.1c-0.2,0.1-0.5,0.6-0.7,1.2
				C469.7,258.6,470.2,258.6,470.4,258.4z"/>
			<path class="st4" d="M466.7,259c-0.2,0.1-0.5,0.6-0.7,1.2c0.7,0,1.2,0,1.4-0.1c0.2-0.1,0.5-0.6,0.7-1.2
				C467.5,258.8,467,258.9,466.7,259z"/>
			<path class="st4" d="M469.4,257c0-0.3-0.2-0.8-0.6-1.3c-0.4,0.5-0.7,1-0.7,1.2c0,0.3,0.2,0.8,0.6,1.3
				C469.1,257.7,469.4,257.3,469.4,257L469.4,257z"/>
			<path class="st4" d="M467.9,260.5c0,0.3,0.2,0.8,0.6,1.3c0.4-0.5,0.7-1,0.7-1.2c0-0.3-0.2-0.8-0.6-1.3
				C468.2,259.7,468,260.2,467.9,260.5L467.9,260.5z"/>
			<path class="st4" d="M469.1,259.1c0.2,0.6,0.4,1.1,0.6,1.3c0.2,0.2,0.8,0.3,1.4,0.3c-0.2-0.6-0.4-1.2-0.6-1.3
				C470.3,259.2,469.7,259.1,469.1,259.1L469.1,259.1z"/>
			<path class="st4" d="M468.3,258.5c-0.2-0.6-0.4-1.1-0.6-1.3c-0.2-0.2-0.8-0.3-1.4-0.3c0.2,0.6,0.4,1.1,0.6,1.3
				C467.1,258.4,467.7,258.5,468.3,258.5L468.3,258.5z"/>
			<path class="st4" d="M468.4,258.8c0,0.2,0.1,0.3,0.3,0.3s0.3-0.1,0.3-0.3c0-0.1-0.1-0.3-0.3-0.3S468.4,258.6,468.4,258.8z"/>
		</g>
		<g>
			<path class="st4" d="M258.7,270.2l5.6,9.4c-18.2,9.4-42.1,8.1-56.5-6.2c-7.3-6.9-10.1-16.6-19.2-18.1c-4.1-1.1-8.1,1.9-11.4,5
				c-3,2.6-7.6,8.1-11.8,4.4c9.5,3.6,11.5-13.5,23.5-12.1c11.1,0.9,15.9,12.1,22.4,16.7C225.2,280.5,244.9,278.9,258.7,270.2
				L258.7,270.2z"/>
			<path class="st4" d="M222.6,245l-7.5,7.8c-3.5-3.6-10.4-6.1-16.7-5.8c-6.1-0.7-9.8,4.9-14.9,11.1c-5.3,8.2-18.5,5.1-21.9-1.8
				c-2.4-3-3.7-6.8-7-7.9c-3.3-1.1-7.1,0.9-10.2,2.6c3-2,6.3-4.7,10.6-3.9c4.3,1.1,6.2,5.1,8.7,7.5c4.6,5.3,12.7,6.2,15.6,0.2
				c3.2-5.1,8.1-15.2,18.3-15.9C205.9,237.8,214.7,238.9,222.6,245L222.6,245z"/>
			<path class="st4" d="M231,260.6l5.4,9.4c-19.3,8.8-42.7,16.9-63.6,6.2c-10-5-16.5-13.9-26.7-14.7c-9.4-1.1-19.2,11.3-29.4,4.8
				c10.7,5.5,17.8-7.3,29.4-7.6c11.8,0.1,20.1,9.2,28.9,12.5C193.4,279.1,214.4,270.1,231,260.6L231,260.6z"/>
			<path class="st4" d="M185.3,237c0.5,1.2,2.7,3.1,5.7,5.1c1-3.1,1.2-6.2,0.7-7.6c-0.5-1.2-2.7-3.1-5.7-5.1
				C184.9,232.6,184.7,235.7,185.3,237z"/>
			<path class="st4" d="M128.1,269c-1.2,0.4-3.4,2.4-5.7,5.2c3,1.3,6.1,1.9,7.5,1.4c1.2-0.4,3.4-2.4,5.7-5.2
				C132.6,269.2,129.4,268.6,128.1,269L128.1,269z"/>
			<path class="st4" d="M163.3,279.2c0,1.4,1.1,2.5,2.5,2.5s2.5-1.1,2.5-2.5s-1.1-2.5-2.5-2.5S163.3,277.8,163.3,279.2z"/>
			<path class="st4" d="M106.5,271.7c0,0.7,0.6,1.3,1.3,1.3s1.3-0.6,1.3-1.3s-0.6-1.3-1.3-1.3S106.5,271,106.5,271.7z"/>
			<path class="st4" d="M147.7,235.5c-0.4-0.2-0.9-1.1-1.3-2.1c1.1-0.1,2.1,0,2.4,0.2c0.4,0.2,0.9,1.1,1.3,2.1
				C149,235.8,148.1,235.7,147.7,235.5L147.7,235.5z"/>
			<path class="st4" d="M154.1,236.5c0.4,0.2,0.9,1.1,1.3,2.1c-1.1,0.1-2.1,0-2.4-0.2c-0.4-0.2-0.9-1.1-1.3-2.1
				C152.7,236.2,153.7,236.3,154.1,236.5L154.1,236.5z"/>
			<path class="st4" d="M149.4,233.1c-0.1-0.5,0.4-1.4,1-2.2c0.7,0.9,1.2,1.7,1.2,2.1c0,0.5-0.4,1.4-1,2.2
				C149.9,234.3,149.5,233.5,149.4,233.1L149.4,233.1z"/>
			<path class="st4" d="M152,239c0,0.5-0.4,1.4-1,2.2c-0.7-0.9-1.2-1.7-1.2-2.1c0-0.5,0.4-1.4,1-2.2C151.5,237.8,152,238.6,152,239z
				"/>
			<path class="st4" d="M150,236.6c-0.3,1.1-0.7,2-1,2.3c-0.3,0.3-1.3,0.6-2.4,0.6c0.3-1.1,0.7-2,1-2.3
				C147.9,236.9,148.9,236.6,150,236.6z"/>
			<path class="st4" d="M151.4,235.7c0.3-1.1,0.7-2,1-2.3c0.3-0.3,1.3-0.6,2.4-0.6c-0.3,1.1-0.7,2-1,2.3
				C153.4,235.4,152.4,235.7,151.4,235.7L151.4,235.7z"/>
			<path class="st4" d="M151.3,236.1c0,0.3-0.2,0.5-0.5,0.5s-0.5-0.2-0.5-0.5s0.2-0.5,0.5-0.5S151.3,235.9,151.3,236.1z"/>
			<path class="st4" d="M155.8,261.6c-0.5-0.3-1.1-1.3-1.6-2.5c1.4-0.1,2.5,0,3,0.3c0.5,0.3,1.1,1.3,1.6,2.5
				C157.4,261.9,156.3,261.8,155.8,261.6L155.8,261.6z"/>
			<path class="st4" d="M163.5,262.7c0.5,0.3,1.1,1.3,1.6,2.5c-1.4,0.1-2.5,0-3-0.3c-0.5-0.3-1.1-1.3-1.6-2.5
				C161.9,262.4,163.1,262.5,163.5,262.7L163.5,262.7z"/>
			<path class="st4" d="M157.9,258.6c-0.1-0.6,0.4-1.7,1.2-2.7c0.9,1.1,1.4,2.1,1.5,2.6c0.1,0.6-0.4,1.7-1.2,2.7
				C158.5,260.1,158,259.1,157.9,258.6z"/>
			<path class="st4" d="M161.1,265.8c0.1,0.6-0.4,1.7-1.2,2.7c-0.9-1.1-1.4-2.1-1.5-2.6c-0.1-0.6,0.4-1.7,1.2-2.7
				C160.5,264.3,161,265.3,161.1,265.8L161.1,265.8z"/>
			<path class="st4" d="M158.6,262.9c-0.4,1.3-0.8,2.4-1.2,2.7c-0.4,0.4-1.6,0.7-2.9,0.7c0.4-1.4,0.8-2.4,1.2-2.7
				C156.1,263.2,157.3,262.9,158.6,262.9z"/>
			<path class="st4" d="M160.3,261.8c0.4-1.3,0.8-2.4,1.2-2.7c0.4-0.4,1.6-0.7,2.9-0.7c-0.4,1.3-0.8,2.4-1.2,2.7
				C162.7,261.5,161.5,261.8,160.3,261.8z"/>
			<path class="st4" d="M160.2,262.3c0,0.3-0.3,0.6-0.6,0.6s-0.6-0.3-0.6-0.6c0-0.3,0.3-0.6,0.6-0.6S160.2,262,160.2,262.3z"/>
			<path class="st4" d="M175,259.4c-0.1-0.1-0.3-0.4-0.4-0.7c0.4,0,0.7,0,0.9,0.1c0.1,0.1,0.3,0.4,0.4,0.7
				C175.5,259.5,175.2,259.4,175,259.4L175,259.4z"/>
			<path class="st4" d="M177.3,259.7c0.1,0.1,0.3,0.4,0.4,0.7c-0.4,0-0.7,0-0.9-0.1c-0.1-0.1-0.3-0.4-0.4-0.7
				C176.8,259.6,177.1,259.6,177.3,259.7z"/>
			<path class="st4" d="M175.6,258.5c0-0.2,0.1-0.5,0.3-0.8c0.2,0.3,0.4,0.6,0.4,0.7c0,0.2-0.1,0.5-0.3,0.8
				C175.8,258.9,175.7,258.6,175.6,258.5L175.6,258.5z"/>
			<path class="st4" d="M176.6,260.6c0,0.1-0.1,0.5-0.3,0.8c-0.2-0.3-0.4-0.6-0.4-0.8s0.1-0.5,0.3-0.8
				C176.4,260.1,176.5,260.4,176.6,260.6z"/>
			<path class="st4" d="M175.8,259.7c-0.1,0.4-0.2,0.7-0.3,0.8c-0.1,0.1-0.5,0.2-0.8,0.2c0.1-0.4,0.2-0.7,0.3-0.8
				C175.1,259.8,175.5,259.7,175.8,259.7z"/>
			<path class="st4" d="M176.3,259.4c0.1-0.4,0.2-0.7,0.3-0.8c0.1-0.1,0.5-0.2,0.8-0.2c-0.1,0.4-0.2,0.7-0.3,0.8
				C177,259.3,176.7,259.4,176.3,259.4z"/>
			<path class="st4" d="M176.3,259.6c0,0.1-0.1,0.2-0.2,0.2s-0.2-0.1-0.2-0.2s0.1-0.2,0.2-0.2S176.3,259.5,176.3,259.6z"/>
			<path class="st4" d="M175.8,243.3c-0.5-0.3-1.1-1.3-1.6-2.5c1.4-0.1,2.5,0,3,0.3c0.5,0.3,1.1,1.3,1.6,2.5
				C177.4,243.7,176.3,243.6,175.8,243.3L175.8,243.3z"/>
			<path class="st4" d="M183.5,244.5c0.5,0.3,1.1,1.3,1.6,2.5c-1.4,0.1-2.5,0-3-0.3c-0.5-0.3-1.1-1.3-1.6-2.5
				C182,244.1,183.1,244.2,183.5,244.5L183.5,244.5z"/>
			<path class="st4" d="M177.9,240.4c-0.1-0.6,0.4-1.7,1.2-2.7c0.9,1.1,1.4,2.1,1.5,2.6c0.1,0.6-0.4,1.7-1.2,2.7
				C178.6,241.8,178,240.9,177.9,240.4L177.9,240.4z"/>
			<path class="st4" d="M181.1,247.5c0.1,0.6-0.4,1.7-1.2,2.7c-0.9-1.1-1.4-2.1-1.5-2.6c-0.1-0.6,0.4-1.7,1.2-2.7
				C180.5,246,181,247,181.1,247.5L181.1,247.5z"/>
			<path class="st4" d="M178.6,244.6c-0.4,1.3-0.8,2.4-1.2,2.7c-0.4,0.4-1.6,0.7-2.9,0.7c0.4-1.4,0.8-2.4,1.2-2.7
				C176.1,244.9,177.3,244.6,178.6,244.6z"/>
			<path class="st4" d="M180.3,243.5c0.4-1.3,0.8-2.4,1.2-2.7c0.4-0.4,1.6-0.7,2.9-0.7c-0.4,1.3-0.8,2.4-1.2,2.7
				C182.7,243.2,181.5,243.5,180.3,243.5L180.3,243.5z"/>
			<path class="st4" d="M180.2,244.1c0,0.3-0.3,0.6-0.6,0.6s-0.6-0.3-0.6-0.6s0.3-0.6,0.6-0.6S180.2,243.7,180.2,244.1z"/>
			<path class="st4" d="M175.1,276.8c-0.2-0.1-0.4-0.5-0.5-0.9c0.5,0,0.9,0,1,0.1c0.2,0.1,0.4,0.5,0.5,0.9
				C175.6,276.9,175.2,276.9,175.1,276.8z"/>
			<path class="st4" d="M177.7,277.2c0.2,0.1,0.4,0.5,0.5,0.9c-0.5,0-0.9,0-1-0.1c-0.2-0.1-0.4-0.5-0.5-0.9
				C177.2,277.1,177.6,277.1,177.7,277.2L177.7,277.2z"/>
			<path class="st4" d="M175.8,275.8c0-0.2,0.1-0.6,0.4-0.9c0.3,0.4,0.5,0.7,0.5,0.9c0,0.2-0.1,0.6-0.4,0.9
				C176,276.3,175.8,276,175.8,275.8L175.8,275.8z"/>
			<path class="st4" d="M176.9,278.3c0,0.2-0.1,0.6-0.4,0.9c-0.3-0.4-0.5-0.7-0.5-0.9c0-0.2,0.1-0.6,0.4-0.9
				C176.7,277.7,176.9,278.1,176.9,278.3L176.9,278.3z"/>
			<path class="st4" d="M176,277.3c-0.1,0.5-0.3,0.8-0.4,0.9c-0.1,0.1-0.6,0.2-1,0.2c0.1-0.5,0.3-0.8,0.4-0.9
				C175.2,277.4,175.6,277.3,176,277.3L176,277.3z"/>
			<path class="st4" d="M176.6,276.9c0.1-0.5,0.3-0.8,0.4-0.9c0.1-0.1,0.6-0.2,1-0.2c-0.1,0.5-0.3,0.8-0.4,0.9
				C177.5,276.8,177,276.9,176.6,276.9z"/>
			<path class="st4" d="M176.6,277.1c0,0.1-0.1,0.2-0.2,0.2s-0.2-0.1-0.2-0.2s0.1-0.2,0.2-0.2S176.6,277,176.6,277.1z"/>
			<path class="st4" d="M207.5,283.4c-0.5-0.3-1.1-1.3-1.6-2.5c1.4-0.1,2.5,0,3,0.3c0.5,0.3,1.1,1.3,1.6,2.5
				C209.1,283.8,208,283.7,207.5,283.4z"/>
			<path class="st4" d="M215.2,284.6c0.5,0.3,1.1,1.3,1.6,2.5c-1.4,0.1-2.5,0-3-0.3c-0.5-0.3-1.1-1.3-1.5-2.5
				C213.7,284.2,214.8,284.3,215.2,284.6L215.2,284.6z"/>
			<path class="st4" d="M209.6,280.5c-0.1-0.5,0.4-1.7,1.2-2.7c0.9,1.1,1.4,2.1,1.5,2.6c0.1,0.6-0.4,1.7-1.2,2.7
				C210.3,282,209.7,281,209.6,280.5L209.6,280.5z"/>
			<path class="st4" d="M212.8,287.7c0.1,0.5-0.4,1.7-1.2,2.7c-0.9-1.1-1.4-2.1-1.5-2.6c-0.1-0.6,0.4-1.7,1.2-2.7
				C212.2,286.1,212.7,287.1,212.8,287.7L212.8,287.7z"/>
			<path class="st4" d="M210.3,284.7c-0.4,1.3-0.8,2.4-1.2,2.7c-0.4,0.4-1.6,0.7-2.9,0.7c0.4-1.4,0.8-2.4,1.2-2.7
				C207.8,285,209,284.8,210.3,284.7z"/>
			<path class="st4" d="M212,283.6c0.4-1.3,0.8-2.4,1.2-2.7c0.4-0.4,1.6-0.7,2.9-0.7c-0.4,1.4-0.8,2.4-1.2,2.8
				C214.4,283.3,213.2,283.6,212,283.6L212,283.6z"/>
			<path class="st4" d="M211.9,284.2c0,0.3-0.3,0.6-0.6,0.6s-0.6-0.3-0.6-0.6s0.3-0.6,0.6-0.6S211.9,283.8,211.9,284.2z"/>
			<path class="st4" d="M246.7,258.2c-0.5-0.3-1.1-1.3-1.6-2.5c1.4-0.1,2.5,0,3,0.3c0.5,0.3,1.1,1.3,1.6,2.5
				C248.3,258.5,247.1,258.4,246.7,258.2z"/>
			<path class="st4" d="M254.4,259.3c0.5,0.3,1.1,1.3,1.6,2.5c-1.4,0.1-2.5,0-3-0.3c-0.5-0.3-1.1-1.3-1.5-2.5
				C252.8,259,254,259.1,254.4,259.3L254.4,259.3z"/>
			<path class="st4" d="M248.8,255.2c0-0.6,0.4-1.7,1.2-2.7c0.9,1.1,1.4,2.1,1.5,2.6c0.1,0.6-0.4,1.7-1.2,2.7
				C249.4,256.7,248.8,255.7,248.8,255.2L248.8,255.2z"/>
			<path class="st4" d="M251.9,262.4c0.1,0.6-0.4,1.7-1.2,2.7c-0.9-1.1-1.4-2.1-1.5-2.6c-0.1-0.6,0.4-1.7,1.2-2.7
				C251.3,260.9,251.9,261.9,251.9,262.4z"/>
			<path class="st4" d="M249.4,259.5c-0.4,1.3-0.8,2.4-1.2,2.7c-0.4,0.4-1.6,0.7-2.9,0.7c0.4-1.3,0.8-2.4,1.2-2.7
				C247,259.8,248.2,259.5,249.4,259.5L249.4,259.5z"/>
			<path class="st4" d="M251.1,258.4c0.4-1.3,0.8-2.4,1.2-2.7c0.4-0.4,1.6-0.7,2.9-0.7c-0.4,1.3-0.8,2.4-1.2,2.7
				C253.6,258,252.4,258.3,251.1,258.4L251.1,258.4z"/>
			<path class="st4" d="M251,258.9c0,0.3-0.3,0.6-0.6,0.6s-0.6-0.3-0.6-0.6s0.3-0.6,0.6-0.6S251,258.6,251,258.9z"/>
			<path class="st4" d="M209.2,257.9c-0.2-0.1-0.5-0.6-0.7-1.1c0.6,0,1.1,0,1.3,0.1c0.2,0.1,0.5,0.6,0.7,1.1
				C209.9,258.1,209.4,258,209.2,257.9L209.2,257.9z"/>
			<path class="st4" d="M212.6,258.4c0.2,0.1,0.5,0.6,0.7,1.1c-0.6,0-1.1,0-1.3-0.1c-0.2-0.1-0.5-0.6-0.7-1.1
				C211.9,258.3,212.4,258.3,212.6,258.4L212.6,258.4z"/>
			<path class="st4" d="M210.2,256.6c0-0.2,0.2-0.7,0.5-1.2c0.4,0.5,0.6,0.9,0.6,1.1c0,0.2-0.2,0.7-0.5,1.2
				C210.4,257.3,210.2,256.8,210.2,256.6L210.2,256.6z"/>
			<path class="st4" d="M211.5,259.8c0,0.2-0.2,0.7-0.5,1.2c-0.4-0.5-0.6-0.9-0.6-1.1c0-0.2,0.2-0.7,0.5-1.2
				C211.3,259.1,211.5,259.5,211.5,259.8z"/>
			<path class="st4" d="M210.4,258.5c-0.2,0.6-0.4,1.1-0.5,1.2c-0.2,0.2-0.7,0.3-1.2,0.3c0.1-0.6,0.3-1,0.5-1.2
				C209.4,258.6,209.9,258.5,210.4,258.5L210.4,258.5z"/>
			<path class="st4" d="M211.2,258c0.2-0.6,0.4-1,0.5-1.2c0.2-0.2,0.7-0.3,1.3-0.3c-0.1,0.6-0.4,1-0.5,1.2
				C212.3,257.9,211.7,258,211.2,258L211.2,258z"/>
			<path class="st4" d="M211.1,258.2c0,0.1-0.1,0.3-0.2,0.3s-0.3-0.1-0.3-0.3s0.1-0.3,0.3-0.3S211.1,258.1,211.1,258.2z"/>
			<path class="st4" d="M214.8,225.9c-0.4-0.2-0.9-1.1-1.2-2c1.1-0.1,2,0,2.4,0.2c0.4,0.2,0.9,1.1,1.2,2
				C216.1,226.2,215.2,226.1,214.8,225.9L214.8,225.9z"/>
			<path class="st4" d="M220.9,226.8c0.4,0.2,0.9,1,1.2,2c-1.1,0.1-2,0-2.4-0.2c-0.4-0.2-0.9-1.1-1.2-2
				C219.7,226.6,220.6,226.7,220.9,226.8L220.9,226.8z"/>
			<path class="st4" d="M216.5,223.6c0-0.4,0.4-1.3,0.9-2.1c0.7,0.9,1.1,1.7,1.2,2.1c0.1,0.4-0.4,1.3-0.9,2.1
				C217,224.8,216.5,224,216.5,223.6z"/>
			<path class="st4" d="M219,229.3c0.1,0.4-0.4,1.3-0.9,2.1c-0.7-0.9-1.1-1.6-1.2-2.1c0-0.4,0.4-1.3,0.9-2.1
				C218.5,228.1,218.9,228.9,219,229.3z"/>
			<path class="st4" d="M217,227c-0.3,1.1-0.6,1.9-0.9,2.2c-0.3,0.3-1.3,0.5-2.3,0.6c0.3-1.1,0.6-1.9,0.9-2.2
				C215,227.2,216,227,217,227L217,227z"/>
			<path class="st4" d="M218.3,226.1c0.3-1.1,0.6-1.9,0.9-2.2c0.3-0.3,1.3-0.5,2.3-0.6c-0.3,1.1-0.6,1.9-0.9,2.2
				C220.3,225.8,219.4,226,218.3,226.1L218.3,226.1z"/>
			<path class="st4" d="M218.3,226.5c0,0.3-0.2,0.5-0.5,0.5s-0.5-0.2-0.5-0.5s0.2-0.5,0.5-0.5S218.3,226.2,218.3,226.5z"/>
			<path class="st4" d="M196.6,237.2c-0.3-0.2-0.7-0.8-0.9-1.5c0.8,0,1.5,0,1.8,0.2c0.3,0.2,0.7,0.8,0.9,1.5
				C197.6,237.4,196.9,237.3,196.6,237.2z"/>
			<path class="st4" d="M201.3,237.8c0.3,0.2,0.7,0.8,0.9,1.5c-0.8,0.1-1.5,0-1.8-0.1c-0.3-0.2-0.7-0.8-0.9-1.5
				C200.3,237.6,201,237.7,201.3,237.8L201.3,237.8z"/>
			<path class="st4" d="M197.9,235.4c0-0.3,0.3-1,0.7-1.6c0.5,0.7,0.9,1.3,0.9,1.6c0,0.3-0.3,1-0.7,1.6
				C198.3,236.3,197.9,235.7,197.9,235.4L197.9,235.4z"/>
			<path class="st4" d="M199.8,239.7c0,0.3-0.3,1-0.7,1.6c-0.5-0.7-0.9-1.2-0.9-1.6c0-0.3,0.3-1,0.7-1.6
				C199.4,238.8,199.8,239.4,199.8,239.7z"/>
			<path class="st4" d="M198.3,237.9c-0.2,0.8-0.5,1.4-0.7,1.6c-0.2,0.2-1,0.4-1.7,0.4c0.2-0.8,0.5-1.4,0.7-1.6
				C196.8,238.1,197.5,238,198.3,237.9L198.3,237.9z"/>
			<path class="st4" d="M199.3,237.3c0.2-0.8,0.5-1.4,0.7-1.6c0.2-0.2,1-0.4,1.7-0.4c-0.2,0.8-0.5,1.4-0.7,1.6
				C200.8,237.1,200.1,237.2,199.3,237.3z"/>
			<path class="st4" d="M199.2,237.6c0,0.2-0.2,0.4-0.4,0.4s-0.4-0.2-0.4-0.4s0.2-0.4,0.4-0.4S199.2,237.4,199.2,237.6z"/>
			<path class="st4" d="M142.7,283.8c-0.4-0.2-0.8-1-1.1-1.8c1-0.1,1.8,0,2.1,0.2c0.4,0.2,0.8,1,1.1,1.8
				C143.8,284.1,143,284,142.7,283.8z"/>
			<path class="st4" d="M148.2,284.7c0.4,0.2,0.8,1,1.1,1.8c-1,0.1-1.8,0-2.1-0.2c-0.4-0.2-0.8-1-1.1-1.8
				C147.1,284.4,147.9,284.5,148.2,284.7L148.2,284.7z"/>
			<path class="st4" d="M144.2,281.7c0-0.4,0.3-1.2,0.9-2c0.6,0.8,1,1.5,1.1,1.9c0,0.4-0.3,1.2-0.9,1.9
				C144.6,282.8,144.2,282,144.2,281.7z"/>
			<path class="st4" d="M146.4,286.8c0,0.4-0.3,1.2-0.9,2c-0.6-0.8-1-1.5-1.1-1.9c0-0.4,0.3-1.2,0.8-1.9
				C146,285.8,146.4,286.5,146.4,286.8L146.4,286.8z"/>
			<path class="st4" d="M144.6,284.7c-0.2,1-0.6,1.7-0.9,2c-0.3,0.3-1.1,0.5-2.1,0.5c0.2-1,0.6-1.7,0.9-2
				C142.8,285,143.7,284.8,144.6,284.7L144.6,284.7z"/>
			<path class="st4" d="M145.8,284c0.3-1,0.6-1.7,0.9-2c0.3-0.3,1.2-0.5,2.1-0.5c-0.2,1-0.6,1.7-0.8,2
				C147.6,283.7,146.8,283.9,145.8,284z"/>
			<path class="st4" d="M145.8,284.3c0,0.2-0.2,0.4-0.4,0.4s-0.4-0.2-0.4-0.4s0.2-0.4,0.4-0.4S145.8,284.1,145.8,284.3z"/>
			<path class="st4" d="M97.7,265c-0.1-0.1-0.3-0.4-0.4-0.7c0.4,0,0.7,0,0.8,0.1c0.1,0.1,0.3,0.4,0.4,0.7
				C98.2,265.1,97.8,265.1,97.7,265L97.7,265z"/>
			<path class="st4" d="M99.9,265.3c0.1,0.1,0.3,0.4,0.4,0.7c-0.4,0-0.7,0-0.8-0.1c-0.1-0.1-0.3-0.4-0.4-0.7
				C99.4,265.2,99.8,265.3,99.9,265.3z"/>
			<path class="st4" d="M98.3,264.2c0-0.2,0.1-0.5,0.3-0.8c0.2,0.3,0.4,0.6,0.4,0.7c0,0.1-0.1,0.5-0.3,0.8
				C98.5,264.6,98.3,264.3,98.3,264.2L98.3,264.2z"/>
			<path class="st4" d="M99.2,266.2c0,0.1-0.1,0.5-0.3,0.8c-0.2-0.3-0.4-0.6-0.4-0.7c0-0.2,0.1-0.5,0.3-0.8
				C99,265.8,99.2,266.1,99.2,266.2L99.2,266.2z"/>
			<path class="st4" d="M98.5,265.4c-0.1,0.4-0.2,0.7-0.3,0.8c-0.1,0.1-0.4,0.2-0.8,0.2c0.1-0.4,0.2-0.7,0.3-0.8
				C97.8,265.5,98.1,265.4,98.5,265.4z"/>
			<path class="st4" d="M99,265.1c0.1-0.4,0.2-0.7,0.3-0.8c0.1-0.1,0.5-0.2,0.8-0.2c-0.1,0.4-0.2,0.7-0.3,0.8
				C99.7,265,99.3,265.1,99,265.1z"/>
			<path class="st4" d="M98.9,265.2c0,0.1-0.1,0.2-0.2,0.2c-0.1,0-0.2-0.1-0.2-0.2s0.1-0.2,0.2-0.2S98.9,265.1,98.9,265.2z"/>
			<path class="st4" d="M97.1,276.5c-0.5-0.3-1.1-1.3-1.6-2.5c1.4-0.1,2.5,0,3,0.3c0.5,0.3,1.1,1.3,1.6,2.5
				C98.7,276.9,97.6,276.8,97.1,276.5L97.1,276.5z"/>
			<path class="st4" d="M104.8,277.7c0.5,0.3,1.1,1.3,1.6,2.5c-1.4,0.1-2.5,0-3-0.3c-0.5-0.3-1.1-1.3-1.6-2.5
				C103.3,277.4,104.4,277.5,104.8,277.7L104.8,277.7z"/>
			<path class="st4" d="M99.2,273.6c-0.1-0.5,0.4-1.7,1.2-2.7c0.9,1.1,1.4,2.1,1.5,2.6c0.1,0.6-0.4,1.7-1.2,2.7
				C99.8,275.1,99.3,274.1,99.2,273.6z"/>
			<path class="st4" d="M102.4,280.8c0.1,0.6-0.4,1.7-1.2,2.7c-0.8-1.1-1.4-2.1-1.5-2.6c-0.1-0.6,0.4-1.7,1.2-2.7
				C101.7,279.3,102.3,280.3,102.4,280.8L102.4,280.8z"/>
			<path class="st4" d="M99.9,277.8c-0.3,1.3-0.8,2.4-1.2,2.7c-0.4,0.4-1.6,0.7-2.9,0.7c0.3-1.4,0.8-2.4,1.2-2.7
				C97.4,278.2,98.6,277.9,99.9,277.8L99.9,277.8z"/>
			<path class="st4" d="M101.6,276.7c0.4-1.3,0.8-2.4,1.2-2.7c0.4-0.4,1.6-0.7,2.9-0.7c-0.3,1.3-0.8,2.4-1.2,2.7
				C104,276.4,102.8,276.7,101.6,276.7z"/>
			<path class="st4" d="M101.5,277.3c0,0.3-0.3,0.6-0.6,0.6s-0.6-0.3-0.6-0.6s0.3-0.6,0.6-0.6S101.5,277,101.5,277.3z"/>
			<path class="st4" d="M131.5,258.4c-0.2-0.1-0.5-0.6-0.7-1.2c0.7,0,1.2,0,1.4,0.1c0.2,0.1,0.6,0.6,0.7,1.2
				C132.3,258.6,131.7,258.6,131.5,258.4z"/>
			<path class="st4" d="M135.2,259c0.2,0.1,0.5,0.6,0.8,1.2c-0.7,0-1.2,0-1.4-0.1c-0.2-0.1-0.5-0.6-0.8-1.2
				C134.5,258.8,135,258.9,135.2,259z"/>
			<path class="st4" d="M132.5,257c0-0.3,0.2-0.8,0.6-1.3c0.4,0.5,0.7,1,0.7,1.2c0,0.3-0.2,0.8-0.6,1.3
				C132.8,257.7,132.6,257.3,132.5,257L132.5,257z"/>
			<path class="st4" d="M134,260.5c0,0.3-0.2,0.8-0.6,1.3c-0.4-0.5-0.7-1-0.7-1.2c0-0.3,0.2-0.8,0.6-1.3
				C133.7,259.7,134,260.2,134,260.5L134,260.5z"/>
			<path class="st4" d="M132.8,259.1c-0.2,0.6-0.4,1.1-0.6,1.3c-0.2,0.2-0.8,0.3-1.4,0.3c0.2-0.6,0.4-1.2,0.6-1.3
				C131.7,259.2,132.2,259.1,132.8,259.1L132.8,259.1z"/>
			<path class="st4" d="M133.7,258.5c0.2-0.6,0.4-1.1,0.6-1.3c0.2-0.2,0.8-0.3,1.4-0.3c-0.2,0.6-0.4,1.1-0.6,1.3
				C134.8,258.4,134.3,258.5,133.7,258.5L133.7,258.5z"/>
			<path class="st4" d="M133.6,258.8c0,0.2-0.1,0.3-0.3,0.3c-0.2,0-0.3-0.1-0.3-0.3c0-0.1,0.1-0.3,0.3-0.3
				C133.5,258.5,133.6,258.6,133.6,258.8z"/>
		</g>
		<rect x="56.2" y="362.7" class="st5" width="489.5" height="1.9"/>
		<rect x="56.2" y="423.8" class="st5" width="489.5" height="1.9"/>
		<path class="st4" d="M359.6,278.3c-1.1,0-6.5-0.2-6.5-0.2l-2.2-0.6l-1.3-1.3c0,0-0.7-0.9-0.9-1.5s-2.4-1.3-2.4-1.3l-1.9-0.9
			l-3.7-4.5l-1.5-0.6c0,0-1.3-0.9-1.5-1.9c-0.2-0.9-9.8-33.8-10.2-35.3c-0.4-1.5-0.2-5.8,0-8.2c0.2-2.4-0.9-3.5-1.5-5.2
			s-6.7-14.1-9.9-20.6c-3.2-6.5-12.1-21-12.1-21l-0.2-1.5l0.2-4.1v-1.7l0.2-4.3c0,0,0.6-1.9,1.3-3.3c0.8-1.5-0.2-7.2-0.2-7.2
			s3.5,0.9,5,0.6c1.5-0.4,8-0.2,14.1-1.3c6.1-1.1,8.7-2.1,8.7-2.1l3-0.2c0,0,3.1-0.2,4.3-0.4c1.1-0.2,4.6-2.6,4.6-2.6l1.3-0.9
			l1.1-1.7c0,0,0-1.1-0.4-1.7s-0.9-1.9-0.9-1.9l-0.6-1.7c0,0-1.5-2.4-2.2-2.8c-0.7-0.4-3.5,0.4-3.5,0.4s-1.1-0.2-2.4,0.4
			c-1.3,0.6-3.3,5.8-3.3,5.8s-14.5,0.9-16.5,0.9s-11.3-3.2-11.3-3.2l0.2-6.9c0,0,3.5-2.5,4.8-3.7c2-1.9,0.7-2.8,0.2-4.8
			s-3.5-5.2-4.8-7.4c-1.3-2.2-4.5-11.5-4.5-11.5s-0.6-1.1-1.3-1.8c-0.7-0.8,0.9-3.5,0.9-3.5s2-4.3,3-4.5c0.9-0.2,5.6-0.4,6.9-0.9
			c1.3-0.6,0.6-2.8,0.6-2.8l0.6-0.7l-0.2-1.5l0.4-1.1l0.2-1.9c0,0,0.9-0.2,1.1-1.3c0.2-1.1-2.4-4.1-2.4-4.8V79c0,0-0.8-2.8-2.8-5.9
			c-2-3.2-5.4-4.1-11.7-5s-8.5,3.5-9.3,4.1c-0.8,0.6-2.8-1.7-4.1-2.2c-1.3-0.6-1.7-0.2-3.9,0.9c-2.2,1.1-0.9,1.9-2.2,9.1
			c-1.3,7.2,5.6,12.1,5.6,12.1l0.9-1.5l-0.2-1.5v-2l1.3-0.4l-1.1-4.6l1.1-0.2c0,0-0.4-2.8-0.4-4.1s-0.2-2.6-0.2-2.6l1.9-0.7
			c0,0,0,1.5-0.2,2.6c-0.2,1.1-0.6,4.8-0.4,5.8c0.2,0.9,0.9,1.5,0.9,4.3s3,5.8,3,5.8v3.7c0,1.1-2,4.3-3,6.1
			c-0.9,1.9-2.8,2.6-2.8,2.6l-1.9,1.7c0,0-0.7,3.5-2.2,7.1c-1.5,3.5-0.9,11.5-0.9,11.5l-7.8,12.8c0,0-1.7,2.8-3,7.2
			c-1.3,4.5-3.9,26-3.9,26s-0.6,3.2-1.5,5.8c-0.9,2.6-0.6,6.9-0.6,6.9l0.4,1.9l1.7,1.3l1.9,1.3l1.5-0.2l0.6,5.9v3l-0.6,4.6
			c0,0-2,6.3-2.4,6.9s-1.5,4.3-1.5,4.3l-4.1,12.6c0,0-4.3,12.1-5,14.7c-0.7,2.6-6.1,17.8-9.3,24.3c-3.2,6.5-5.6,15.4-5.6,16.7
			s3.7,2.4,3.7,2.4l-0.9,4.6c0,0-1.1,2-0.9,3c0.2,0.9,7.4,3,8.2,3s3-1.7,3-1.7l3.7,2.4l16.9-0.2c0,0,0.6-0.7,1.5-0.7
			s0.8-2.2,0.8-3.2s-1.9-1.1-2.8-1.5c-0.9-0.4-6.9-3-6.9-3s0.2-27.7,0.4-29.4c0.2-1.7,1.1-6.1,2.8-7.4c1.7-1.3,5.6-4.1,5.6-4.1
			l2.4-5.8c0,0,1.3-3.3,3.3-6.5s2.4-10,2.4-11.7s7.8-18.6,7.8-18.6s14.3,17.5,15.8,20.8c1.5,3.3,1.7,9.1,4.1,17.1
			c2.4,8,11,21.4,11,21.4v4.5c0,2,2.4,11.3,2.4,11.3l1.3,0.4h1.3l1.1,1.5l0.8,1.9l1.1,8.9l10.4-1.5l2.4-1.9c0,0,3.5,0.6,6.5,0.4
			c3-0.2,11.3-5.2,11.3-5.2s0.9-1.1,0.9-2.4S360.7,278.3,359.6,278.3L359.6,278.3L359.6,278.3z M280.1,150.1L280.1,150.1
			c-0.9,2-2.2,5.2-2.2,5.2l-1.3,2c0,0-0.4,0.8-0.8,1.5c-0.4,0.8-3,5.4-3,5.4s4.3-12.1,4.5-14.1c0.2-2.1,0.9-5,1.3-6.1
			s2.8-3.7,2.8-3.7S281,148.1,280.1,150.1L280.1,150.1z"/>
		<path class="st6" d="M361.2,277.7c-1.1,0-6.5-0.2-6.5-0.2l-2.2-0.6l-1.3-1.3c0,0-0.7-0.9-0.9-1.5c-0.2-0.6-2.4-1.3-2.4-1.3
			l-1.9-0.9l-3.7-4.5l-1.5-0.6c0,0-1.3-0.9-1.5-1.8c-0.2-0.9-9.8-33.8-10.2-35.3c-0.4-1.5-0.2-5.8,0-8.2c0.2-2.4-0.9-3.5-1.5-5.2
			s-6.7-14.1-9.9-20.6c-3.2-6.5-12.1-21-12.1-21l-0.2-1.5l0.2-4.1v-1.7l0.2-4.3c0,0,0.6-1.9,1.3-3.4s-0.2-7.2-0.2-7.2s3.5,0.9,5,0.6
			c1.5-0.4,8-0.2,14.1-1.3c6.1-1.1,8.7-2,8.7-2l3-0.2c0,0,3.2-0.2,4.3-0.4c1.1-0.2,4.6-2.6,4.6-2.6l1.3-0.9l1.1-1.7
			c0,0,0-1.1-0.4-1.7s-0.9-1.8-0.9-1.8l-0.6-1.7c0,0-1.5-2.4-2.2-2.8c-0.8-0.4-3.5,0.4-3.5,0.4s-1.1-0.2-2.4,0.4
			c-1.3,0.6-3.4,5.8-3.4,5.8s-14.5,0.9-16.5,0.9s-11.3-3.2-11.3-3.2l0.2-6.9c0,0,3.5-2.5,4.8-3.7c2-1.9,0.7-2.8,0.2-4.8
			c-0.6-2-3.5-5.2-4.8-7.4s-4.5-11.5-4.5-11.5s-0.5-1.1-1.3-1.9c-0.7-0.7,0.9-3.5,0.9-3.5s2-4.3,3-4.5s5.6-0.4,6.9-0.9
			s0.6-2.8,0.6-2.8l0.5-0.7l-0.2-1.5l0.4-1.1l0.2-1.9c0,0,0.9-0.2,1.1-1.3c0.2-1.1-2.4-4.1-2.4-4.8v-2.8c0,0-0.7-2.8-2.8-6
			c-2-3.1-5.4-4.1-11.7-5c-6.3-0.9-8.5,3.5-9.3,4.1c-0.7,0.6-2.8-1.7-4.1-2.2c-1.3-0.6-1.7-0.2-3.9,0.9c-2.2,1.1-0.9,1.9-2.2,9.1
			c-1.3,7.2,5.6,12.1,5.6,12.1l0.9-1.5l-0.2-1.5v-2l1.3-0.4l-1.1-4.7l1.1-0.2c0,0-0.4-2.8-0.4-4.1s-0.2-2.6-0.2-2.6l1.9-0.7
			c0,0,0,1.5-0.2,2.6c-0.2,1.1-0.6,4.8-0.4,5.8c0.2,0.9,0.9,1.5,0.9,4.3s3,5.8,3,5.8v3.7c0,1.1-2,4.3-3,6.1
			c-0.9,1.8-2.8,2.6-2.8,2.6l-1.9,1.7c0,0-0.8,3.5-2.2,7.1c-1.5,3.5-0.9,11.5-0.9,11.5l-7.8,12.8c0,0-1.7,2.8-3,7.2s-3.9,26-3.9,26
			s-0.6,3.2-1.5,5.8c-0.9,2.6-0.6,6.9-0.6,6.9l0.4,1.9l1.7,1.3l1.8,1.3l1.5-0.2l0.6,5.9v3l-0.6,4.6c0,0-2,6.3-2.4,6.9
			c-0.4,0.6-1.5,4.3-1.5,4.3l-4.1,12.6c0,0-4.3,12.1-5,14.7c-0.7,2.6-6.1,17.8-9.3,24.3c-3.2,6.5-5.6,15.4-5.6,16.7s3.7,2.4,3.7,2.4
			l-0.9,4.6c0,0-1.1,2-0.9,3c0.2,0.9,7.4,3,8.2,3s3-1.7,3-1.7l3.7,2.4l16.9-0.2c0,0,0.6-0.8,1.5-0.8s0.8-2.2,0.8-3.2
			s-1.9-1.1-2.8-1.5c-0.9-0.4-6.9-3-6.9-3s0.2-27.7,0.4-29.4c0.2-1.7,1.1-6.1,2.8-7.4c1.7-1.3,5.6-4.1,5.6-4.1l2.4-5.8
			c0,0,1.3-3.3,3.4-6.5c2-3.2,2.4-10,2.4-11.7s7.8-18.6,7.8-18.6s14.3,17.5,15.8,20.8c1.5,3.3,1.7,9.1,4.1,17.1
			c2.4,8,11,21.4,11,21.4v4.5c0,2,2.4,11.3,2.4,11.3l1.3,0.4h1.3l1.1,1.5l0.7,1.9l1.1,8.9l10.4-1.5l2.4-1.9c0,0,3.5,0.6,6.5,0.4
			c3-0.2,11.3-5.2,11.3-5.2s0.9-1.1,0.9-2.4S362.4,277.7,361.2,277.7L361.2,277.7L361.2,277.7z M281.7,149.5L281.7,149.5
			c-0.9,2-2.2,5.2-2.2,5.2l-1.3,2c0,0-0.4,0.7-0.7,1.5c-0.4,0.7-3,5.4-3,5.4s4.3-12.1,4.5-14.1c0.2-2,0.9-5,1.3-6.1s2.8-3.7,2.8-3.7
			S282.7,147.5,281.7,149.5L281.7,149.5z"/>
		<path class="st4" d="M361.5,277.5c-2.2,0-4.8,0.2-7-0.3c-2.4-0.6-2.9-2.4-4.5-3.8c-3.1-2.6-7.9-4.8-10.2-8.5
			c-1.7-2.7-2.2-7.6-3.1-10.6c-1.8-6.3-3.7-12.6-5.5-18.9c-1.3-4.3-1.9-7.6-1.8-12.2c0.3-6.5-4.3-13.3-7.1-19
			c-3.1-6.5-6.3-12.8-9.9-19c-2-3.5-6.6-8.3-6.4-12.6c0.2-5,0.8-8.9,1.9-13.8c0.2-0.9,0.2-5.6-0.7-5.8c2.4,0.6,4.5,0.4,7,0.2
			c7-0.5,13.8-1,20.5-3.1c2.7-0.8,6,0.4,8.6-1.1c1.2-0.7,6.5-3,6.3-5.1c-0.2-2.8-2.4-7.9-5.5-8.1c-1-0.1-4.4,0.4-5.3,1
			c-1.5,1-2.2,3-2.9,4.5c-0.9,1.9-3.1,1.3-5.8,1.5c-4.6,0.3-9.3,1-13.8-0.1c-2.4-0.6-4.7-1.4-7-2.1c-1.6-0.5-0.8-3-0.8-4.4
			c0.1-4,3-3.4,4.9-6.4c3-4.5-3.1-9.3-5.1-13.2c-2.3-4.4-9.4-19.6,0.4-20.4c6.7-0.6,4.6-1.9,6.4-7.1c0.5-1.3,1.4-3,1-4.3
			c-0.7-2.7-2.1-3.4-2.1-6.5c0-1.7-1.9-4.8-2.8-6c-4.1-5.2-13.5-6.9-19.2-3.4c-0.9,0.6-1.6,1.5-2.3,2.3c-0.1,0.2-3.8-2.3-4.8-2.3
			c-1.2-0.1-3.4,1-4.2,1.8c-2.1,2.3-1.5,7.9-1.8,10.9c-0.3,3.8,2.9,7.8,5.8,10c0.2,0.1,0.8,0,0.9-0.2c0.8-1.3,0.4-4.8,1.6-5.2
			c0.1,0,0.5-0.1,0.4-0.3c-0.2-1-1.7-4.3-0.5-4.5c0.1,0,0.6-0.1,0.5-0.3c-0.2-1.4-0.3-2.7-0.4-4.1c0,0,0.8-4,0.8-2.2
			c-0.1,2.7-1.2,5.7-0.2,8.4c1,2.8,0.5,5.5,2.6,7.9c3,3.6-0.9,11.6-4.5,13.4c-3.6,1.8-4.5,8.7-5,12.2c-0.4,2.6-0.3,5.3-0.2,7.9
			c0.1,1.7-2.6,4.7-3.5,6.1c-2.4,3.9-4.8,7.6-6.5,11.8c-2.4,6.1-2.7,13.2-3.6,19.6c-0.6,4.2-0.9,8.4-2,12.6c-1,4.1-2.9,9.2,0.9,12.1
			c2.9,2.3,3.3,1,3.7,5.5c0.4,4.6-0.3,8.7-1.7,13.1c-2.7,8-5.3,16-8.1,24c-4.4,12.4-8.3,24.9-13.8,36.9c-0.8,1.8-6.7,14.1-4.1,15.7
			c2.5,1.5,3.1,1.2,2.5,4.4c-0.2,0.8-1.6,4.2-1.2,4.7c1.5,1.6,6.4,3.4,8.5,3c1-0.2,1.9-0.9,2.8-1.4c0.8-0.5,2.8,2.1,3.7,2.1
			c5.9,0.4,13.2,0.9,18.8-1c3.3-1.1-0.1-4.4-1.8-4.9c-6.6-2-6.8-2.7-6.8-8.8c0-6,0.1-11.9,0.2-17.9c0.1-7.5,1.4-11.9,8-16.7
			c2.3-1.6,3.6-7.8,4.9-10.3c3.1-6.1,2.8-12.1,5.3-18.3c1.9-4.8,4.1-9.5,6.3-14.2c-0.8,1.7,6.8,9.5,8.6,11.9
			c4.2,5.4,6.8,9.1,8.1,15.8c1.8,9.4,5,17.3,9.7,25.5c1.1,2,2.4,4,3.6,6c0.9,1.4,0.1,4.8,0.4,6.6c0.3,2.1,0.6,9.8,3.6,9.8
			c4.1,0,3.8,9.6,4.1,12.2c0,0.1,0.3,0.1,0.4,0c3.5-0.5,6.9-1,10.4-1.5c0.8-0.1,1.7-1.1,2.2-1.5c1.3-1,5.1,0.3,6.7,0.1
			C353.1,287.1,369.1,280.5,361.5,277.5c-0.1-0.1-1,0.3-0.7,0.4c6.3,2.5-4.1,7-5,7.5c-4.1,2.1-7.4,0.7-11.4,1.4
			c-0.8,0.1-1.7,1.1-2.2,1.5c-1.7,1.3-5.4,1.1-7.5,1.4c-2.8,0.4-2.7,0.9-3-1.8c-0.3-2.5-0.3-5.2-1.2-7.5c-0.5-1.2-0.9-2.5-2.3-2.5
			c-2.9,0-2.9-4.6-3.4-6.8c-0.7-3-0.9-5.6-0.9-8.6c0-1.8-1.9-3.9-2.8-5.4c-5.1-8.7-8.6-17.1-10.5-27c-2.1-10.9-10.6-19.2-17.5-27.6
			c-0.1-0.2-0.8,0.1-0.9,0.2c-2.6,5.8-6.7,12.3-7.8,18.6c-1.4,8-3.8,20.8-11,26c-5.8,4.2-5.6,9.9-5.7,16.5
			c-0.1,7.5-0.2,14.9-0.2,22.4c0,0,0,0,0,0c2.3,1,4.6,2,6.9,3c6,2.5,1.3,5-1.2,5c-6.5,0.1-12.5,1.4-18-2.2c-0.2-0.1-0.6,0-0.8,0.1
			c-3.2,2.3-6.8,0.6-10-1c-0.6-0.3,1.4-7.2,1.5-7.9c0-0.1,0-0.1-0.1-0.1c-6.4-2.2-1.6-10.4,0.1-14.9c2.3-6,5.1-11.7,7.3-17.7
			c3.1-8.3,5.7-16.8,8.7-25.2c4.4-12.6,9.3-24.2,8.1-37.6c0-0.1-0.3-0.1-0.4-0.1c-9.4,1.2-2.7-18.8-2.1-24.1
			c1.5-11.8,3.3-21.6,9.5-31.8c2.1-3.5,4.3-5.8,4.2-9.8c-0.2-6.6,1.2-14.5,6.7-18.5c1.8-1.3,6.3-9.2,4.2-11.5
			c-4.8-5.2-3.5-12-3.3-18.3c0-0.2-0.5,0-0.6,0c-0.6,0.2-1.2,0.5-1.9,0.7c-0.1,0-0.3,0.1-0.3,0.2c0.1,1.2,1.1,6.4,0,6.6
			c-0.1,0-0.6,0.1-0.5,0.3c0.3,1.3,1.8,4.3,0.2,4.7c-0.1,0-0.4,0.1-0.4,0.3c0,2,1,5.6-1.3,3.5c-4.3-3.9-4.3-7.9-3.7-13.2
			c0.2-1.7,0.2-3.5,0.5-5.2c0.8-4.9,6.6-0.3,8.5,0.1c0.2,0,0.5,0,0.7-0.2c4.6-3.1,9.6-4.1,15.2-2.6c4.3,1.2,7.8,6.2,7.8,10.6
			c0,2.5,3.4,5.6,1.3,7.7c-0.5,0.5-0.6,2.9-0.5,3.8c0.5,4.2-5.7,3.4-7.9,5.1c-1.6,1.3-2.3,3.2-3.3,4.9c-1.6,2.9-0.2,2.5,0.7,5.2
			c1.1,3.1,2.2,6.2,3.4,9.2c1.4,3.5,4.3,6.1,5.8,9.5c2.2,4.9-3.7,5.5-5,8.5c-0.8,1.7-0.1,5.1-0.2,6.9c0,0,0,0.1,0.1,0.1
			c10,3.4,17.5,2.9,28,2.2c0.2,0,0.6-0.1,0.6-0.3c1.5-3.8,6.6-9.8,10.6-3.5c3.1,4.8,0.2,9.5-5.7,10.2c-10.8,1.3-23,5.8-33.8,3.2
			c-0.1,0-0.9,0.1-0.8,0.3c0.9,5.7-1.3,10.8-1.3,16.5c0,1.9-0.7,4.4,0.3,6.1c2,3.3,4,6.6,5.9,9.9c4.6,7.9,8.6,16.1,12.5,24.4
			c1.6,3.3,3.1,6.6,4.4,9.9c1.3,3.2-0.6,7.4,0.4,10.8c3.2,11.6,7.1,23,10,34.7c0.5,1.9,2.9,2.3,4,3.6c2.1,2.5,3.4,3.6,6.3,5
			c2.1,0.9,2,3.2,4.6,3.8c2.3,0.6,4.8,0.3,7.1,0.3C361.1,277.9,361.9,277.5,361.5,277.5L361.5,277.5z"/>
		<path class="st4" d="M281.3,149.6c-1.6,3.6-3.3,7-5.2,10.5c-0.6,1-1.1,2-1.7,3.1c-0.6,1,0.6,0.3,0.8-0.2c0.7-2,1.4-4.1,2.1-6.1
			c1.5-4.5,2.1-9,3.4-13.5c0.4-1.3,1.7-2.4,2.6-3.5c-0.7,0.8-0.7,0.2-0.8,1.8C282.3,144.3,282.2,147.1,281.3,149.6
			c-0.1,0.2,0.8,0.1,0.9-0.1c1.1-3.1,1.1-6.7,1.3-9.9c0-0.2-0.8,0.1-0.9,0.1c-3.3,3.7-3.4,7.4-4.6,12c-1.1,4.1-2.6,8-4,12
			c-0.1,0.2,0.8,0,0.9-0.1c2.6-4.7,5.1-9.2,7.2-14.1C282.3,149.3,281.4,149.4,281.3,149.6L281.3,149.6z"/>
		<path class="st1" d="M77.3,358.4c-4.8,2.6-10.9,3.8-18.1,3.8c-9.3,0-16.8-3-22.4-9c-5.6-6-8.4-13.9-8.4-23.7
			c0-10.5,3.2-19,9.5-25.5c6.3-6.5,14.3-9.7,24-9.7c6.2,0,11.4,0.9,15.4,2.7v8.2c-4.7-2.6-9.9-3.9-15.5-3.9
			c-7.5,0-13.6,2.5-18.3,7.6c-4.7,5-7,11.8-7,20.2s2.2,14.4,6.6,19.1c4.4,4.8,10.1,7.1,17.2,7.1c6.6,0,12.3-1.5,17.1-4.4L77.3,358.4
			L77.3,358.4L77.3,358.4z M141.5,361.1H133l-6.9-18.4H98.2l-6.6,18.4h-8.5l25.2-65.6h8L141.5,361.1L141.5,361.1z M123.5,335.8
			l-10.3-28c-0.3-0.9-0.7-2.4-1.1-4.3H112c-0.3,1.8-0.7,3.3-1.1,4.4l-10.2,27.9H123.5L123.5,335.8z M218.1,361.1h-7.7v-44
			c0-3.5,0.2-7.7,0.7-12.8h-0.2c-0.7,3-1.4,5.1-2,6.4l-22.4,50.4h-3.8l-22.4-50.1c-0.6-1.5-1.3-3.7-2-6.7h-0.2
			c0.2,2.6,0.4,6.9,0.4,12.9v43.9h-7.4v-65.6h10.1l20.1,45.8c1.6,3.5,2.6,6.1,3,7.9h0.3c1.3-3.6,2.4-6.3,3.2-8.1l20.5-45.6h9.7
			L218.1,361.1L218.1,361.1L218.1,361.1z M249.4,295.5v6.6H243v52.5h6.4v6.6H229v-6.6h6.4v-52.5H229v-6.6H249.4z M313.1,361.1h-9.4
			L270,308.8c-0.9-1.3-1.6-2.7-2.1-4.1h-0.3c0.2,1.4,0.4,4.4,0.4,9v47.4h-7.7v-65.6h9.9l32.9,51.5c1.4,2.1,2.2,3.6,2.7,4.4h0.2
			c-0.3-1.9-0.5-5.1-0.5-9.6v-46.2h7.7V361.1L313.1,361.1L313.1,361.1z M379.7,361.1H372v-29.9h-33.9v29.9h-7.7v-65.6h7.7v28.8H372
			v-28.8h7.7V361.1L379.7,361.1z M447.8,361.1h-8.5l-6.9-18.4h-27.9l-6.6,18.4h-8.5l25.2-65.6h8L447.8,361.1L447.8,361.1z
			 M429.8,335.8l-10.3-28c-0.3-0.9-0.7-2.4-1.1-4.3h-0.2c-0.3,1.8-0.7,3.3-1.1,4.4L407,335.8H429.8L429.8,335.8z M457.4,361.1v-65.6
			h18.1c23.1,0,34.7,10.6,34.7,32c0,10.1-3.2,18.3-9.6,24.4c-6.4,6.1-15,9.2-25.8,9.2L457.4,361.1L457.4,361.1z M465.1,302.5v51.7
			h9.8c8.6,0,15.3-2.3,20.1-6.9c4.8-4.6,7.2-11.1,7.2-19.6c0-16.8-8.9-25.2-26.8-25.2L465.1,302.5L465.1,302.5z M573.9,361.1h-8.5
			l-6.9-18.4h-27.9l-6.6,18.4h-8.5l25.2-65.6h8L573.9,361.1L573.9,361.1z M556,335.8l-10.3-28c-0.3-0.9-0.7-2.4-1.1-4.3h-0.2
			c-0.3,1.8-0.7,3.3-1.1,4.4l-10.2,27.9H556L556,335.8z"/>
		<path class="st1" d="M30.6,421.6v-44.2h12.2c15.6,0,23.4,7.2,23.4,21.5c0,6.8-2.2,12.3-6.5,16.5c-4.3,4.1-10.1,6.2-17.4,6.2H30.6
			L30.6,421.6z M35.8,382.1V417h6.6c5.8,0,10.3-1.6,13.5-4.7c3.2-3.1,4.8-7.5,4.8-13.2c0-11.3-6-17-18-17L35.8,382.1L35.8,382.1z
			 M109.1,421.6h-5.8l-4.7-12.4H79.9l-4.4,12.4h-5.8l17-44.2h5.4L109.1,421.6L109.1,421.6z M97,404.6l-6.9-18.9
			c-0.2-0.6-0.5-1.6-0.7-2.9h-0.1c-0.2,1.2-0.4,2.2-0.7,3l-6.9,18.8H97L97,404.6z M178,421.6h-5.2V392c0-2.3,0.2-5.2,0.5-8.6h-0.1
			c-0.5,2-0.9,3.4-1.3,4.3l-15.1,34h-2.5l-15.1-33.7c-0.4-1-0.9-2.5-1.3-4.5h-0.1c0.2,1.8,0.2,4.7,0.2,8.7v29.6h-5v-44.2h6.8
			l13.6,30.8c1.1,2.4,1.7,4.1,2,5.3h0.2c0.9-2.4,1.6-4.2,2.1-5.4l13.8-30.7h6.5L178,421.6L178,421.6L178,421.6z M223.9,421.6h-5.8
			l-4.7-12.4h-18.8l-4.4,12.4h-5.8l17-44.2h5.4L223.9,421.6L223.9,421.6L223.9,421.6z M211.8,404.6l-6.9-18.9
			c-0.2-0.6-0.5-1.6-0.7-2.9H204c-0.2,1.2-0.4,2.2-0.7,3l-6.9,18.8H211.8L211.8,404.6z M214,366c0,2.2-0.5,3.9-1.5,5.3
			c-1,1.4-2.3,2-4,2c-1.4,0-3.1-0.5-5-1.6c-1.6-0.9-2.8-1.3-3.7-1.3c-1.8,0-2.7,1.2-2.7,3.5h-2.9c0-2.2,0.5-4,1.5-5.3
			c1-1.3,2.4-2,4.1-2c1.3,0,2.9,0.5,4.6,1.6c1.5,0.9,2.8,1.3,3.9,1.3c1.7,0,2.6-1.2,2.6-3.5L214,366L214,366z M253.8,421.6h-23.4
			v-44.2h22.4v4.7h-17.2v14.7h16v4.7h-16v15.5h18.2V421.6L253.8,421.6L253.8,421.6z M284.8,404.9v16.7h-5.2v-44.2h12.1
			c4.7,0,8.4,1.1,11,3.5c2.6,2.3,3.9,5.5,3.9,9.7s-1.4,7.6-4.3,10.3c-2.9,2.7-6.8,4-11.7,4L284.8,404.9L284.8,404.9z M284.8,382.1
			v18.1h5.4c3.6,0,6.3-0.8,8.2-2.5c1.9-1.6,2.8-3.9,2.8-6.9c0-5.8-3.5-8.8-10.4-8.8L284.8,382.1L284.8,382.1z M332.8,422.4
			c-6.3,0-11.3-2.1-15-6.2c-3.8-4.1-5.7-9.5-5.7-16.1c0-7.1,1.9-12.8,5.8-17c3.8-4.2,9.1-6.4,15.7-6.4c6.1,0,11,2,14.8,6.2
			c3.7,4.1,5.6,9.5,5.6,16.1c0,7.2-1.9,12.9-5.7,17.1C344.4,420.3,339.2,422.4,332.8,422.4L332.8,422.4L332.8,422.4z M333.2,381.3
			c-4.6,0-8.4,1.7-11.3,5c-2.9,3.4-4.4,7.8-4.4,13.2s1.4,9.8,4.2,13.2c2.8,3.3,6.5,5,11,5c4.9,0,8.7-1.6,11.5-4.8
			c2.8-3.2,4.2-7.6,4.2-13.3s-1.4-10.4-4.1-13.5C341.7,382.9,338,381.3,333.2,381.3L333.2,381.3L333.2,381.3z M388.8,382.1H376v39.5
			h-5.2v-39.5h-12.8v-4.7h30.7L388.8,382.1L388.8,382.1L388.8,382.1z M391.4,421.6v-4.4h4.3v-35.4h-4.3v-4.4h13.8v4.4h-4.3v35.4h4.3
			v4.4H391.4z M445.6,418.6c-16.1,9.1-35.9,1.8-35.9-18.5c0-18.8,19-28.8,35-21.1v5.8c-13-8.2-29.6-1.7-29.6,15
			c0,15.6,13.8,22.2,25.3,15.9v-12.4h-9.7v-4.7h14.8L445.6,418.6L445.6,418.6L445.6,418.6z M488.2,403.8c0,12.4-5.6,18.6-16.8,18.6
			s-16.1-6-16.1-17.9v-27h5.2v26.7c0,9.1,3.8,13.6,11.5,13.6s11.1-4.4,11.1-13.1v-27.2h5.2V403.8L488.2,403.8z M533.5,421.6h-5.8
			l-4.7-12.4h-18.8l-4.4,12.4h-5.8l17-44.2h5.4L533.5,421.6L533.5,421.6z M521.4,404.6c-2.4-6.5-6.5-15.2-7.6-21.8h-0.1
			c-1.1,6.3-5.3,15.5-7.6,21.8H521.4L521.4,404.6z M571.7,421.6h-6.2c-9.8-16.3-8.4-18.8-20.3-18.8v18.8H540v-44.2
			c9.5,0,26.7-2.5,26.7,11.8c0,6.1-4.1,10.4-9.8,11.9v0.1C561.9,403.5,569.3,417.9,571.7,421.6L571.7,421.6L571.7,421.6z
			 M545.2,382.1v16c6.6,0,16,0.7,16-8.5C561.2,380.9,551.5,382.1,545.2,382.1L545.2,382.1z"/>
	</g>
</g>
</svg>
