<svg width="24" height="24" viewBox="0 0 24 24" fill="none" xmlns="http://www.w3.org/2000/svg">
<circle cx="12" cy="12" r="12" fill="#333333"/>
<path d="M11.3979 18C11.0623 18 10.785 17.7378 10.7664 17.4026L10.5297 13.1414C10.5109 12.8037 10.3228 12.4984 10.0296 12.3298L9.12579 11.8103C8.85745 11.6561 8.51579 11.7978 8.43533 12.0966C8.40285 12.2173 8.41956 12.3459 8.48179 12.4542L9.30194 13.8819C9.46653 14.1684 9.36847 14.534 9.08262 14.6997C8.79636 14.8657 8.4298 14.7685 8.26329 14.4826L7.29222 12.8151C7.1563 12.5817 7.12057 12.3032 7.19317 12.0431L7.68949 10.2646C7.76006 10.0118 7.92723 9.79678 8.15492 9.6661L10.1163 8.54046C10.6875 8.21263 10.7913 7.43174 10.3256 6.96604L10.0202 6.6606C9.78791 6.42832 9.78791 6.05173 10.0202 5.81945C10.252 5.58762 10.6277 5.58711 10.8602 5.81831L12.3453 7.29532C12.7757 7.72343 12.6816 8.44358 12.1557 8.74675L11.5561 9.09232C11.3028 9.2383 11.2683 9.59009 11.4883 9.7826C11.6449 9.91966 11.8776 9.92359 12.0388 9.79189L16.2386 6.36038C16.4838 6.16 16.8442 6.19199 17.0503 6.43244C17.2477 6.66279 17.2355 7.00605 17.0222 7.22183L12.5681 11.7284C12.3952 11.9033 12.2928 12.1358 12.2805 12.3814L12.0297 17.3991C12.0128 17.7357 11.735 18 11.3979 18ZM7.79961 9.00002C7.46961 9.00002 7.18701 8.88242 6.95181 8.64722C6.71701 8.41242 6.59961 8.13002 6.59961 7.80002C6.59961 7.47002 6.71701 7.18742 6.95181 6.95222C7.18701 6.71742 7.46961 6.60002 7.79961 6.60002C8.12961 6.60002 8.41201 6.71742 8.64681 6.95222C8.88201 7.18742 8.99961 7.47002 8.99961 7.80002C8.99961 8.13002 8.88201 8.41242 8.64681 8.64722C8.41201 8.88242 8.12961 9.00002 7.79961 9.00002Z" fill="white"/>
</svg>
