<svg width="24" height="24" viewBox="0 0 24 24" fill="none" xmlns="http://www.w3.org/2000/svg">
<circle cx="12" cy="12" r="12" fill="#333333"/>
<path d="M12 7.80002C11.334 7.80002 10.8 8.33402 10.8 9.00002C10.8 9.66602 11.334 10.2 12 10.2C12.666 10.2 13.2 9.66602 13.2 9.00002C13.2 8.33402 12.666 7.80002 12 7.80002ZM17.4 5.40002C17.7314 5.40002 18 5.66865 18 6.00002V7.80002C18 8.1314 17.7314 8.40002 17.4 8.40002C17.0686 8.40002 16.8 8.1314 16.8 7.80002C16.8 7.46865 16.5314 7.20002 16.2 7.20002H7.8C7.46863 7.20002 7.2 7.46865 7.2 7.80002C7.2 8.1314 6.93137 8.40002 6.6 8.40002C6.26863 8.40002 6 8.13139 6 7.80002V6.00002C6 5.66865 6.26863 5.40002 6.6 5.40002C6.93137 5.40002 7.2 5.66865 7.2 6.00002C7.2 6.3314 7.46863 6.60002 7.8 6.60002H16.2C16.5314 6.60002 16.8 6.3314 16.8 6.00002C16.8 5.66865 17.0686 5.40002 17.4 5.40002ZM14.3105 11.2351C14.0123 11.456 13.8 11.7884 13.8 12.1596V18C13.8 18.3314 13.5314 18.6 13.2 18.6C12.8686 18.6 12.6 18.3314 12.6 18V16.2C12.6 15.8687 12.3314 15.6 12 15.6C11.6686 15.6 11.4 15.8687 11.4 16.2V18C11.4 18.3314 11.1314 18.6 10.8 18.6C10.4686 18.6 10.2 18.3314 10.2 18V12.1596C10.2 11.7884 9.98774 11.456 9.68947 11.2351C8.729 10.5235 8.1 9.38434 8.1 8.10002C8.1 7.93434 8.23431 7.80002 8.4 7.80002H9C9.16569 7.80002 9.3 7.93434 9.3 8.10002C9.3 9.60002 10.5 10.8 12 10.8C13.5 10.8 14.7 9.60002 14.7 8.10002C14.7 7.93434 14.8343 7.80002 15 7.80002H15.6C15.7657 7.80002 15.9 7.93434 15.9 8.10002C15.9 9.38434 15.271 10.5235 14.3105 11.2351Z" fill="white"/>
</svg>
