<svg width="19" height="18" viewBox="0 0 19 18" fill="none" xmlns="http://www.w3.org/2000/svg">
<g clip-path="url(#clip0_6431_4976)">
<path d="M11.1481 15.0663C10.6084 15.1687 10.0514 15.2222 9.482 15.2222C5.50183 15.2222 2.13268 12.6063 1 9C1.30836 8.01822 1.78245 7.10988 2.38949 6.30772M7.59594 7.11438C8.07853 6.63181 8.7452 6.33333 9.48156 6.33333C10.9544 6.33333 12.1482 7.5272 12.1482 9C12.1482 9.73636 11.8497 10.403 11.3672 10.8856M7.59594 7.11438L11.3672 10.8856M7.59594 7.11438L4.67192 4.19036M11.3672 10.8856L14.2915 13.81M4.67192 4.19036L1.48156 1M4.67192 4.19036C6.05843 3.29648 7.70964 2.77778 9.48191 2.77778C13.4621 2.77778 16.8312 5.3937 17.9639 9C17.3355 11.0006 16.0189 12.6964 14.2915 13.81M14.2915 13.81L17.4816 17" stroke="#000E4B" stroke-width="2" stroke-linecap="round" stroke-linejoin="round"/>
</g>
<defs>
<clipPath id="clip0_6431_4976">
<rect width="19" height="18" fill="white"/>
</clipPath>
</defs>
</svg>
